<svg width="64" height="64" viewBox="0 0 64 64" fill="none" xmlns="http://www.w3.org/2000/svg">
<rect x="0.167389" width="63.6154" height="63.6151" rx="16" fill="white"/>
<path d="M45.0578 34.8514L17.5574 53.6332V49.9824C17.5574 48.8246 17.6475 48.2916 19.0055 47.401C20.288 46.6007 41.5415 32.0896 41.5415 32.0896L19.1728 16.7781C18.1789 16.0663 17.454 15.6219 17.454 14.2852V10.3721L45.0561 29.3326C45.9631 29.9559 46.506 30.7578 46.506 31.7369V32.1814C46.506 33.0719 46.1435 34.0494 45.0561 34.8514H45.0578ZM17.8329 23.4744C17.8329 22.2558 19.0104 21.8196 20.0059 22.5166C21.2885 23.2989 33.4134 31.4024 33.4134 31.4024L31.693 32.534C30.3334 33.4934 29.1574 33.5787 27.7978 32.7079C26.1578 31.6615 17.8329 26.087 17.8329 26.087V23.4744Z" fill="#356AE6"/>
</svg>
