<svg width="65" height="65" viewBox="0 0 65 65" fill="none" xmlns="http://www.w3.org/2000/svg">
<rect x="0.32843" y="0.733459" width="63.7925" height="63.7928" rx="16" fill="white"/>
<path d="M30.1496 17.0918L15.6728 23.0821C14.8677 23.4152 14.8761 24.559 15.6862 24.8801L30.2233 30.6449C31.5006 31.1515 32.923 31.1515 34.2003 30.6449L48.7377 24.8798C49.5476 24.559 49.5564 23.4155 48.7509 23.0823L34.2745 17.0916C32.9538 16.5451 31.4701 16.5451 30.1494 17.0916" fill="#FCB400"/>
<path d="M33.5002 33.7932V48.1948C33.5002 48.8796 34.1909 49.3488 34.8276 49.0964L51.0265 42.8088C51.2072 42.7371 51.3621 42.6129 51.4713 42.4521C51.5805 42.2913 51.6389 42.1015 51.6388 41.9071V27.5057C51.6388 26.8207 50.9481 26.3517 50.3114 26.6041L34.1126 32.8918C33.9319 32.9634 33.777 33.0877 33.6678 33.2485C33.5586 33.4092 33.5002 33.5991 33.5002 33.7934" fill="#18BFFF"/>
<path d="M29.7176 34.5356L24.9101 36.8568L24.422 37.0927L14.2738 41.9553C13.6307 42.2657 12.8094 41.7969 12.8094 41.0822V27.5653C12.8094 27.3068 12.942 27.0836 13.1197 26.9157C13.1927 26.843 13.2754 26.781 13.3655 26.7313C13.6079 26.5858 13.9538 26.5469 14.2479 26.6633L29.6368 32.7609C30.4191 33.0712 30.4805 34.1673 29.7176 34.5358" fill="#F82B60"/>
<path d="M29.716 34.5357L24.9086 36.8569L13.1182 26.9155C13.1911 26.843 13.2739 26.781 13.364 26.7314C13.6063 26.5859 13.9522 26.547 14.2463 26.6634L29.6353 32.761C30.4175 33.0713 30.4789 34.1674 29.716 34.5359" fill="black" fill-opacity="0.25"/>
</svg>
