<svg width="65" height="65" viewBox="0 0 65 65" fill="none" xmlns="http://www.w3.org/2000/svg">
<rect x="0.71936" y="0.733459" width="63.7925" height="63.7928" rx="16" fill="white"/>
<path d="M44.3702 33.5733C39.3724 33.5733 35.3216 37.624 35.3216 42.621C35.3216 47.6184 39.3724 51.67 44.3702 51.67C49.3671 51.67 53.4179 47.6184 53.4179 42.621C53.4179 37.624 49.3671 33.5733 44.3702 33.5733ZM20.8622 33.5737C15.8653 33.5741 11.8141 37.624 11.8141 42.6214C11.8141 47.6184 15.8653 51.6696 20.8622 51.6696C25.8596 51.6696 29.9107 47.6184 29.9107 42.6214C29.9107 37.624 25.8596 33.5737 20.8618 33.5737H20.8622ZM41.6641 22.2631C41.6641 27.26 37.6133 31.3121 32.6164 31.3121C27.6186 31.3121 23.5679 27.26 23.5679 22.2631C23.5679 17.2661 27.6186 13.2149 32.6164 13.2149C37.6133 13.2149 41.6637 17.2661 41.6637 22.2631H41.6641Z" fill="url(#paint0_radial_180_6538)"/>
<defs>
<radialGradient id="paint0_radial_180_6538" cx="0" cy="0" r="1" gradientUnits="userSpaceOnUse" gradientTransform="translate(32.6158 34.231) scale(27.5681 25.4813)">
<stop stop-color="#FFB900"/>
<stop offset="0.6" stop-color="#F95D8F"/>
<stop offset="0.9991" stop-color="#F95353"/>
</radialGradient>
</defs>
</svg>
