<svg width="68" height="65" viewBox="0 0 68 65" fill="none" xmlns="http://www.w3.org/2000/svg">
<rect x="0.589355" y="0.733459" width="66.5587" height="63.6649" rx="16" fill="white"/>
<path d="M23.2225 30.9538V30.9536C23.1131 30.8261 22.9746 30.7267 22.8187 30.6638C22.6628 30.601 22.4941 30.5766 22.3268 30.5926C22.1856 30.6183 22.0531 30.6789 21.9411 30.7687C21.8292 30.8586 21.7414 30.9749 21.6858 31.1072L11.1181 52.2307C11.0474 52.3718 11.0139 52.5287 11.0209 52.6864C11.0279 52.8441 11.0751 52.9974 11.1581 53.1318C11.241 53.2661 11.357 53.377 11.4948 53.4539C11.6327 53.5308 11.788 53.5711 11.9458 53.5711H26.6602C26.8325 53.5746 27.0021 53.5279 27.1484 53.4368C27.2948 53.3458 27.4115 53.2142 27.4845 53.058C30.5759 46.6787 28.6628 36.7655 23.2225 30.9538Z" fill="url(#paint0_linear_180_6569)"/>
<path d="M53.3588 52.2384C53.1607 51.8418 33.5597 12.6221 33.0776 11.6469C33.0146 11.5103 32.9157 11.3933 32.7916 11.3082C32.6675 11.2232 32.5227 11.1733 32.3725 11.1638L32.3392 11.1631C32.1675 11.172 32.0009 11.2244 31.8551 11.3155C31.7093 11.4066 31.5891 11.5333 31.5058 11.6837L31.5049 11.6846C26.1917 20.1015 25.5896 30.2641 29.8949 38.8697L36.9881 53.0552C37.0631 53.2118 37.1809 53.344 37.3278 53.4366C37.4748 53.5292 37.6448 53.5784 37.8185 53.5786H52.5306C52.6885 53.5787 52.8439 53.5384 52.9818 53.4616C53.1198 53.3848 53.2358 53.2739 53.3188 53.1396C53.4018 53.0053 53.449 52.8519 53.456 52.6942C53.463 52.5364 53.4296 52.3795 53.3588 52.2384Z" fill="url(#paint1_linear_180_6569)"/>
<defs>
<linearGradient id="paint0_linear_180_6569" x1="29.0916" y1="34.2777" x2="16.3889" y2="56.2796" gradientUnits="userSpaceOnUse">
<stop stop-color="#075BD5"/>
<stop offset="0.92" stop-color="#2684FF"/>
</linearGradient>
<linearGradient id="paint1_linear_180_6569" x1="40.2511" y1="11.1631" x2="40.2511" y2="53.5786" gradientUnits="userSpaceOnUse">
<stop stop-color="#2684FF"/>
<stop offset="1" stop-color="#2684FF"/>
</linearGradient>
</defs>
</svg>
