<svg width="65" height="65" viewBox="0 0 65 65" fill="none" xmlns="http://www.w3.org/2000/svg">
<rect x="0.488281" y="0.733398" width="63.7371" height="63.6329" rx="16" fill="white"/>
<path d="M28.0943 15.1677C28.4652 14.9445 28.8257 14.6983 29.2237 14.5267C29.7522 14.3012 30.3036 14.1334 30.8682 14.0261C31.8776 13.8182 32.9195 13.8235 33.9268 14.0417C35.4021 14.3514 36.7532 15.0889 37.8107 16.1617C38.2998 16.6538 38.7143 17.2147 39.0409 17.8264C39.9624 19.5513 40.8814 21.2771 41.798 23.0037C42.3491 24.041 42.895 25.0804 43.4477 26.1172C44.1576 27.4513 44.8728 28.7822 45.5827 30.1163C46.1338 31.1515 46.6797 32.1899 47.2308 33.2251C48.1213 34.894 49.013 36.5629 49.9059 38.2318C50.2439 38.8665 50.6169 39.4835 50.8896 40.1516C51.2302 40.986 51.4642 41.8392 51.4496 42.7498C51.4402 43.3579 51.4658 43.9666 51.3284 44.5674C50.9011 46.4412 49.9514 47.9761 48.4135 49.15C47.8321 49.5944 47.2026 49.9641 46.5266 50.2014C45.8622 50.434 45.1653 50.6244 44.4371 50.5879C44.0422 50.5676 43.6452 50.5848 43.2492 50.5837C42.1261 50.5809 41.0252 50.2713 40.0658 49.6883C39.451 49.3232 38.8753 48.8976 38.3837 48.3719C37.8848 47.8384 37.4382 47.2652 37.0934 46.6185C36.5846 45.6652 36.0769 44.7115 35.5702 43.7574C34.8413 42.3889 34.1132 41.0201 33.3861 39.6509C32.9682 38.8629 32.556 38.0722 32.1324 37.2873C31.6267 36.3486 31.1278 35.4025 30.6232 34.4611C30.0131 33.3242 29.3966 32.1904 28.8168 31.0378C28.611 30.6295 28.425 30.2149 28.132 29.8602C26.6614 28.0808 24.7835 27.347 22.4954 27.6985C21.6356 27.8304 20.8583 28.1772 20.1447 28.6743C20.1364 28.6805 20.1296 28.6894 20.1207 28.6951C19.9373 28.8177 19.7315 28.8344 19.6182 28.7363C19.5226 28.6534 19.4823 28.3786 19.5659 28.2289C19.6056 28.1553 19.6458 28.0808 19.6882 28.0083C20.1933 27.1399 20.6807 26.2617 21.2193 25.4126C21.4282 25.0788 21.5996 24.7216 21.8289 24.3951C22.0169 24.1271 22.1481 23.8079 22.3163 23.5184C22.7342 22.8003 23.161 22.0884 23.5799 21.3718C23.9774 20.6938 24.3677 20.0085 24.7647 19.3295C25.1617 18.6505 25.5456 17.9834 25.9547 17.3221C26.2848 16.7891 26.745 16.363 27.1755 15.914C27.4283 15.6491 27.724 15.4446 28.0045 15.2157L28.0943 15.1677Z" fill="#1B1F22"/>
<path d="M16.3217 35.4896C16.5641 35.4265 16.702 35.2101 16.9162 35.0927C17.3717 34.8335 17.8452 34.6069 18.3329 34.4148C19.4708 33.9857 20.6877 33.8061 21.9013 33.888C23.2088 33.9712 24.4776 34.3645 25.6024 35.0354C26.6696 35.6612 27.5639 36.4821 28.2441 37.5116C29.2799 39.0793 29.8206 40.7998 29.6874 42.6935C29.5077 45.2537 28.3961 47.3216 26.3687 48.906C25.7837 49.3642 25.1364 49.7372 24.4463 50.0137C23.3676 50.445 22.2288 50.6161 21.0618 50.5769C20.5497 50.553 20.04 50.4913 19.537 50.3923C18.404 50.1932 17.3356 49.7249 16.422 49.027C16.2016 48.8585 15.9597 48.714 15.781 48.4893C15.6572 48.3328 15.4206 48.2885 15.3271 48.1028C15.1798 47.8118 14.9191 47.6188 14.7185 47.3763C14.3006 46.8689 13.9809 46.3114 13.6884 45.7283C13.3133 44.9799 13.1576 44.1762 13.0411 43.36C12.919 42.4701 12.9382 41.5665 13.0981 40.6825C13.1105 40.6621 13.1187 40.6396 13.1223 40.616C13.1259 40.5925 13.1247 40.5685 13.119 40.5453C13.2177 40.1474 13.2673 39.7401 13.4261 39.3531C13.6314 38.8514 13.8305 38.3487 14.1376 37.8986C14.3832 37.5382 14.6031 37.1491 14.905 36.842C15.1375 36.6047 15.3057 36.3126 15.5972 36.1118C15.827 35.9554 16.0334 35.7363 16.2486 35.5433L16.3217 35.4896Z" fill="#1B1F22"/>
</svg>
