<svg width="64" height="65" viewBox="0 0 64 65" fill="none" xmlns="http://www.w3.org/2000/svg">
<rect x="0.12088" y="0.733459" width="63.7925" height="63.7928" rx="16" fill="white"/>
<path d="M10.3543 34.9971C13.7172 25.4988 20.1349 14.4605 33.0857 14.4605C46.0366 14.4605 52.4413 31.493 53.25 43.0447" stroke="#1D2D35" stroke-width="4.47242" stroke-linecap="round" stroke-linejoin="round"/>
<path d="M33.0834 14.4346C46.0343 14.4346 52.4391 31.4928 53.2477 43.0446C49.8463 48.949 41.6959 51.1695 33.0834 51.1695C29.5888 51.2337 26.1216 50.5408 22.9201 49.1383C19.7186 47.7358 16.8585 45.657 14.5363 43.0446C14.5363 43.0446 18.5923 32.0961 22.3787 32.0704C25.1512 32.0704 27.5129 37.2046 29.7334 37.2046C31.954 37.2046 36.5618 27.347 36.5618 27.347" stroke="#1D2D35" stroke-width="4.47242" stroke-linecap="round" stroke-linejoin="round"/>
</svg>
