<svg width="64" height="64" viewBox="0 0 64 64" fill="none" xmlns="http://www.w3.org/2000/svg">
<rect x="0.387695" width="63.6154" height="63.6151" rx="16" fill="white"/>
<path d="M38.6122 37.3527C37.4611 38.3744 36.0227 39.6454 33.4141 39.6454H31.8539C30.9606 39.6618 30.0731 39.4998 29.2432 39.1688C28.4134 38.8378 27.6579 38.3446 27.0211 37.718C25.8054 36.4643 25.1362 34.7798 25.1603 33.0336V30.8988C25.1368 29.1533 25.8059 27.4696 27.0211 26.2163C27.6579 25.5897 28.4134 25.0965 29.2432 24.7655C30.0731 24.4346 30.9606 24.2725 31.8539 24.2889H33.4141C36.0246 24.2889 37.4611 25.558 38.6122 26.5721C39.809 27.6262 40.8403 28.5471 43.5915 28.5471C44.0115 28.5468 44.4308 28.5131 44.8454 28.4463L44.834 28.4215C44.6714 28.0124 44.4807 27.6151 44.2632 27.2324L42.4233 24.0473C41.5939 22.6115 40.4012 21.4192 38.9651 20.5903C37.5289 19.7613 35.9 19.3249 34.2418 19.3249H30.5563C28.8981 19.3249 27.2691 19.7613 25.833 20.5903C24.3969 21.4192 23.2042 22.6115 22.3748 24.0473L20.5349 27.2324C19.7065 28.6691 19.2705 30.2983 19.2705 31.9567C19.2705 33.6151 19.7065 35.2443 20.5349 36.681L22.3748 39.8661C23.2041 41.3021 24.3967 42.4947 25.8328 43.3239C27.2689 44.1532 28.898 44.59 30.5563 44.5904H34.2361C35.8944 44.59 37.5234 44.1532 38.9595 43.3239C40.3956 42.4947 41.5882 41.3021 42.4176 39.8661L44.2575 36.6848C44.4754 36.303 44.6661 35.9062 44.8283 35.4976L44.8397 35.4747C44.4254 35.4048 44.006 35.3698 43.5858 35.3701C40.8345 35.3701 39.8033 36.2853 38.6065 37.3431" fill="#006BFF"/>
<path d="M33.4175 26.2227H31.8573C28.9842 26.2227 27.1006 28.2737 27.1006 30.8994V33.0342C27.1006 35.6618 28.988 37.7129 31.8573 37.7129H33.4175C37.6034 37.7129 37.2742 33.4452 43.5949 33.4452C44.1936 33.4434 44.7912 33.4982 45.3796 33.6088C45.5718 32.5232 45.5718 31.4123 45.3796 30.3267C44.7909 30.4354 44.1935 30.4902 43.5949 30.4903C37.2723 30.4903 37.6034 26.2227 33.4175 26.2227Z" fill="#006BFF"/>
<path d="M49.0094 35.1683C47.9332 34.3795 46.6919 33.8453 45.3791 33.6062V33.6385C45.2649 34.2672 45.0884 34.8829 44.8521 35.4765C45.9361 35.6451 46.9646 36.069 47.8526 36.7132C47.8543 36.7227 47.8543 36.7323 47.8526 36.7418C47.2262 38.7739 46.2055 40.6627 44.8488 42.3001C43.4921 43.9376 41.826 45.2916 39.9457 46.2849C38.0654 47.2781 36.0079 47.891 33.8906 48.0887C31.7733 48.2863 29.6378 48.0648 27.6062 47.4367C25.5747 46.8095 23.6868 45.7882 22.0501 44.4312C20.4135 43.0742 19.0603 41.408 18.0678 39.5278C17.0753 37.6476 16.463 35.5903 16.2659 33.4734C16.0687 31.3565 16.2906 29.2215 16.9189 27.1904C17.545 25.1591 18.5653 23.2712 19.9216 21.6346C21.2779 19.998 22.9435 18.6447 24.8232 17.6523C26.7029 16.6599 28.7598 16.0478 30.8762 15.8509C32.9927 15.6541 35.1272 15.8763 37.1576 16.505C39.6759 17.2802 41.9666 18.6588 43.8305 20.5211C45.6945 22.3834 47.0752 24.6729 47.8526 27.1904C47.8508 27.2005 47.8508 27.2108 47.8526 27.2208C46.9648 27.8647 45.9361 28.2874 44.8521 28.4538C45.0881 29.0488 45.2646 29.6657 45.3791 30.2955C45.3772 30.3056 45.3772 30.3159 45.3791 30.326C46.6915 30.0866 47.9326 29.5532 49.0094 28.7658C50.0445 28.0047 49.8428 27.1333 49.6868 26.6215C48.2686 22.025 45.0827 18.18 40.8299 15.9321C36.5771 13.6842 31.6056 13.2175 27.0088 14.6347C22.4122 16.0529 18.5672 19.2387 16.3193 23.4915C14.0714 27.7443 13.6048 32.7158 15.0219 37.3126C16.4397 41.9094 19.6254 45.7547 23.8784 48.0027C28.1313 50.2506 33.1031 50.717 37.6999 49.2994C40.5231 48.4287 43.0908 46.8815 45.1798 44.7925C47.2689 42.7034 48.816 40.1357 49.6868 37.3126C49.8428 36.8008 50.0445 35.935 49.0094 35.1702" fill="#006BFF"/>
<path d="M44.845 28.4561C44.4311 28.5242 44.0124 28.5592 43.593 28.5607C40.8417 28.5607 39.8086 27.6455 38.6156 26.5857C37.4607 25.5621 36.026 24.2911 33.4156 24.2911H31.8554C30.962 24.2751 30.0744 24.4374 29.2445 24.7687C28.4147 25.1 27.6593 25.5935 27.0226 26.2204C25.8073 27.4737 25.1382 29.1574 25.1618 30.9029V33.0377C25.1377 34.7839 25.8069 36.4684 27.0226 37.722C27.6594 38.3487 28.4149 38.8419 29.2447 39.1729C30.0746 39.5038 30.9621 39.6659 31.8554 39.6494H33.4156C36.026 39.6494 37.4607 38.3785 38.6156 37.3662C39.8086 36.3122 40.8417 35.3913 43.593 35.3913C44.0123 35.3915 44.431 35.4253 44.845 35.4921C45.0862 34.8956 45.2653 34.2759 45.3796 33.6427V33.6104C44.7902 33.5024 44.1922 33.4482 43.593 33.4487C37.2704 33.4487 37.6015 37.7182 33.4156 37.7182H31.8554C28.9823 37.7182 27.0987 35.6653 27.0987 33.0377V30.8991C27.0987 28.2734 28.9842 26.2223 31.8554 26.2223H33.4156C37.6015 26.2223 37.2723 30.49 43.593 30.49C44.1924 30.4901 44.7905 30.4347 45.3796 30.3245V30.2959C45.2656 29.6664 45.0884 29.05 44.8507 28.4561" fill="#0AE8F0"/>
</svg>
