<svg width="65" height="64" viewBox="0 0 65 64" fill="none" xmlns="http://www.w3.org/2000/svg">
<rect x="0.709473" width="63.6782" height="63.5738" rx="16" fill="white"/>
<path d="M47.7964 28.4914L32.3984 37.2103L16.0187 27.9205L15.2437 28.3357V35.0825L32.3984 44.8395L47.7964 36.1205V39.7015L32.3984 48.4205L16.0187 39.1306L15.2437 39.5458V40.6876L32.3984 50.4445L49.605 40.6876V33.9408L48.8299 33.5255L32.3984 42.8154L17.0521 34.0964V30.5673L32.3984 39.2344L49.605 29.4775V22.8344L48.7265 22.3674L32.3984 31.6053L17.8788 23.3534L32.3984 15.1534L44.3861 21.9003L45.4712 21.3294V20.499L32.3984 13.1294L15.2437 22.8344V23.8724L32.3984 33.6293L47.7964 24.9104V28.4914Z" fill="#FF3621"/>
</svg>
