<svg width="65" height="65" viewBox="0 0 65 65" fill="none" xmlns="http://www.w3.org/2000/svg">
<rect x="0.91333" y="0.733459" width="63.7925" height="63.7928" rx="16" fill="white"/>
<path d="M25.8204 20.2845C25.8204 20.7204 25.7841 21.4469 25.3482 21.9191C24.876 22.355 24.1496 22.3913 23.7137 22.3913H19.0644C17.7204 22.3913 16.9213 22.3913 16.3765 22.4639C16.0859 22.5003 15.7227 22.6455 15.5411 22.7182C15.4684 22.7545 15.4684 22.7182 15.5047 22.6819L26.111 11.8939C26.1473 11.8576 26.1837 11.8576 26.1473 11.9302C26.0747 12.1118 25.9294 12.4751 25.8931 12.7657C25.8204 13.3105 25.8204 14.1096 25.8204 15.4536V20.2845ZM35.7003 52.9027C34.4653 52.1036 33.8115 51.0502 33.5572 50.3964C33.303 49.7789 33.1577 49.0888 33.1577 48.3986C33.1577 45.3838 35.6276 42.9138 38.6787 42.9138C39.5868 42.9138 40.3133 43.6403 40.3133 44.5484C40.3133 45.1659 39.9864 45.6744 39.4779 45.965C39.2962 46.0739 39.042 46.1466 38.8604 46.1829C38.6787 46.2192 37.9886 46.2919 37.6617 46.5825C37.2985 46.8731 37.0079 47.3453 37.0079 47.8538C37.0079 48.3986 37.2258 48.9071 37.5891 49.2704C38.2429 49.9242 39.1146 50.2874 40.059 50.2874C42.529 50.2874 44.5267 48.2897 44.5267 45.8197C44.5267 43.604 43.0375 41.6425 41.0761 40.7708C40.7855 40.6255 40.3133 40.5165 39.8774 40.4075C39.3326 40.2986 38.824 40.2259 38.7877 40.2259C37.2622 40.0443 33.4482 38.8457 33.194 35.4676C33.194 35.4676 32.068 40.5528 29.816 41.9331C29.598 42.0421 29.3074 42.1511 28.9805 42.2237C28.6536 42.2963 28.2904 42.3327 28.1814 42.3327C24.5128 42.5506 20.6263 41.3883 17.9384 38.6277C17.9384 38.6277 16.1222 37.1385 15.1778 32.9613C14.9599 31.9443 14.524 30.1281 14.2697 28.4209C14.1608 27.8034 14.1245 27.3312 14.0881 26.8953C14.0881 25.1155 15.1778 23.9169 16.5581 23.7352C16.5944 23.7352 16.7034 23.7352 16.776 23.7352C17.6115 23.7352 23.968 23.7352 23.968 23.7352C25.2393 23.7352 25.9657 23.4083 26.4379 22.9725C27.0554 22.3913 27.2007 21.5559 27.2007 20.5751C27.2007 20.5751 27.2007 13.9643 27.2007 13.1289C27.2007 13.0926 27.2007 12.9473 27.2007 12.911C27.3823 11.567 28.581 10.441 30.3608 10.441C30.3608 10.441 30.9056 10.441 31.2326 10.441C31.5958 10.441 32.0317 10.4773 32.4312 10.5136C32.7218 10.5499 32.976 10.6226 33.4119 10.7316C35.6276 11.2764 36.0998 13.5284 36.0998 13.5284C36.0998 13.5284 40.277 14.2549 42.3837 14.6181C44.3814 14.9814 49.3214 15.3083 50.2658 20.2845C52.4815 32.1259 51.1375 43.604 51.0285 43.604C49.4667 54.7915 40.168 54.2466 40.168 54.2466C38.1702 54.2466 36.681 53.5928 35.7003 52.9027ZM44.0545 29.1111C42.8559 29.0021 41.8388 29.4743 41.4756 30.3824C41.403 30.564 41.3303 30.7819 41.3666 30.8909C41.403 30.9999 41.4756 31.0362 41.5483 31.0725C41.9841 31.2904 42.7106 31.3994 43.764 31.5084C44.8173 31.6174 45.5438 31.69 46.016 31.6174C46.0886 31.6174 46.1613 31.581 46.2339 31.4721C46.3066 31.3631 46.2702 31.1452 46.2702 30.9635C46.1249 29.9465 45.2532 29.2563 44.0545 29.1111Z" fill="#00A82D"/>
</svg>
