<svg width="64" height="65" viewBox="0 0 64 65" fill="none" xmlns="http://www.w3.org/2000/svg">
<rect x="0.498291" y="0.733459" width="63.4286" height="63.4286" rx="16" fill="white"/>
<path d="M26.4826 50.2959C29.7306 50.2959 32.3673 47.6592 32.3673 44.4113V38.5266H26.4826C23.2347 38.5266 20.598 41.1633 20.598 44.4113C20.598 47.6592 23.2347 50.2959 26.4826 50.2959Z" fill="#0ACF83"/>
<path d="M20.5872 32.6358C20.5872 29.3879 23.2238 26.7512 26.4718 26.7512H32.3565V38.5267H26.4718C23.2238 38.5267 20.5872 35.89 20.5872 32.642V32.6358Z" fill="#A259FF"/>
<path d="M20.5872 20.8603C20.5872 17.6123 23.2238 14.9756 26.4718 14.9756H32.3565V26.7511H26.4718C23.2238 26.7511 20.5872 24.1145 20.5872 20.8665V20.8603Z" fill="#F24E1E"/>
<path d="M32.3099 14.9756H38.1945C41.4425 14.9756 44.0792 17.6123 44.0792 20.8603C44.0792 24.1083 41.4425 26.745 38.1945 26.745H32.3099V14.9756Z" fill="#FF7262"/>
<path d="M44.1409 32.6358C44.1409 35.8838 41.5043 38.5204 38.2563 38.5204C35.0083 38.5204 32.3099 35.8838 32.3099 32.6358C32.3099 29.3878 34.9465 26.7511 38.1945 26.7511C41.4425 26.7511 44.0792 29.3878 44.0792 32.6358H44.1409Z" fill="#1ABCFE"/>
</svg>
