<svg width="65" height="65" viewBox="0 0 65 65" fill="none" xmlns="http://www.w3.org/2000/svg">
<rect x="0.896423" y="0.733459" width="63.9708" height="63.9708" rx="16" fill="white"/>
<path d="M32.6581 11.8585C20.8788 11.8585 11.3271 21.4085 11.3271 33.1894C11.3271 42.6142 17.4391 50.6099 25.9146 53.4305C26.9806 53.6279 27.372 52.9678 27.372 52.4043C27.372 51.8957 27.3521 50.2153 27.3431 48.4329C21.4086 49.7232 20.1564 45.9161 20.1564 45.9161C19.1861 43.4505 17.788 42.795 17.788 42.795C15.8528 41.4711 17.9339 41.4982 17.9339 41.4982C20.076 41.6487 21.2039 43.6964 21.2039 43.6964C23.1064 46.9575 26.194 46.0146 27.4112 45.4698C27.6026 44.0909 28.1555 43.15 28.7654 42.6174C24.0276 42.0778 19.0469 40.2488 19.0469 32.0754C19.0469 29.7467 19.8802 27.8437 21.2449 26.3499C21.0234 25.8126 20.2933 23.6431 21.4515 20.7049C21.4515 20.7049 23.2427 20.1315 27.319 22.8914C29.0204 22.4186 30.8453 22.1818 32.6581 22.1737C34.4709 22.1818 36.2971 22.4186 38.0018 22.8914C42.0733 20.1315 43.862 20.7049 43.862 20.7049C45.023 23.6431 44.2926 25.8126 44.0711 26.3499C45.4388 27.8437 46.2664 29.7465 46.2664 32.0754C46.2664 40.2682 41.2763 42.0723 36.5264 42.6003C37.2915 43.2623 37.9732 44.5605 37.9732 46.5505C37.9732 49.4045 37.9485 51.7017 37.9485 52.4043C37.9485 52.972 38.3324 53.6371 39.4138 53.4277C47.8846 50.6039 53.9889 42.611 53.9889 33.1894C53.9889 21.4085 44.4385 11.8585 32.6581 11.8585Z" fill="#161614"/>
</svg>
