<svg width="64" height="64" viewBox="0 0 64 64" fill="none" xmlns="http://www.w3.org/2000/svg">
<rect x="0.00311279" width="63.6742" height="63.6742" rx="16" fill="white"/>
<path d="M46.3601 13.1499H17.9154C15.2605 13.1499 13.1535 15.2569 13.1535 17.8696V46.3143C13.1535 48.9692 15.2605 51.0762 17.9154 51.0762H46.3601C48.9728 51.0762 51.0798 48.9692 51.0798 46.3565V17.9118C51.0798 15.2569 48.9728 13.1499 46.3601 13.1499ZM37.1735 20.1031C37.1735 19.3867 37.7213 18.8388 38.4377 18.8388C39.1541 18.8388 39.7019 19.3867 39.7019 20.1031V37.0013C39.7019 37.7177 39.1541 38.2655 38.4377 38.2655C37.7213 38.2655 37.1735 37.7177 37.1735 37.0013V20.1031ZM30.8524 19.4709C30.8524 18.7546 31.4003 18.2067 32.1166 18.2067C32.833 18.2067 33.3808 18.7546 33.3808 19.4709V37.802C33.3808 38.5184 32.833 39.0662 32.1166 39.0662C31.4003 39.0662 30.8524 38.5184 30.8524 37.802V19.4709ZM24.5314 20.1031C24.5314 19.3867 25.0792 18.8388 25.7956 18.8388C26.512 18.8388 27.0598 19.3867 27.0598 20.1031V37.0013C27.0598 37.7177 26.512 38.2655 25.7956 38.2655C25.0792 38.2655 24.5314 37.7177 24.5314 37.0013V20.1031ZM18.2103 22.6315C18.2103 21.9151 18.7582 21.3673 19.4745 21.3673C20.1909 21.3673 20.7388 21.9151 20.7388 22.6315V34.0093C20.7388 34.7257 20.1909 35.2736 19.4745 35.2736C18.7582 35.2736 18.2103 34.7257 18.2103 34.0093V22.6315ZM45.6015 41.9317C45.3908 42.1003 40.7133 46.0193 32.1166 46.0193C23.52 46.0193 18.8424 42.1003 18.6317 41.9317C18.0839 41.4682 18.0418 40.6675 18.5053 40.1618C18.9689 39.614 19.7695 39.5719 20.2752 40.0354C20.3595 40.0354 24.5314 43.4909 32.1166 43.4909C39.7862 43.4909 43.9159 40.0354 43.9159 39.9933C44.4637 39.5297 45.2644 39.614 45.6858 40.1197C46.1915 40.6675 46.1072 41.4682 45.6015 41.9317ZM46.0229 34.0093C46.0229 34.7257 45.4751 35.2736 44.7587 35.2736C44.0423 35.2736 43.4945 34.7257 43.4945 34.0093V22.6315C43.4945 21.9151 44.0423 21.3673 44.7587 21.3673C45.4751 21.3673 46.0229 21.9151 46.0229 22.6315V34.0093Z" fill="#1F8DED"/>
</svg>
