<svg width="64" height="64" viewBox="0 0 64 64" fill="none" xmlns="http://www.w3.org/2000/svg">
<rect x="0.398254" width="63.3112" height="63.6151" rx="16" fill="white"/>
<path d="M45.2216 11.0635C45.5852 11.3707 46.0622 11.3409 46.4827 11.4771C49.9664 12.6109 52.4247 15.8152 52.4424 19.4788C52.4823 27.6034 52.5653 35.7304 52.4196 43.8531C52.3284 48.9621 48.4228 52.1918 44.0093 52.2653C39.6739 52.3375 35.337 52.3375 30.9987 52.2653C21.5129 52.0993 12.9664 44.6645 11.4064 35.3156C11.1803 33.9618 11.0688 32.5913 11.0732 31.2188C11.0846 27.5565 11.0776 23.8948 11.0789 20.2325C11.0789 15.5625 13.451 12.4703 17.9747 11.2415C18.1065 11.2054 18.2667 11.2415 18.3224 11.0641L45.2216 11.0635ZM33.7787 40.2136V40.2611H37.7437C38.0022 40.2611 38.2612 40.2668 38.5196 40.2611C39.6313 40.2301 40.3856 39.5372 40.3882 38.551C40.3907 37.5648 39.637 36.8408 38.5279 36.8345C35.8847 36.8199 33.2409 36.8345 30.5971 36.83C27.964 36.83 26.6016 35.4853 26.5991 32.8871C26.5991 30.3118 26.6022 27.7357 26.5991 25.1597C26.5991 23.8929 25.9549 23.117 24.9123 23.0942C23.8197 23.0708 23.1565 23.8315 23.154 25.1382C23.1483 27.7142 23.154 30.2902 23.154 32.8656C23.154 34.1197 23.2687 35.3422 23.84 36.4981C24.8236 38.4876 26.8347 40.0857 29.1282 40.2022C30.6731 40.277 32.2275 40.2136 33.7787 40.2136ZM35.1943 23.0847C34.0447 23.0847 32.8951 23.0632 31.7461 23.091C30.6877 23.117 30.0612 23.7821 30.0524 24.817C30.0441 25.8229 30.694 26.4981 31.7727 26.5095C34.0428 26.5323 36.3127 26.5323 38.5823 26.5095C39.6142 26.5 40.3742 25.7557 40.3907 24.8259C40.4078 23.8365 39.6534 23.1024 38.5538 23.0834C37.4353 23.0695 36.3148 23.0847 35.1943 23.0847ZM34.3246 29.9564C33.5209 29.9564 32.7164 29.9463 31.9133 29.9564C30.8219 29.9729 30.0764 30.6531 30.0536 31.6317C30.0308 32.6103 30.7846 33.3685 31.8766 33.3818C33.5411 33.4025 35.2059 33.4025 36.8709 33.3818C37.9204 33.3673 38.6546 32.6458 38.6647 31.6894C38.6755 30.7013 37.9217 29.9792 36.8215 29.957C35.9898 29.9418 35.1569 29.9564 34.3246 29.9564Z" fill="#453AFE"/>
</svg>
