<svg width="64" height="64" viewBox="0 0 64 64" fill="none" xmlns="http://www.w3.org/2000/svg">
<rect x="0.240723" width="63.3112" height="63.3109" rx="16" fill="white"/>
<path d="M48.1474 36.4757L47.5524 34.7898C47.5524 34.7898 50.0316 31.0215 43.8832 29.7323C43.8832 29.7323 44.2799 25.0715 42.0982 22.8898C46.8583 18.229 45.7674 11.1881 34.9582 15.7498C29.4048 5.13893 7.98465 30.0298 16.9097 33.9965C16.0172 35.1865 16.0172 41.1365 22.1656 41.7315C26.3306 50.6565 36.4457 51.2515 42.2966 48.574C48.1474 45.8965 51.5191 37.3682 48.1474 36.4757ZM22.0664 40.4423C17.0089 39.9465 16.513 33.0048 20.8764 32.3107C25.2398 31.6165 26.3306 40.839 22.0664 40.4423ZM20.5789 31.0215C19.1906 31.0215 17.5047 32.9057 17.5047 32.9057C10.7613 29.6331 29.7023 7.91561 33.7682 16.3448C33.7682 16.3448 23.8514 21.1048 20.5789 31.0215ZM40.4124 39.4507C40.4124 39.054 38.3299 40.0457 34.5615 38.7565C34.859 36.674 39.3215 40.5415 46.7591 35.484L47.3541 37.5665C50.1308 37.0707 47.3541 46.4915 38.429 46.3923C31.1898 46.2932 28.909 38.8557 32.8757 34.7898C33.669 33.9965 29.9998 32.4098 30.694 28.939C30.9915 27.4515 32.2807 25.2698 35.5532 25.8648C38.8257 26.4598 39.5199 23.4848 41.7016 24.5756C43.8832 25.6665 42.5941 29.8315 42.8916 30.4265C43.1891 31.0215 46.3624 31.1206 46.9574 32.8065C47.5524 34.4923 42.8916 38.1615 35.6524 37.1698C33.9665 36.9715 32.9748 39.1532 34.0657 40.5415C36.2474 43.7148 45.1724 41.6323 46.6599 38.5582C42.8916 41.434 35.1565 42.5248 34.5615 39.4507C36.7432 40.4423 40.4124 39.8473 40.4124 39.4507ZM27.4215 23.7823C29.6031 21.1048 32.479 19.5181 32.479 19.5181L31.884 21.0056C31.884 21.0056 33.9665 19.419 36.2474 19.419L35.454 20.2123C38.0324 20.3115 39.1232 21.3031 39.1232 21.3031C39.1232 21.3031 33.074 19.5181 27.4215 23.7823ZM40.8091 27.6498C42.0982 27.5506 41.7016 30.5256 41.7016 30.5256H40.9082C40.9082 30.5256 39.5199 27.749 40.8091 27.6498ZM34.9582 30.9223C34.0657 31.0215 33.074 31.5173 33.1732 31.1206C33.5698 29.534 37.239 29.9306 37.1399 31.319C37.0407 32.7073 36.2474 30.724 34.9582 30.9223ZM37.0407 32.1123C37.1399 32.3107 36.3465 32.1123 35.7515 32.2115C35.1565 32.3107 34.5615 32.6082 34.5615 32.4098C34.5615 32.2115 36.8424 31.319 37.0407 32.1123ZM39.024 32.4098C39.3215 31.8148 40.5116 32.4098 40.2141 33.0048C39.9165 33.5998 38.7265 33.0048 39.024 32.4098ZM41.5032 32.6082C40.9082 32.6082 40.9082 31.319 41.5032 31.319C42.0982 31.319 42.0982 32.7073 41.5032 32.7073V32.6082ZM23.6531 37.864C23.9506 38.1615 23.0581 38.7565 22.3639 38.2607C21.6698 37.7648 23.1573 35.3848 21.3722 34.7898C19.5872 34.1948 20.0831 36.4757 19.5872 36.1782C19.0914 35.8807 20.2814 32.7073 22.3639 33.9965C24.4464 35.2857 21.7689 37.269 22.9589 37.864C24.1489 38.459 23.4548 37.6657 23.6531 37.864Z" fill="#1E1E1E"/>
</svg>
