<svg width="65" height="65" viewBox="0 0 65 65" fill="none" xmlns="http://www.w3.org/2000/svg">
<rect x="0.855957" y="0.733398" width="63.7335" height="63.7335" rx="16" fill="white"/>
<path d="M20.9436 11.8174H44.4994C49.4688 11.8174 53.5035 15.852 53.5035 20.8215V44.3773C53.5035 49.3468 49.4688 53.3814 44.4994 53.3814H20.9436C15.9741 53.3814 11.9395 49.3468 11.9395 44.3773V20.8215C11.9395 15.852 15.9741 11.8174 20.9436 11.8174Z" fill="#FFD02F"/>
<path d="M40.8242 17.0083H36.2607L40.0616 23.6876L31.6971 17.0083H27.1336L31.3158 25.176L22.57 17.0083H18.0065L22.57 27.4024L18.0065 48.1905H22.57L31.3158 25.914L27.1336 48.1905H31.6971L40.0616 24.4379L36.2607 48.1905H40.8242L49.1887 22.1992L40.8242 17.0083Z" fill="#050038"/>
</svg>
