<svg width="65" height="65" viewBox="0 0 65 65" fill="none" xmlns="http://www.w3.org/2000/svg">
<rect x="0.926758" y="0.733398" width="63.7925" height="63.7928" rx="16" fill="white"/>
<path fill-rule="evenodd" clip-rule="evenodd" d="M27.4834 14.0123C21.382 14.4839 16.1943 14.8965 15.9585 14.926C15.2806 15.0734 14.6616 15.5155 14.3668 16.1345L14.1016 16.6651L14.131 29.4575L14.1605 42.2498L14.5437 43.0457C14.7795 43.4878 16.2533 45.5511 17.8744 47.6439C21.0872 51.8294 21.323 52.0357 22.5315 52.1831C22.8852 52.2126 25.5675 52.0947 28.4266 51.9178C31.3152 51.741 35.9723 51.4462 38.743 51.2988C50.6215 50.5619 50.0026 50.6209 50.71 50.0314C51.5648 49.324 51.4763 50.503 51.5353 34.9399C51.5648 21.7643 51.5353 20.8801 51.329 20.4969C51.1226 20.0253 50.71 19.7305 45.2865 15.9282C41.661 13.3638 41.3958 13.2459 39.7746 13.2164C39.0967 13.187 33.5553 13.5701 27.4834 14.0123Z" fill="white"/>
<path fill-rule="evenodd" clip-rule="evenodd" d="M27.4834 14.0123C21.382 14.4839 16.1943 14.8965 15.9585 14.926C15.2806 15.0734 14.6616 15.5155 14.3668 16.1345L14.1016 16.6651L14.131 29.4575L14.1605 42.2498L14.5437 43.0457C14.7795 43.4878 16.2533 45.5511 17.8744 47.6439C21.0872 51.8294 21.323 52.0357 22.5315 52.1831C22.8852 52.2126 25.5675 52.0947 28.4266 51.9178C31.3152 51.741 35.9723 51.4462 38.743 51.2988C50.6215 50.5619 50.0026 50.6209 50.71 50.0314C51.5648 49.324 51.4763 50.503 51.5353 34.9399C51.5648 21.7643 51.5353 20.8801 51.329 20.4969C51.1226 20.0253 50.71 19.7305 45.2865 15.9282C41.661 13.3638 41.3958 13.2459 39.7746 13.2164C39.0967 13.187 33.5553 13.5701 27.4834 14.0123ZM41.1894 15.6924C41.72 15.9282 45.4634 18.522 45.9939 19.0231C46.1413 19.1705 46.2002 19.3179 46.1118 19.3768C45.9644 19.5242 22.7673 20.9096 22.0894 20.7917C21.7946 20.7622 21.3525 20.5853 21.0872 20.4085C20.0261 19.6716 17.4028 17.5199 17.4028 17.3725C17.4028 16.9598 17.3144 16.9598 27.6308 16.1935C29.6056 16.0756 32.8774 15.8398 34.8522 15.6629C39.1262 15.3387 40.3936 15.3387 41.1894 15.6924ZM48.5583 22.3539C48.7351 22.5307 48.8825 22.8549 48.9414 23.1792C48.9709 23.4739 49.0004 28.9564 48.9709 35.3231C48.9414 46.229 48.912 46.9364 48.7056 47.2312C48.5877 47.4375 48.3519 47.6439 48.1456 47.7028C47.6445 47.9091 23.3568 49.2945 22.8557 49.1471C22.6199 49.0882 22.2957 48.8818 22.1483 48.705L21.8536 48.4102L21.8241 36.62C21.7946 28.3374 21.8241 24.6824 21.9125 24.3582C21.9715 24.1224 22.1778 23.8276 22.3252 23.7097C22.5315 23.5624 23.9758 23.4444 28.9277 23.1497C32.4058 22.9728 37.7998 22.6486 40.8652 22.4423C48.234 22.0001 48.2046 22.0001 48.5583 22.3539Z" fill="black"/>
<path fill-rule="evenodd" clip-rule="evenodd" d="M42.0448 26.3916C40.7184 26.48 39.5394 26.5979 39.4215 26.6863C39.0088 26.8927 38.773 27.2464 38.7141 27.6295C38.6846 28.0127 38.8025 28.0717 40.1289 28.2485L40.6889 28.3075V33.5247C40.6889 36.6196 40.6595 38.6534 40.571 38.5944C40.5121 38.5355 38.8025 35.8827 36.7392 32.7583C34.676 29.5749 32.9664 26.9811 32.9369 26.9811C32.9074 26.9516 31.5811 27.0106 29.9599 27.1285C27.9851 27.2464 26.8945 27.3937 26.6881 27.5116C26.3344 27.6885 25.9218 28.337 25.9218 28.7496C25.9218 29.0149 26.3934 29.1623 27.3661 29.1623H27.8966V44.1358L27.0418 44.4011C26.4229 44.578 26.1871 44.6959 26.0692 44.9612C25.8923 45.3738 25.8923 45.7275 26.0986 45.7275C26.1576 45.7275 27.5429 45.6686 29.1346 45.5507C32.259 45.3738 32.6127 45.2854 32.9369 44.6369C33.0548 44.4601 33.1432 44.2537 33.1432 44.1653C33.1432 44.1358 32.7011 43.9885 32.2 43.8706C31.6695 43.7527 31.1389 43.6053 31.021 43.6053C30.8147 43.5463 30.8147 43.1632 30.8147 37.9165V32.2867L34.5286 38.0934C38.4193 44.1948 38.8909 44.9022 39.5099 45.197C40.2468 45.5801 42.1332 45.3149 43.0765 44.6959L43.3712 44.519L43.4007 36.2069L43.4302 27.8654L44.0786 27.7474C44.845 27.6001 45.1987 27.2464 45.1987 26.6274C45.1987 26.2442 45.1692 26.2147 44.8155 26.2442C44.6092 26.2442 43.3417 26.3326 42.0448 26.3916Z" fill="black"/>
</svg>
