<svg width="65" height="65" viewBox="0 0 65 65" fill="none" xmlns="http://www.w3.org/2000/svg">
<rect x="0.148071" y="0.733459" width="63.9708" height="63.9708" rx="16" fill="white"/>
<path d="M40.5208 42.6213C45.9867 42.6213 50.4588 38.1847 50.4588 32.7188C50.4588 27.2529 46.0222 22.8163 40.5208 22.8163H23.5198C18.0539 22.8163 13.6173 27.2529 13.6173 32.7188C13.6173 38.1847 18.0539 42.6213 23.5198 42.6213H40.5208ZM23.1294 48.0162C14.6466 48.0162 7.79651 41.1661 7.79651 32.7188C7.79651 24.2715 14.6466 17.4214 23.1294 17.4214H40.9112C49.3585 17.4214 56.2086 24.2715 56.2086 32.7188C56.2086 41.1661 49.3585 48.0162 40.9112 48.0162H23.1294Z" fill="#E32124"/>
</svg>
