<svg width="65" height="64" viewBox="0 0 65 64" fill="none" xmlns="http://www.w3.org/2000/svg">
<rect x="0.551941" width="63.6154" height="63.6151" rx="16" fill="white"/>
<path d="M29.7713 11.7554C36.2777 11.7554 46.0726 13.7709 50.6695 18.3324C51.8364 19.4993 53.3569 21.7624 53.3569 25.1217C53.3569 31.0622 48.5832 40.1499 43.3498 45.454C40.6271 48.1768 36.313 51.7482 30.4785 51.7482C24.7854 51.7482 20.4361 47.8585 19.1984 46.6209C14.3894 41.7765 10.924 34.4569 10.924 27.5969C10.924 23.2829 12.1616 19.4993 15.2734 16.3522C18.173 13.4173 23.1588 11.7554 29.7713 11.7554ZM37.8336 35.4116C40.0259 33.2192 40.6271 30.4965 40.6271 29.0113C40.6271 27.9151 40.3442 26.3239 39.0005 24.9802C36.9142 22.894 34.6511 22.3282 32.1405 22.3282C28.9934 22.3282 26.8717 23.3183 25.4573 24.7327C24.3611 25.8289 23.4064 27.5616 23.4064 30.0014C23.4064 32.4413 24.6793 34.7751 26.0938 36.1895C27.4021 37.4979 29.4177 38.4526 31.504 38.4526C33.5903 38.4526 35.6412 37.6039 37.8336 35.4116Z" fill="#5952FF"/>
</svg>
