<svg width="65" height="65" viewBox="0 0 65 65" fill="none" xmlns="http://www.w3.org/2000/svg">
<rect x="0.161987" y="0.733459" width="64" height="64" rx="16" fill="white"/>
<path fill-rule="evenodd" clip-rule="evenodd" d="M28.3662 14.6465L17.2113 17.5681L14.1372 28.7858L17.982 32.7334L14.0751 36.6158L16.9683 47.8826L28.0748 50.9859L31.9825 47.1027L35.8273 51.0495L46.9821 48.128L50.0555 36.9095L46.2115 32.9634L50.1184 29.0811L47.2252 17.8135L36.1171 14.7102L32.211 18.5926L28.3662 14.6465ZM21.5208 19.7259L27.3969 18.1862L29.9665 20.824L26.2191 24.5477L21.5208 19.7259ZM34.4202 20.8593L37.0312 18.2651L42.882 19.9L38.107 24.6443L34.4202 20.8593ZM17.6576 27.8649L19.2764 21.9566L23.9731 26.7783L20.2265 30.502L17.6576 27.8641V27.8649ZM40.3147 26.9117L45.0896 22.1659L46.6125 28.1011L44.0023 30.696L40.3147 26.9117ZM28.4275 26.8144L32.175 23.0907L35.861 26.8757L32.1144 30.5994L28.4275 26.8144ZM22.4356 32.7687L26.1823 29.045L29.8707 32.83L26.1225 36.5537L22.4356 32.7687ZM34.3236 32.8661L38.0702 29.1424L41.7571 32.9274L38.0096 36.651L34.3236 32.8661ZM17.5794 37.595L20.1912 34.9993L23.8773 38.7851L19.1038 43.5286L17.5794 37.595ZM28.3309 38.8204L32.0783 35.0967L35.7652 38.8817L32.0185 42.6054L28.3309 38.8204ZM40.2181 38.9185L43.9655 35.1949L46.5351 37.8319L44.9171 43.7402L40.2181 38.9185ZM21.3115 45.7968L26.0857 41.051L29.7741 44.836L27.1623 47.4317L21.3115 45.7961V45.7968ZM34.2269 44.8721L37.9736 41.1484L42.6711 45.9709L36.7958 47.5099L34.2269 44.8721Z" fill="#111111"/>
</svg>
