<svg width="65" height="65" viewBox="0 0 65 65" fill="none" xmlns="http://www.w3.org/2000/svg">
<rect x="0.594971" y="0.733459" width="63.7335" height="63.7335" rx="16" fill="white"/>
<path fill-rule="evenodd" clip-rule="evenodd" d="M22.0693 16.4061L32.8062 15.2813L43.5438 16.4061L51.8568 27.4638L32.8069 49.4462L13.7571 27.4638L22.0693 16.4061Z" fill="#FDB300"/>
<path fill-rule="evenodd" clip-rule="evenodd" d="M21.4735 27.5973L32.8069 49.4467L13.7571 27.5973H21.4735Z" fill="#EA6C00"/>
<path fill-rule="evenodd" clip-rule="evenodd" d="M44.1429 27.5973L32.8087 49.4467L51.8586 27.5973H44.1429Z" fill="#EA6C00"/>
<path fill-rule="evenodd" clip-rule="evenodd" d="M21.2989 27.5973H43.9207L32.6098 49.4467L21.2989 27.5973Z" fill="#FDAD00"/>
<path fill-rule="evenodd" clip-rule="evenodd" d="M32.4114 15.2813L21.8834 16.4181L21.2989 27.5968L32.4114 15.2813Z" fill="#FDD231"/>
<path fill-rule="evenodd" clip-rule="evenodd" d="M32.8037 15.2813L43.3317 16.4181L43.9163 27.5968L32.8037 15.2813Z" fill="#FDD231"/>
<path fill-rule="evenodd" clip-rule="evenodd" d="M51.8586 27.5971L43.5238 16.4733L44.1219 27.5971H51.8586Z" fill="#FDAD00"/>
<path fill-rule="evenodd" clip-rule="evenodd" d="M13.7571 27.5965L22.0911 16.4727L21.493 27.5965H13.7571Z" fill="#FDAD00"/>
<path fill-rule="evenodd" clip-rule="evenodd" d="M32.6179 15.2813L21.307 27.5968H43.9288L32.6179 15.2813Z" fill="#FEEEB7"/>
</svg>
