<svg width="64" height="65" viewBox="0 0 64 65" fill="none" xmlns="http://www.w3.org/2000/svg">
<rect x="0.225281" y="0.733459" width="63.3697" height="63.3697" rx="16" fill="white"/>
<path fill-rule="evenodd" clip-rule="evenodd" d="M21.658 37.3087C21.658 39.4007 19.9697 41.0891 17.8777 41.0891C15.7857 41.0891 14.0973 39.3951 14.0973 37.3087C14.0973 35.2224 15.7857 33.5284 17.8777 33.5284H21.658V37.3087ZM23.5454 37.3087C23.5454 35.2168 25.2338 33.5284 27.3257 33.5284C29.4177 33.5284 31.1061 35.2168 31.1061 37.3087V46.7568C31.1061 48.8488 29.4177 50.5372 27.3257 50.5372C25.2338 50.5372 23.5454 48.8488 23.5454 46.7568V37.3087Z" fill="#E01E5A"/>
<path fill-rule="evenodd" clip-rule="evenodd" d="M27.3244 22.1365C25.2324 22.1365 23.5441 20.4481 23.5441 18.3561C23.5441 16.2641 25.2324 14.5757 27.3244 14.5757C29.4164 14.5757 31.1048 16.2641 31.1048 18.3561V22.1365H27.3244ZM27.3244 24.0522C29.4164 24.0522 31.1048 25.7406 31.1048 27.8326C31.1048 29.9246 29.4164 31.613 27.3244 31.613H17.8479C15.7559 31.613 14.0676 29.9189 14.0676 27.8326C14.0676 25.7463 15.7559 24.0522 17.8479 24.0522H27.3244Z" fill="#36C5F0"/>
<path fill-rule="evenodd" clip-rule="evenodd" d="M42.4676 27.8326C42.4676 25.7406 44.156 24.0522 46.248 24.0522C48.3399 24.0522 50.0283 25.7406 50.0283 27.8326C50.0283 29.9246 48.3399 31.613 46.248 31.613H42.4676V27.8326ZM40.5803 27.8326C40.5803 29.9246 38.8919 31.613 36.7999 31.613C34.7079 31.613 33.0195 29.9246 33.0195 27.8326V18.3561C33.0195 16.2641 34.7079 14.5757 36.7999 14.5757C38.8919 14.5757 40.5803 16.2641 40.5803 18.3561V27.8326Z" fill="#2EB67D"/>
<path fill-rule="evenodd" clip-rule="evenodd" d="M36.7999 42.9764C38.8919 42.9764 40.5803 44.6648 40.5803 46.7568C40.5803 48.8488 38.8919 50.5372 36.7999 50.5372C34.7079 50.5372 33.0195 48.8488 33.0195 46.7568V42.9764H36.7999ZM36.7999 41.0891C34.7079 41.0891 33.0195 39.4007 33.0195 37.3087C33.0195 35.2168 34.7079 33.5284 36.7999 33.5284H46.2764C48.3684 33.5284 50.0567 35.2168 50.0567 37.3087C50.0567 39.4007 48.3684 41.0891 46.2764 41.0891H36.7999Z" fill="#ECB22E"/>
</svg>
