<svg width="64" height="65" viewBox="0 0 64 65" fill="none" xmlns="http://www.w3.org/2000/svg">
<rect x="0.161987" y="0.733459" width="63.6939" height="63.6939" rx="16" fill="white"/>
<path fill-rule="evenodd" clip-rule="evenodd" d="M19.2399 13.3262H45.0826C45.9344 13.326 46.778 13.4936 47.5651 13.8194C48.3522 14.1452 49.0674 14.6229 49.6698 15.2252C50.2723 15.8275 50.7502 16.5425 51.0762 17.3295C51.4023 18.1165 51.5701 18.96 51.5702 19.8119V45.6526C51.5702 49.2357 48.6655 52.1402 45.0826 52.1402H19.2399C15.6577 52.1391 12.7543 49.235 12.7543 45.6526V19.8119C12.7543 16.2299 15.6579 13.3262 19.2399 13.3262ZM42.4706 45.084C43.6011 45.084 44.5177 44.1674 44.5177 43.0369L44.512 22.4313C44.512 21.3007 43.5955 20.3844 42.4649 20.3844H21.8613C21.5923 20.3844 21.3259 20.4374 21.0775 20.5404C20.829 20.6434 20.6032 20.7943 20.4131 20.9846C20.223 21.1748 20.0723 21.4007 19.9695 21.6493C19.8667 21.8979 19.8139 22.1642 19.8142 22.4332V43.0369C19.8142 44.1674 20.7307 45.084 21.8613 45.084H42.4706Z" fill="#1A1A1A"/>
<path d="M28.0451 37.9959C27.7351 37.9935 27.4386 37.8687 27.2202 37.6486C27.0018 37.4285 26.8793 37.131 26.8793 36.8209V28.5952C26.8785 28.4404 26.9084 28.287 26.9671 28.1438C27.0258 28.0006 27.1123 27.8704 27.2214 27.7607C27.3306 27.651 27.4604 27.5639 27.6033 27.5045C27.7463 27.4451 27.8995 27.4145 28.0543 27.4146H36.2915C36.4462 27.4149 36.5993 27.4456 36.7421 27.5051C36.8849 27.5647 37.0145 27.6517 37.1237 27.7614C37.2328 27.871 37.3192 28.0011 37.3781 28.1442C37.4369 28.2872 37.4669 28.4405 37.4665 28.5952V36.819C37.467 36.9737 37.437 37.127 37.3783 37.2702C37.3195 37.4133 37.233 37.5434 37.1239 37.6531C37.0147 37.7628 36.8851 37.8499 36.7422 37.9093C36.5994 37.9688 36.4462 37.9996 36.2915 37.9998L28.0451 37.9959Z" fill="#1A1A1A"/>
</svg>
