<svg width="65" height="65" viewBox="0 0 65 65" fill="none" xmlns="http://www.w3.org/2000/svg">
<rect x="0.589355" y="0.733398" width="64" height="64" rx="16" fill="white"/>
<path d="M29.482 24.8324C29.482 23.1625 30.8749 22.5185 33.1064 22.5185C36.3564 22.5185 40.4825 23.5145 43.7324 25.2667V15.2098C40.1904 13.7945 36.6559 13.2554 33.1139 13.2554C24.4498 13.2554 18.6763 17.7784 18.6763 25.3416C18.6763 37.1658 34.9111 35.2488 34.9111 40.3484C34.9111 42.3253 33.1963 42.9618 30.8149 42.9618C27.2804 42.9618 22.7125 41.5016 19.1256 39.5546V49.1772C22.815 50.7688 26.7894 51.5943 30.8075 51.6034C39.6887 51.6034 45.8067 47.7843 45.8067 40.1012C45.8067 27.356 29.482 29.64 29.482 24.8324Z" fill="#6772E5"/>
</svg>
