<svg width="65" height="64" viewBox="0 0 65 64" fill="none" xmlns="http://www.w3.org/2000/svg">
<rect x="0.782837" width="63.6154" height="63.6151" rx="16" fill="white"/>
<path fill-rule="evenodd" clip-rule="evenodd" d="M51.7162 38.644C51.2708 38.644 50.8648 38.4728 50.5595 38.1975C50.6636 37.2953 50.733 36.3838 50.7445 35.4562C51.0221 35.2688 51.3576 35.1554 51.7162 35.1554C52.6704 35.1554 53.4512 35.9385 53.4512 36.9032C53.4519 37.1315 53.4076 37.3577 53.3208 37.5689C53.2339 37.7801 53.1062 37.972 52.945 38.1338C52.7839 38.2955 52.5923 38.4238 52.3815 38.5114C52.1706 38.5989 51.9445 38.644 51.7162 38.644ZM13.4646 38.644C13.2363 38.644 13.0102 38.5989 12.7993 38.5114C12.5884 38.4238 12.3969 38.2955 12.2357 38.1338C12.0745 37.972 11.9468 37.7801 11.86 37.5689C11.7731 37.3577 11.7288 37.1315 11.7296 36.9032C11.7296 35.9385 12.5103 35.1543 13.4646 35.1543C13.8232 35.1543 14.1586 35.2699 14.4362 35.4562C14.4478 36.3838 14.5172 37.2953 14.6213 38.1975C14.3042 38.4842 13.8921 38.6432 13.4646 38.644ZM51.6028 30.9868C51.1147 30.9868 50.6462 31.0539 50.1963 31.1637C48.4682 24.2908 42.8536 18.9724 35.8395 17.715C35.5272 17.6572 35.2438 17.6167 34.9257 17.5762C34.9778 15.8539 35.0587 13.8633 37.578 12.0728L37.1789 11.063C37.1789 11.063 32.27 12.5967 31.7009 16.8209C31.4557 15.6712 29.1666 14.2334 28.033 13.9605L27.4697 14.8742C27.4697 14.8742 28.9723 15.6307 29.3378 17.715C22.326 18.9747 16.7126 24.2919 14.9845 31.1637C14.524 31.0488 14.0514 30.9898 13.5768 30.9879C10.3358 30.9879 7.69739 33.6344 7.69739 36.9032C7.69739 40.165 10.3358 42.8173 13.5768 42.8173C14.3368 42.8173 15.0608 42.6646 15.7259 42.4032C16.2276 43.6621 16.8686 44.8609 17.6368 45.9773L22.518 42.6692L22.4763 42.6137C21.1855 40.9458 20.3955 38.489 20.2636 36.0438C20.1167 33.3487 20.7714 30.6698 22.4844 29.0956C26.0146 26.0744 29.8583 27.4508 32.2665 30.3483H32.9143C35.3225 27.4508 39.1661 26.0744 42.6975 29.0956C44.4094 30.6698 45.0641 33.3487 44.9183 36.0449C44.7853 38.489 43.9953 40.9458 42.7044 42.6148L42.6628 42.6681L47.544 45.9773C48.312 44.8608 48.9529 43.662 49.4548 42.4032C50.1385 42.6747 50.8672 42.8151 51.6028 42.8173C54.845 42.8173 57.4834 40.165 57.4834 36.9032C57.4834 33.6332 54.845 30.9868 51.6028 30.9868Z" fill="#00BF6F"/>
</svg>
