<svg width="65" height="65" viewBox="0 0 65 65" fill="none" xmlns="http://www.w3.org/2000/svg">
<rect x="0.511841" y="0.733459" width="64" height="64" rx="16" fill="white"/>
<path d="M53.5338 40.4827C53.5708 37.7525 53.4505 35.0222 53.1728 32.3105C52.9692 30.478 52.3491 28.1272 50.3593 27.646C50.6158 27.711 50.8855 27.7013 51.1367 27.6182C53.4412 26.415 53.2654 23.4442 52.4509 21.297C51.3774 18.4835 48.8322 16.4844 46.3056 15.1609C41.6198 12.8244 36.4237 11.6977 31.191 11.8836C25.9583 12.0695 20.8552 13.5621 16.3471 16.2253C14.0611 17.632 11.4326 20.3808 12.5895 23.4442C12.9032 24.2066 13.3657 24.8988 13.95 25.4803L14.82 26.3873C13.6446 27.9791 12.7839 29.4229 12.2286 31.3572C10.5627 37.1879 10.8403 40.9362 11.2938 45.6192C11.5807 48.516 12.534 52.8289 15.8751 53.3102C18.596 53.6896 21.5484 52.7919 24.2694 52.4679C27.268 52.1163 30.2944 51.561 33.33 51.6442C37.6059 51.7553 41.8447 52.7641 46.1298 52.8104C48.388 52.8289 52.1455 53.051 52.8211 50.0709C53.4597 47.2389 53.4875 44.2958 53.4875 41.4082C53.5245 41.1028 53.5245 40.7881 53.5245 40.4919L53.5338 40.4827ZM48.6471 45.3786C47.5828 47.7757 44.5749 47.5073 42.474 47.3314L33.0802 46.2115C30.2851 46.1283 27.5179 46.6558 24.7969 47.2574C22.7608 47.7016 19.9195 48.877 18.0778 47.3129C16.0324 45.5822 15.6715 42.6299 15.6437 40.1402C15.6821 37.8922 15.905 35.6512 16.31 33.4396C16.5599 32.0699 16.9672 30.7371 17.5039 29.4599C18.2351 27.6089 19.3179 26.4891 19.3735 26.5446C18.8274 25.9801 18.1703 25.6746 17.8001 24.9065C16.4026 21.9911 19.8917 19.52 21.7983 18.6778C28.4712 15.6977 37.8002 15.9939 44.1029 19.8162C46.065 21.0101 49.878 25.1101 46.3149 27.1554C48.5083 28.192 49.0729 31.3202 49.3135 33.5414C49.6984 37.109 49.5863 40.7127 48.9803 44.2495C48.9148 44.6389 48.7997 45.0184 48.6379 45.3786H48.6471Z" fill="#FF4C00"/>
</svg>
