<svg width="65" height="65" viewBox="0 0 65 65" fill="none" xmlns="http://www.w3.org/2000/svg">
<rect x="0.867188" y="0.733459" width="63.9708" height="63.9708" rx="16" fill="white"/>
<path d="M44.6372 26.3682L40.7763 38.5369C40.7763 37.6049 38.1135 17.4214 38.1135 17.4214C31.9893 17.4214 28.7407 21.7617 27.0366 26.3682L22.3236 38.5635C22.3236 37.6848 21.6579 26.4747 21.6579 26.4747C21.4306 24.048 20.3211 21.7889 18.5398 20.1253C16.7584 18.4617 14.4288 17.5091 11.9922 17.4481L16.9981 48.0162C23.3887 48.0162 26.8502 43.6759 28.6342 39.0694L32.6283 28.6848C32.6283 29.1108 35.2911 48.0162 35.2911 48.0162C37.9042 48.0128 40.4484 47.1774 42.555 45.631C44.6615 44.0847 46.2208 41.9077 47.0071 39.4156L56.0603 17.4214C49.6698 17.4214 46.3147 21.7617 44.6106 26.3682H44.6372Z" fill="#4353FF"/>
</svg>
