<svg width="51" height="51" viewBox="0 0 51 51" fill="none" xmlns="http://www.w3.org/2000/svg">
<path d="M25.3786 14.0815C26.7871 14.0815 28.1379 14.6411 29.1338 15.637C30.1297 16.6329 30.6893 17.9837 30.6893 19.3922C30.6893 20.8007 30.1297 22.1514 29.1338 23.1474C28.1379 24.1433 26.7871 24.7028 25.3786 24.7028C23.9701 24.7028 22.6194 24.1433 21.6234 23.1474C20.6275 22.1514 20.068 20.8007 20.068 19.3922C20.068 17.9837 20.6275 16.6329 21.6234 15.637C22.6194 14.6411 23.9701 14.0815 25.3786 14.0815ZM25.3786 16.7369C24.6744 16.7369 23.999 17.0166 23.501 17.5146C23.003 18.0126 22.7233 18.688 22.7233 19.3922C22.7233 20.0964 23.003 20.7718 23.501 21.2698C23.999 21.7678 24.6744 22.0475 25.3786 22.0475C26.0829 22.0475 26.7582 21.7678 27.2562 21.2698C27.7542 20.7718 28.0339 20.0964 28.0339 19.3922C28.0339 18.688 27.7542 18.0126 27.2562 17.5146C26.7582 17.0166 26.0829 16.7369 25.3786 16.7369ZM25.3786 26.0305C28.9235 26.0305 35.9999 27.7963 35.9999 31.3411V35.3241H14.7573V31.3411C14.7573 27.7963 21.8338 26.0305 25.3786 26.0305ZM25.3786 28.5531C21.4355 28.5531 17.2799 30.4914 17.2799 31.3411V32.8016H33.4774V31.3411C33.4774 30.4914 29.3218 28.5531 25.3786 28.5531Z" fill="black"/>
</svg>
