<svg width="21" height="20" viewBox="0 0 21 20" fill="none" xmlns="http://www.w3.org/2000/svg">
<path d="M18.814 12.6561C18.8755 12.763 18.9154 12.881 18.9314 13.0033C18.9474 13.1256 18.9391 13.2499 18.907 13.369C18.8749 13.4882 18.8197 13.5998 18.7445 13.6976C18.6693 13.7954 18.5756 13.8774 18.4687 13.9389C18.3618 14.0005 18.2438 14.0404 18.1215 14.0563C17.9991 14.0723 17.8749 14.064 17.7557 14.032C17.6366 13.9999 17.525 13.9447 17.4272 13.8695C17.3294 13.7943 17.2474 13.7005 17.1859 13.5936L15.8687 11.2889C15.1337 11.7513 14.3413 12.1153 13.5116 12.3717L13.9249 14.8436C13.9656 15.0888 13.9072 15.3401 13.7626 15.5423C13.618 15.7445 13.399 15.881 13.1538 15.9217C13.1023 15.9309 13.05 15.9354 12.9976 15.935C12.7762 15.9348 12.562 15.8562 12.393 15.7132C12.224 15.5703 12.111 15.3721 12.0741 15.1538L11.6718 12.7475C10.8914 12.834 10.1038 12.834 9.32336 12.7475L8.92492 15.1561C8.88798 15.3747 8.77479 15.5731 8.60545 15.7161C8.43611 15.8591 8.22158 15.9375 7.99992 15.9374C7.94754 15.9377 7.89524 15.9333 7.84367 15.9241C7.72224 15.9036 7.60603 15.8595 7.50167 15.7941C7.39732 15.7287 7.30686 15.6434 7.23547 15.5431C7.16408 15.4428 7.11316 15.3293 7.08561 15.2093C7.05807 15.0893 7.05443 14.965 7.07492 14.8436L7.4882 12.3655C6.65859 12.1091 5.86617 11.745 5.13117 11.2827L3.81398 13.5936C3.75243 13.7005 3.67042 13.7943 3.57263 13.8695C3.47485 13.9447 3.36321 13.9999 3.24409 14.032C3.12497 14.064 3.0007 14.0723 2.87838 14.0563C2.75606 14.0404 2.63808 14.0005 2.53117 13.9389C2.42427 13.8774 2.33053 13.7954 2.25532 13.6976C2.18011 13.5998 2.1249 13.4882 2.09284 13.369C2.06077 13.2499 2.05248 13.1256 2.06844 13.0033C2.0844 12.881 2.1243 12.763 2.18586 12.6561L3.62492 10.1444C3.13724 9.70387 2.68505 9.22556 2.27258 8.71393C2.12699 8.51975 2.06237 8.27667 2.09233 8.03582C2.12229 7.79498 2.24448 7.57513 2.4332 7.42254C2.62193 7.26994 2.86248 7.19647 3.10426 7.2176C3.34604 7.23872 3.57021 7.35279 3.72961 7.5358C4.98273 9.08737 7.17492 10.9374 10.4999 10.9374C13.8249 10.9374 16.0171 9.08737 17.2702 7.5358C17.4271 7.34423 17.6533 7.22246 17.8996 7.19708C18.1458 7.1717 18.3921 7.24476 18.5847 7.40033C18.7773 7.55589 18.9006 7.78133 18.9276 8.02743C18.9546 8.27353 18.8831 8.52032 18.7288 8.71393C18.3159 9.22562 17.8631 9.70393 17.3749 10.1444L18.814 12.6561Z" fill="#656D77"/>
</svg>
