<svg width="21" height="20" viewBox="0 0 21 20" fill="none" xmlns="http://www.w3.org/2000/svg">
<path d="M10.5002 7.5C11.1632 7.5 11.7991 7.76339 12.2679 8.23223C12.7368 8.70107 13.0002 9.33696 13.0002 10C13.0002 10.663 12.7368 11.2989 12.2679 11.7678C11.7991 12.2366 11.1632 12.5 10.5002 12.5C9.83712 12.5 9.20124 12.2366 8.7324 11.7678C8.26356 11.2989 8.00016 10.663 8.00016 10C8.00016 9.33696 8.26356 8.70107 8.7324 8.23223C9.20124 7.76339 9.83712 7.5 10.5002 7.5ZM10.5002 3.75C14.6668 3.75 18.2252 6.34167 19.6668 10C18.2252 13.6583 14.6668 16.25 10.5002 16.25C6.3335 16.25 2.77516 13.6583 1.3335 10C2.77516 6.34167 6.3335 3.75 10.5002 3.75ZM3.15016 10C3.82371 11.3753 4.86958 12.534 6.1689 13.3444C7.46821 14.1548 8.96883 14.5844 10.5002 14.5844C12.0315 14.5844 13.5321 14.1548 14.8314 13.3444C16.1307 12.534 17.1766 11.3753 17.8502 10C17.1766 8.62474 16.1307 7.46604 14.8314 6.65562C13.5321 5.8452 12.0315 5.41557 10.5002 5.41557C8.96883 5.41557 7.46821 5.8452 6.1689 6.65562C4.86958 7.46604 3.82371 8.62474 3.15016 10Z" fill="#656D77"/>
</svg>
