<svg width="28" height="28" viewBox="0 0 28 28" fill="none" xmlns="http://www.w3.org/2000/svg">
    <path
        d="M23.3887 13.7222L11.1387 26.8472C11.0089 26.9857 10.8375 27.0783 10.6505 27.1109C10.4634 27.1435 10.2709 27.1144 10.1018 27.0279C9.93279 26.9415 9.79645 26.8024 9.71338 26.6317C9.63031 26.461 9.60503 26.2679 9.64134 26.0815L11.2448 18.0611L4.94149 15.6942C4.80612 15.6436 4.6854 15.5602 4.59012 15.4515C4.49483 15.3428 4.42795 15.2122 4.39545 15.0714C4.36296 14.9306 4.36585 14.7839 4.40387 14.6444C4.4419 14.505 4.51387 14.3772 4.61337 14.2723L16.8634 1.14732C16.9932 1.00878 17.1645 0.916219 17.3516 0.88361C17.5386 0.851 17.7312 0.880109 17.9002 0.966543C18.0693 1.05298 18.2056 1.19205 18.2887 1.36276C18.3717 1.53348 18.397 1.72659 18.3607 1.91294L16.7529 9.94216L23.0562 12.3058C23.1906 12.3567 23.3103 12.44 23.4048 12.5483C23.4994 12.6565 23.5658 12.7864 23.5982 12.9264C23.6307 13.0664 23.6281 13.2122 23.5908 13.351C23.5535 13.4898 23.4826 13.6173 23.3843 13.7222H23.3887Z"
        fill="white" />
</svg>