<svg width="20" height="20" viewBox="0 0 20 20" fill="none" xmlns="http://www.w3.org/2000/svg">
<path d="M15.5879 14.4087C15.7444 14.5652 15.8323 14.7774 15.8323 14.9987C15.8323 15.22 15.7444 15.4323 15.5879 15.5888C15.4314 15.7453 15.2192 15.8332 14.9979 15.8332C14.7765 15.8332 14.5643 15.7453 14.4078 15.5888L10.0004 11.18L5.59153 15.5874C5.43504 15.7439 5.22279 15.8318 5.00147 15.8318C4.78015 15.8318 4.5679 15.7439 4.41141 15.5874C4.25491 15.4309 4.16699 15.2187 4.16699 14.9973C4.16699 14.776 4.25491 14.5638 4.41141 14.4073L8.82023 9.99983L4.41279 5.59101C4.2563 5.43451 4.16838 5.22226 4.16838 5.00094C4.16838 4.77963 4.2563 4.56737 4.41279 4.41088C4.56929 4.25438 4.78154 4.16647 5.00286 4.16647C5.22418 4.16647 5.43643 4.25438 5.59292 4.41088L10.0004 8.8197L14.4092 4.41018C14.5657 4.25369 14.7779 4.16577 14.9992 4.16577C15.2206 4.16577 15.4328 4.25369 15.5893 4.41018C15.7458 4.56668 15.8337 4.77893 15.8337 5.00025C15.8337 5.22157 15.7458 5.43382 15.5893 5.59031L11.1805 9.99983L15.5879 14.4087Z" fill="#4F5156"/>
</svg>
