<svg width="16" height="16" viewBox="0 0 16 16" fill="none" xmlns="http://www.w3.org/2000/svg">
<path d="M6.35848 13.97L6.11969 12.0596C5.99034 12.0099 5.86856 11.9502 5.75434 11.8805C5.64011 11.8109 5.52808 11.7363 5.41823 11.6567L3.6422 12.4029L2.00049 9.56722L3.53773 8.4031C3.52778 8.33345 3.5228 8.26639 3.5228 8.20191V7.79895C3.5228 7.73408 3.52778 7.66681 3.53773 7.59717L2.00049 6.43304L3.6422 3.59736L5.41823 4.34359C5.52768 4.264 5.6421 4.18937 5.7615 4.11972C5.8809 4.05008 6.00029 3.99038 6.11969 3.94063L6.35848 2.03027H9.64191L9.8807 3.94063C10.01 3.99038 10.132 4.05008 10.2467 4.11972C10.3613 4.18937 10.4731 4.264 10.5822 4.34359L12.3582 3.59736L13.9999 6.43304L12.4627 7.59717C12.4726 7.66681 12.4776 7.73408 12.4776 7.79895V8.20132C12.4776 8.26619 12.4676 8.33345 12.4477 8.4031L13.985 9.56722L12.3433 12.4029L10.5822 11.6567C10.4727 11.7363 10.3583 11.8109 10.2389 11.8805C10.1195 11.9502 10.0001 12.0099 9.8807 12.0596L9.64191 13.97H6.35848ZM7.40321 12.776H8.58226L8.7912 11.194C9.09964 11.1144 9.3858 10.9976 9.64967 10.8436C9.91354 10.6896 10.1547 10.5029 10.3732 10.2836L11.8508 10.8955L12.4328 9.88064L11.1493 8.91053C11.199 8.77124 11.2339 8.62458 11.2538 8.47056C11.2737 8.31653 11.2836 8.15973 11.2836 8.00013C11.2836 7.84054 11.2737 7.68393 11.2538 7.5303C11.2339 7.37668 11.199 7.22982 11.1493 7.08973L12.4328 6.11963L11.8508 5.10475L10.3732 5.73159C10.1543 5.50274 9.91314 5.31131 9.64967 5.15729C9.3862 5.00326 9.10004 4.88625 8.7912 4.80626L8.59718 3.22425H7.41813L7.20919 4.80626C6.90075 4.88586 6.61479 5.00286 6.35132 5.15729C6.08785 5.31171 5.84647 5.49816 5.62718 5.71666L4.14964 5.10475L3.56758 6.11963L4.8511 7.0748C4.80135 7.22405 4.76652 7.3733 4.74662 7.52254C4.72672 7.67179 4.71677 7.83099 4.71677 8.00013C4.71677 8.15933 4.72672 8.31355 4.74662 8.4628C4.76652 8.61204 4.80135 8.76129 4.8511 8.91053L3.56758 9.88064L4.14964 10.8955L5.62718 10.2687C5.84607 10.4975 6.08745 10.6892 6.35132 10.8436C6.61519 10.998 6.90114 11.1148 7.20919 11.194L7.40321 12.776ZM8.03005 10.0896C8.60713 10.0896 9.09964 9.88561 9.50759 9.47767C9.91552 9.06973 10.1195 8.57722 10.1195 8.00013C10.1195 7.42305 9.91552 6.93053 9.50759 6.52259C9.09964 6.11465 8.60713 5.91068 8.03005 5.91068C7.44301 5.91068 6.94791 6.11465 6.54474 6.52259C6.14158 6.93053 5.9402 7.42305 5.94059 8.00013C5.94099 8.57722 6.14257 9.06973 6.54534 9.47767C6.94811 9.88561 7.44301 10.0896 8.03005 10.0896Z" fill="#23252C"/>
</svg>
