<svg width="20" height="20" viewBox="0 0 20 20" fill="none" xmlns="http://www.w3.org/2000/svg">
<path d="M10.0003 2.7998C10.9551 2.7998 11.8707 3.17909 12.5459 3.85422C13.221 4.52935 13.6003 5.44503 13.6003 6.3998C13.6003 7.35458 13.221 8.27026 12.5459 8.94539C11.8707 9.62052 10.9551 9.9998 10.0003 9.9998C9.04551 9.9998 8.12984 9.62052 7.45471 8.94539C6.77958 8.27026 6.40029 7.35458 6.40029 6.3998C6.40029 5.44503 6.77958 4.52935 7.45471 3.85422C8.12984 3.17909 9.04551 2.7998 10.0003 2.7998ZM10.0003 4.5998C9.5229 4.5998 9.06507 4.78945 8.7275 5.12701C8.38994 5.46458 8.20029 5.92242 8.20029 6.3998C8.20029 6.87719 8.38994 7.33503 8.7275 7.6726C9.06507 8.01016 9.5229 8.1998 10.0003 8.1998C10.4777 8.1998 10.9355 8.01016 11.2731 7.6726C11.6107 7.33503 11.8003 6.87719 11.8003 6.3998C11.8003 5.92242 11.6107 5.46458 11.2731 5.12701C10.9355 4.78945 10.4777 4.5998 10.0003 4.5998ZM10.0003 10.8998C12.4033 10.8998 17.2003 12.0968 17.2003 14.4998V17.1998H2.80029V14.4998C2.80029 12.0968 7.59729 10.8998 10.0003 10.8998ZM10.0003 12.6098C7.32729 12.6098 4.51029 13.9238 4.51029 14.4998V15.4898H15.4903V14.4998C15.4903 13.9238 12.6733 12.6098 10.0003 12.6098Z" fill="black"/>
</svg>
