<svg width="96" height="64" viewBox="0 0 96 64" fill="none" xmlns="http://www.w3.org/2000/svg">
<g clip-path="url(#clip0_180_6070)">
<g clip-path="url(#clip1_180_6070)">
<mask id="mask0_180_6070" style="mask-type:luminance" maskUnits="userSpaceOnUse" x="0" y="26" width="96" height="12">
<path d="M95.4396 26.3154H0.139389V37.6223H95.4396V26.3154Z" fill="white"/>
</mask>
<g mask="url(#mask0_180_6070)">
<path d="M30.1748 26.3584L25.289 29.1728V34.8016L30.1748 37.616L35.0604 34.8016V29.1728L30.1748 26.3584Z" fill="#131212"/>
<path d="M18.1546 26.3584L13.7435 28.479L12.655 33.2419L15.7079 37.0601L20.601 37.0603L23.654 33.2422L22.5655 28.4788L18.1546 26.3584Z" fill="#131212"/>
<path d="M5.66235 26.3584L1.25135 28.479L0.162827 33.2419L3.21566 37.0601L8.10878 37.0603L11.1618 33.2422L10.0733 28.4788L5.66235 26.3584Z" fill="#131212"/>
<path d="M39.5243 33.0356H40.9244C40.9874 33.6008 41.3571 33.8363 42.0257 33.8363C42.482 33.8363 42.9303 33.6715 42.9303 33.2476C42.9303 32.8001 42.4741 32.7059 41.7031 32.5174C40.7278 32.2898 39.6973 31.9915 39.6973 30.814C39.6973 29.6129 40.6727 29.0869 41.9313 29.0869C43.1505 29.0869 44.0945 29.6364 44.1496 30.814H42.7887C42.7336 30.3823 42.4033 30.1388 41.8841 30.1388C41.3965 30.1388 41.0739 30.3508 41.0739 30.6648C41.0739 31.0574 41.5065 31.1515 42.3483 31.34C43.3944 31.5833 44.3384 31.9051 44.3384 33.1063C44.3384 34.2838 43.3316 34.9354 42.0336 34.9354C40.539 34.9354 39.5557 34.2759 39.5243 33.0356Z" fill="#131212"/>
<path d="M47.4767 32.3607C47.4295 31.8819 47.1306 31.5757 46.7137 31.5757C46.226 31.5757 45.9743 31.8819 45.8877 32.3607H47.4767ZM44.6213 32.7846C44.6213 31.5836 45.463 30.665 46.6901 30.665C47.2644 30.665 47.7205 30.8535 48.0667 31.1675C48.5466 31.6071 48.7825 32.3058 48.7746 33.1221H45.8799C45.9585 33.6639 46.2575 34.0014 46.7845 34.0014C47.1227 34.0014 47.343 33.8523 47.4531 33.601H48.7039C48.6174 33.9621 48.3813 34.3076 48.0273 34.5509C47.6891 34.7865 47.2801 34.9198 46.7688 34.9198C45.4392 34.9198 44.6213 34.0014 44.6213 32.7846Z" fill="#131212"/>
<path d="M48.6203 30.7832H49.9419L50.4924 32.5966C50.6105 32.997 50.7128 33.4052 50.7128 33.4052H50.7285C50.7285 33.4052 50.8308 32.997 50.9488 32.5966L51.5073 30.7832H52.7895L51.3971 34.8025H50.0126L48.6203 30.7832Z" fill="#131212"/>
<path d="M55.48 32.3607C55.4328 31.8819 55.1339 31.5757 54.717 31.5757C54.2293 31.5757 53.9776 31.8819 53.891 32.3607H55.48ZM52.6246 32.7846C52.6246 31.5836 53.4662 30.665 54.6933 30.665C55.2676 30.665 55.7239 30.8535 56.0699 31.1675C56.5498 31.6071 56.7858 32.3058 56.7779 33.1221H53.8832C53.9618 33.6639 54.2607 34.0014 54.7878 34.0014C55.126 34.0014 55.3462 33.8523 55.4564 33.601H56.7071C56.6206 33.9621 56.3845 34.3076 56.0306 34.5509C55.6924 34.7865 55.2834 34.9198 54.772 34.9198C53.4426 34.9198 52.6246 34.0014 52.6246 32.7846Z" fill="#131212"/>
<path d="M57.148 30.7828H58.383V31.3324H58.4067C58.7056 30.9006 59.0909 30.665 59.6495 30.665C60.5306 30.665 61.0499 31.2931 61.0499 32.188V34.8021H59.7676V32.4471C59.7676 32.0232 59.5551 31.7327 59.1382 31.7327C58.7134 31.7327 58.4303 32.086 58.4303 32.5805V34.8021H57.148V30.7828Z" fill="#131212"/>
<path d="M61.9293 33.0356H63.3297C63.3928 33.6008 63.7623 33.8363 64.4305 33.8363C64.8865 33.8363 65.3356 33.6715 65.3356 33.2476C65.3356 32.8001 64.8789 32.7059 64.1084 32.5174C63.1331 32.2898 62.1028 31.9915 62.1028 30.814C62.1028 29.6129 63.0776 29.0869 64.3364 29.0869C65.556 29.0869 66.4996 29.6364 66.5545 30.814H65.1935C65.1385 30.3822 64.8082 30.1388 64.289 30.1388C63.8015 30.1388 63.4787 30.3508 63.4787 30.6648C63.4787 31.0574 63.9114 31.1515 64.7533 31.34C65.7998 31.5833 66.744 31.9051 66.744 33.1063C66.744 34.2838 65.7366 34.9354 64.4387 34.9354C62.9442 34.9354 61.9611 34.2759 61.9293 33.0356Z" fill="#131212"/>
<path d="M69.8829 32.3607C69.8356 31.8819 69.5368 31.5756 69.1194 31.5756C68.6318 31.5756 68.3798 31.8819 68.2939 32.3607H69.8829ZM67.0276 32.7846C67.0276 31.5836 67.8688 30.665 69.096 30.665C69.6707 30.665 70.1267 30.8535 70.4722 31.1675C70.9528 31.6071 71.1884 32.3058 71.1808 33.1221H68.2863C68.3646 33.6639 68.6634 34.0014 69.1901 34.0014C69.5293 34.0014 69.749 33.8523 69.8596 33.601H71.1101C71.0229 33.9621 70.7867 34.3076 70.4337 34.5509C70.0952 34.7865 69.6859 34.9198 69.1749 34.9198C67.8455 34.9198 67.0276 34.0014 67.0276 32.7846Z" fill="#131212"/>
<path d="M71.0266 30.7832H72.3485L72.8992 32.5966C73.0167 32.997 73.119 33.4052 73.119 33.4052H73.1348C73.1348 33.4052 73.2371 32.997 73.3552 32.5966L73.9135 30.7832H75.1956L73.8037 34.8025H72.4192L71.0266 30.7832Z" fill="#131212"/>
<path d="M77.8863 32.3607C77.8389 31.8819 77.5402 31.5756 77.1234 31.5756C76.6352 31.5756 76.3838 31.8819 76.2973 32.3607H77.8863ZM75.0309 32.7846C75.0309 31.5836 75.8722 30.665 77.1 30.665C77.6741 30.665 78.1301 30.8535 78.4762 31.1675C78.9562 31.6071 79.1924 32.3058 79.1842 33.1221H76.2897C76.368 33.6639 76.6674 34.0014 77.1941 34.0014C77.532 34.0014 77.7524 33.8523 77.8629 33.601H79.1128C79.0269 33.9621 78.7907 34.3076 78.437 34.5509C78.0985 34.7865 77.6893 34.9198 77.1783 34.9198C75.8488 34.9198 75.0309 34.0014 75.0309 32.7846Z" fill="#131212"/>
<path d="M79.5539 30.7828H80.7887V31.3324H80.8127C81.112 30.9006 81.4973 30.665 82.0556 30.665C82.936 30.665 83.4558 31.2931 83.4558 32.188V34.8021H82.1731V32.4471C82.1731 32.0232 81.9609 31.7327 81.544 31.7327C81.1196 31.7327 80.836 32.086 80.836 32.5805V34.8021H79.5539V30.7828Z" fill="#131212"/>
<path d="M84.3354 33.0356H85.7356C85.7987 33.6008 86.1682 33.8363 86.8377 33.8363C87.2937 33.8363 87.7421 33.6715 87.7421 33.2476C87.7421 32.8001 87.2855 32.7059 86.5149 32.5174C85.5392 32.2898 84.5091 31.9915 84.5091 30.814C84.5091 29.6129 85.4842 29.0869 86.7429 29.0869C87.9625 29.0869 88.9061 29.6364 88.9611 30.814H87.6C87.5451 30.3822 87.2147 30.1388 86.6962 30.1388C86.208 30.1388 85.8853 30.3508 85.8853 30.6648C85.8853 31.0574 86.3185 31.1515 87.1598 31.34C88.2057 31.5833 89.1499 31.9051 89.1499 33.1063C89.1499 34.2838 88.1425 34.9354 86.8453 34.9354C85.3503 34.9354 84.3676 34.2759 84.3354 33.0356Z" fill="#131212"/>
<path d="M89.5149 30.7831H90.7976V34.8024H89.5149V30.7831ZM89.5149 29.1895H90.7976V30.2258H89.5149V29.1895Z" fill="#131212"/>
<path d="M92.4958 32.6898L91.2289 30.7822H92.6922L93.2897 31.8184H93.3055L93.872 30.7822H95.2173L94.0217 32.6742L95.3903 34.8016H93.9036L93.2423 33.6005H93.2272L92.4958 34.8016H91.095L92.4958 32.6898Z" fill="#131212"/>
</g>
</g>
</g>
<defs>
<clipPath id="clip0_180_6070">
<rect width="96" height="64" fill="white"/>
</clipPath>
<clipPath id="clip1_180_6070">
<rect width="96" height="11.3684" fill="white" transform="translate(0 26.3154)"/>
</clipPath>
</defs>
</svg>
