<svg width="40" height="40" viewBox="0 0 40 40" fill="none" xmlns="http://www.w3.org/2000/svg">
  <g clip-path="url(#clip0_488_2876)">
    <path d="M31.92 0H8.08C3.615 0 0 3.615 0 8.08V31.925C0 36.385 3.615 40 8.08 40H31.925C36.385 40 40.005 36.385 40.005 31.92V8.08C40 3.615 36.385 0 31.92 0Z" fill="url(#paint0_linear_488_2876)" />
    <path d="M19.8301 9.19007L20.6401 7.79007C21.1401 6.91507 22.2551 6.62007 23.1301 7.12007C24.0051 7.62007 24.3001 8.73507 23.8001 9.61007L15.9951 23.1201H21.6401C23.4701 23.1201 24.4951 25.2701 23.7001 26.7601H7.15008C6.14008 26.7601 5.33008 25.9501 5.33008 24.9401C5.33008 23.9301 6.14008 23.1201 7.15008 23.1201H11.7901L17.7301 12.8251L15.8751 9.60507C15.3751 8.73007 15.6701 7.62507 16.5451 7.11507C17.4201 6.61507 18.5251 6.91007 19.0351 7.78507L19.8301 9.19007ZM12.8101 28.6351L11.0601 31.6701C10.5601 32.5451 9.44508 32.8401 8.57008 32.3401C7.69508 31.8401 7.40008 30.7251 7.90008 29.8501L9.20008 27.6001C10.6701 27.1451 11.8651 27.4951 12.8101 28.6351ZM27.8801 23.1301H32.6151C33.6251 23.1301 34.4351 23.9401 34.4351 24.9501C34.4351 25.9601 33.6251 26.7701 32.6151 26.7701H29.9851L31.7601 29.8501C32.2601 30.7251 31.9651 31.8301 31.0901 32.3401C30.2151 32.8401 29.1101 32.5451 28.6001 31.6701C25.6101 26.4851 23.3651 22.6051 21.8751 20.0201C20.3501 17.3901 21.4401 14.7501 22.5151 13.8551C23.7101 15.9051 25.4951 19.0001 27.8801 23.1301Z" fill="white" />
  </g>
  <defs>
    <linearGradient id="paint0_linear_488_2876" x1="20.0025" y1="0" x2="20.0025" y2="40" gradientUnits="userSpaceOnUse">
      <stop stop-color="#18BFFB" />
      <stop offset="1" stop-color="#2072F3" />
    </linearGradient>
    <clipPath id="clip0_488_2876">
      <rect width="40" height="40" fill="white" />
    </clipPath>
  </defs>
</svg>