<svg width="21" height="20" viewBox="0 0 21 20" fill="none" xmlns="http://www.w3.org/2000/svg">
<path d="M12.167 6.66675H3.83366C2.91449 6.66675 2.16699 7.41425 2.16699 8.33341V16.6667C2.16699 17.5859 2.91449 18.3334 3.83366 18.3334H12.167C13.0862 18.3334 13.8337 17.5859 13.8337 16.6667V8.33341C13.8337 7.41425 13.0862 6.66675 12.167 6.66675Z" fill="#D9D9D9"/>
<path d="M17.167 1.66675H8.83366C8.39163 1.66675 7.96771 1.84234 7.65515 2.1549C7.34259 2.46746 7.16699 2.89139 7.16699 3.33341V5.00008H13.8337C14.2757 5.00008 14.6996 5.17568 15.0122 5.48824C15.3247 5.8008 15.5003 6.22472 15.5003 6.66675V13.3334H17.167C17.609 13.3334 18.0329 13.1578 18.3455 12.8453C18.6581 12.5327 18.8337 12.1088 18.8337 11.6667V3.33341C18.8337 2.89139 18.6581 2.46746 18.3455 2.1549C18.0329 1.84234 17.609 1.66675 17.167 1.66675Z" fill="#D9D9D9"/>
</svg>
