<svg width="96" height="64" viewBox="0 0 96 64" fill="none" xmlns="http://www.w3.org/2000/svg">
<g clip-path="url(#clip0_180_6093)">
<g clip-path="url(#clip1_180_6093)">
<mask id="mask0_180_6093" style="mask-type:luminance" maskUnits="userSpaceOnUse" x="10" y="17" width="75" height="31">
<path d="M84.9489 17.665H10.6709V47.3763H84.9489V17.665Z" fill="white"/>
</mask>
<g mask="url(#mask0_180_6093)">
<path d="M30.7259 42.7329C32.8614 42.7329 34.6255 41.5258 35.3684 40.0403V42.4544H39.3607V21.3779H35.3684V30.1055C34.5327 28.62 33.14 27.5987 30.8187 27.5987C27.1978 27.5987 24.4123 30.3842 24.4123 35.1194V35.3051C24.4123 40.226 27.1978 42.7329 30.7259 42.7329ZM31.933 39.5761C29.9831 39.5761 28.5905 38.1834 28.5905 35.3051V35.1194C28.5905 32.2411 29.7974 30.7556 32.1187 30.7556C34.347 30.7556 35.5541 32.2411 35.5541 35.1194V35.3051C35.4612 38.1834 33.9756 39.5761 31.933 39.5761Z" fill="#131212"/>
<path d="M45.9528 42.733C48.1811 42.733 49.4811 41.8045 50.3167 40.6904V42.4545H54.2163V32.984C54.2163 29.0844 51.7093 27.5989 48.1811 27.5989C44.6529 27.5989 41.9604 29.0844 41.6818 32.5198H45.4886C45.6743 31.3127 46.4171 30.4771 47.9954 30.4771C49.8524 30.4771 50.3167 31.4057 50.3167 33.1697V33.7268H48.6453C44.1887 33.7268 41.1248 35.0266 41.1248 38.3692C41.0318 41.4332 43.2602 42.733 45.9528 42.733ZM47.067 39.9475C45.5815 39.9475 44.9314 39.2976 44.9314 38.1835C44.9314 36.6051 46.3242 36.1409 48.6453 36.1409H50.2238V37.3479C50.2238 39.0191 48.831 39.9475 47.067 39.9475Z" fill="#131212"/>
<path d="M56.7238 42.4541H60.7162V27.97H56.7238V42.4541ZM58.7664 26.0202C60.0663 26.0202 61.0876 25.0917 61.0876 23.7918C61.0876 22.5848 60.0663 21.5635 58.7664 21.5635C57.4665 21.5635 56.5381 22.4919 56.5381 23.7918C56.4453 24.9988 57.4665 26.0202 58.7664 26.0202Z" fill="#131212"/>
<path d="M63.5939 42.4544H67.5864V21.3779H63.5939V42.4544Z" fill="#131212"/>
<path d="M76.2215 47.3749L84.0207 27.9697H80.2141L76.9644 36.6975L73.4362 27.9697H69.0723L74.9217 41.0612L72.3219 47.3749H76.2215Z" fill="#131212"/>
<path d="M10.6709 47.3762H14.5705L26.5479 17.665H22.7411L10.6709 47.3762Z" fill="#131212"/>
</g>
</g>
</g>
<defs>
<clipPath id="clip0_180_6093">
<rect width="96" height="64" fill="white"/>
</clipPath>
<clipPath id="clip1_180_6093">
<rect width="96" height="31.2" fill="white" transform="translate(0 16.4004)"/>
</clipPath>
</defs>
</svg>
