<svg width="96" height="64" viewBox="0 0 96 64" fill="none" xmlns="http://www.w3.org/2000/svg">
<g clip-path="url(#clip0_180_6038)">
<mask id="mask0_180_6038" style="mask-type:luminance" maskUnits="userSpaceOnUse" x="0" y="15" width="95" height="33">
<path d="M94.6688 15.2H0.553101V47.9358H94.6688V15.2Z" fill="white"/>
</mask>
<g mask="url(#mask0_180_6038)">
<path d="M77.1173 47.2994C76.98 47.2994 76.8688 47.188 76.8688 47.0507V17.1241C76.8688 17.0063 76.9515 16.9047 77.0669 16.8808L82.2936 15.8002C82.4478 15.7683 82.5925 15.886 82.5925 16.0434V47.0507C82.5925 47.188 82.4811 47.2994 82.344 47.2994H77.1173Z" fill="#131212"/>
<path d="M11.4638 47.9321C9.37705 47.9321 7.5139 47.4254 5.8743 46.4118C4.23471 45.3982 2.93796 44.0119 1.98401 42.2532C1.03007 40.4944 0.553101 38.4971 0.553101 36.2612C0.553101 34.0255 1.03007 32.0431 1.98401 30.3141C2.93796 28.5552 4.23471 27.184 5.8743 26.2002C7.5139 25.1866 9.37705 24.6799 11.4638 24.6799C13.1332 24.6799 14.5939 24.9929 15.846 25.6189C16.8517 26.1217 17.7035 26.788 18.4013 27.6177C18.5585 27.8047 18.8867 27.6984 18.8867 27.4541V16.5857C18.8867 16.4679 18.9694 16.3663 19.0848 16.3425L24.3117 15.2618C24.4657 15.23 24.6104 15.3477 24.6104 15.5051V47.1471C24.6104 47.2844 24.499 47.3956 24.3619 47.3956H19.7168C19.5982 47.3956 19.4961 47.3116 19.4731 47.1951L18.9966 44.7788C18.9547 44.566 18.6758 44.5028 18.5369 44.6694C17.8701 45.4694 17.0325 46.1844 16.0248 46.8142C14.8622 47.5595 13.3419 47.9321 11.4638 47.9321ZM12.6711 42.9239C14.5193 42.9239 16.0248 42.3129 17.1875 41.0907C18.3798 39.8387 18.976 38.2436 18.976 36.306C18.976 34.3683 18.3798 32.7884 17.1875 31.5662C16.0248 30.3141 14.5193 29.688 12.6711 29.688C10.8527 29.688 9.34724 30.2991 8.15482 31.5214C6.96238 32.7436 6.36618 34.3236 6.36618 36.2612C6.36618 38.199 6.96238 39.7939 8.15482 41.0459C9.34724 42.2979 10.8527 42.9239 12.6711 42.9239Z" fill="#131212"/>
<path d="M38.5638 47.9358C36.328 47.9358 34.3456 47.4589 32.6166 46.505C30.8875 45.551 29.5312 44.2096 28.5475 42.4805C27.5637 40.7515 27.0718 38.7542 27.0718 36.4886C27.0718 34.1931 27.5488 32.1512 28.5027 30.3625C29.4864 28.5739 30.8278 27.1877 32.5272 26.2039C34.2562 25.1904 36.2834 24.6836 38.6085 24.6836C40.7846 24.6836 42.7075 25.1606 44.377 26.1145C46.0462 27.0684 47.343 28.3801 48.2672 30.0495C49.2211 31.689 49.6981 33.5226 49.6981 35.5496C49.6981 35.8774 49.6832 36.2203 49.6534 36.5779C49.6534 36.8646 49.6438 37.1606 49.6248 37.4666C49.6165 37.596 49.5083 37.696 49.3787 37.696H33.0168C32.873 37.696 32.7587 37.8181 32.7731 37.9614C32.933 39.5643 33.5216 40.8323 34.5394 41.7651C35.6424 42.7488 36.969 43.2406 38.519 43.2406C39.6818 43.2406 40.6506 42.9872 41.4256 42.4805C42.1842 41.9749 42.7574 41.3368 43.1453 40.5664C43.1886 40.48 43.2762 40.4237 43.3728 40.4237H48.6941C48.8603 40.4237 48.9797 40.5837 48.9272 40.7414C48.5018 42.019 47.8346 43.195 46.9256 44.2691C45.9718 45.4019 44.7792 46.2963 43.3485 46.9522C41.9474 47.608 40.3525 47.9358 38.5638 47.9358ZM38.6085 29.3341C37.2075 29.3341 35.9702 29.7365 34.8971 30.5414C33.8899 31.2688 33.2242 32.3635 32.8997 33.8259C32.8659 33.9776 32.9834 34.1187 33.1387 34.1187H43.621C43.764 34.1187 43.8781 33.9979 43.8637 33.8555C43.7286 32.5176 43.199 31.4427 42.2752 30.6308C41.2915 29.7663 40.0693 29.3341 38.6085 29.3341Z" fill="#131212"/>
<path d="M63.4669 47.9358C61.231 47.9358 59.2488 47.4589 57.5198 46.505C55.7907 45.551 54.4342 44.2096 53.4506 42.4805C52.4669 40.7515 51.975 38.7542 51.975 36.4886C51.975 34.1931 52.4518 32.1512 53.4058 30.3625C54.3896 28.5739 55.731 27.1877 57.4302 26.2039C59.1594 25.1904 61.1864 24.6836 63.5117 24.6836C65.6878 24.6836 67.6106 25.1606 69.28 26.1145C70.9494 27.0684 72.2462 28.3801 73.1702 30.0495C74.1243 31.689 74.6013 33.5226 74.6013 35.5496C74.6013 35.8774 74.5864 36.2203 74.5565 36.5779C74.5565 36.8646 74.5469 37.1606 74.5278 37.4666C74.5197 37.596 74.4115 37.696 74.2818 37.696H57.92C57.776 37.696 57.6619 37.8181 57.6762 37.9614C57.8362 39.5643 58.4248 40.8323 59.4424 41.7651C60.5456 42.7488 61.872 43.2406 63.4222 43.2406C64.5848 43.2406 65.5538 42.9872 66.3288 42.4805C67.0872 41.9749 67.6605 41.3368 68.0483 40.5664C68.0918 40.48 68.1792 40.4237 68.276 40.4237H73.5973C73.7635 40.4237 73.8829 40.5837 73.8302 40.7414C73.405 42.019 72.7378 43.195 71.8288 44.2691C70.8749 45.4019 69.6824 46.2963 68.2515 46.9522C66.8504 47.608 65.2555 47.9358 63.4669 47.9358ZM63.5117 29.3341C62.1106 29.3341 60.8734 29.7365 59.8003 30.5414C58.7933 31.2688 58.1274 32.3635 57.8029 33.8259C57.7691 33.9776 57.8866 34.1187 58.0419 34.1187H68.5242C68.6672 34.1187 68.7813 33.9979 68.7669 33.8555C68.6317 32.5176 68.1022 31.4427 67.1784 30.6308C66.1947 29.7663 64.9723 29.3341 63.5117 29.3341Z" fill="#131212"/>
<path d="M90.094 47.3053C92.2222 47.3053 93.9475 45.58 93.9475 43.4518C93.9475 41.3235 92.2222 39.5984 90.094 39.5984C87.9659 39.5984 86.2406 41.3235 86.2406 43.4518C86.2406 45.58 87.9659 47.3053 90.094 47.3053Z" fill="#131212"/>
</g>
</g>
<defs>
<clipPath id="clip0_180_6038">
<rect width="96" height="64" fill="white"/>
</clipPath>
</defs>
</svg>
