<svg width="96" height="64" viewBox="0 0 96 64" fill="none" xmlns="http://www.w3.org/2000/svg">
<g clip-path="url(#clip0_180_6143)">
<g clip-path="url(#clip1_180_6143)">
<path d="M49.9785 17.5537H54.7215V45.1717H49.9785V17.5537ZM56.8605 45.3321H61.6035V17.7105H56.8605V45.3321ZM84.2924 24.5788V45.3297H79.96V44.2418C79.9601 44.1937 79.9476 44.1465 79.9237 44.1052C79.8998 44.0639 79.8656 44.0302 79.8246 44.0074C79.7836 43.9847 79.7375 43.9739 79.691 43.9762C79.6446 43.9784 79.5996 43.9937 79.561 44.0204C77.9665 45.108 76.1153 45.7244 74.2071 45.8034C72.2988 45.8824 70.406 45.4209 68.7326 44.4686C67.0594 43.5163 65.6692 42.1094 64.7121 40.3996C63.755 38.6899 63.2673 36.7423 63.3017 34.7669C63.3942 29.0858 67.7787 24.3909 73.2655 24.1084C75.6596 23.9806 78.0234 24.7087 79.96 26.1705V24.5764L84.2924 24.5788ZM79.96 34.956C79.9603 33.6945 79.5989 32.4613 78.9216 31.4124C78.2443 30.3634 77.2815 29.5457 76.155 29.0629C75.0285 28.5801 73.7889 28.4536 72.5929 28.6997C71.3969 28.9457 70.2984 29.5532 69.4361 30.4452C68.5739 31.3372 67.9868 32.4737 67.749 33.7109C67.5112 34.9481 67.6333 36.2306 68.1001 37.3959C68.5668 38.5614 69.3571 39.5574 70.3711 40.2581C71.385 40.9588 72.5771 41.3327 73.7965 41.3325C75.431 41.3306 76.998 40.6578 78.1536 39.4619C79.3092 38.266 79.9588 36.6446 79.96 34.9536V34.956ZM48.5521 34.7968C48.5513 35.274 48.52 35.7505 48.4584 36.2234H32.0499C32.3178 37.4299 32.9194 38.5297 33.7814 39.3883C34.6434 40.247 35.7284 40.8274 36.9039 41.0586C38.0795 41.2899 39.2948 41.162 40.4012 40.6905C41.5077 40.2191 42.4575 39.4246 43.1347 38.4039L47.0748 40.3403C45.7756 42.5969 43.7294 44.2894 41.3157 45.1039C38.902 45.9184 36.2846 45.7996 33.9492 44.7694C31.6137 43.7393 29.7188 41.8677 28.6158 39.502C27.5127 37.1363 27.2766 34.437 27.9511 31.9049C28.6256 29.3727 30.1649 27.1796 32.2836 25.7324C34.4023 24.2851 36.9565 23.682 39.4723 24.0349C41.9882 24.3878 44.2949 25.6727 45.9646 27.6513C47.6343 29.6299 48.5537 32.1679 48.5521 34.7944V34.7968ZM32.2709 32.596H43.8392C43.4035 31.3717 42.6154 30.3151 41.5811 29.5688C40.5467 28.8224 39.316 28.4223 38.055 28.4223C36.7939 28.4223 35.5632 28.8224 34.5289 29.5688C33.4946 30.3151 32.7065 31.3717 32.2709 32.596ZM29.8797 21.8717V17.5537H17.7098C16.1178 17.5537 14.591 18.208 13.4652 19.3726C12.3395 20.5372 11.707 22.1168 11.707 23.7638V45.1717H16.4604V34.9285C16.4608 34.5426 16.6088 34.1726 16.8723 33.8994C17.1357 33.6262 17.493 33.4721 17.866 33.4708H25.9719V29.1517H16.4604V23.3305C16.4604 22.9436 16.609 22.5726 16.8735 22.299C17.1379 22.0254 17.4966 21.8717 17.8706 21.8717H29.8797Z" fill="#1E1F1E"/>
</g>
</g>
<defs>
<clipPath id="clip0_180_6143">
<rect width="96" height="64" fill="white"/>
</clipPath>
<clipPath id="clip1_180_6143">
<rect width="96" height="28.8932" fill="white" transform="translate(0 17.5537)"/>
</clipPath>
</defs>
</svg>
