<svg width="1408" height="1097" viewBox="0 0 1408 1097" fill="none" xmlns="http://www.w3.org/2000/svg">
<circle cx="378.359" cy="604.313" r="0.420529" transform="rotate(9.93857 378.359 604.313)" fill="#D9D9D9"/>
<circle cx="420.277" cy="582.168" r="0.420529" transform="rotate(9.93857 420.277 582.168)" fill="#D9D9D9" fill-opacity="0.7"/>
<circle cx="448.356" cy="571.917" r="0.209973" transform="rotate(9.93857 448.356 571.917)" fill="#D9D9D9" fill-opacity="0.5"/>
<circle cx="387.665" cy="554.872" r="0.209973" transform="rotate(9.93857 387.665 554.872)" fill="#D9D9D9"/>
<circle cx="517.182" cy="593.805" r="0.209973" transform="rotate(9.93857 517.182 593.805)" fill="#D9D9D9"/>
<circle cx="608.893" cy="460.659" r="0.420529" transform="rotate(159.939 608.893 460.659)" fill="#D9D9D9"/>
<circle cx="583.667" cy="500.796" r="0.420529" transform="rotate(159.939 583.667 500.796)" fill="#D9D9D9" fill-opacity="0.7"/>
<circle cx="564.47" cy="523.716" r="0.209973" transform="rotate(159.939 564.47 523.716)" fill="#D9D9D9" fill-opacity="0.5"/>
<circle cx="625.552" cy="508.132" r="0.209973" transform="rotate(159.939 625.552 508.132)" fill="#D9D9D9"/>
<circle cx="493.93" cy="539.17" r="0.209973" transform="rotate(159.939 493.93 539.17)" fill="#D9D9D9"/>
<circle cx="583.893" cy="254.575" r="0.420529" transform="rotate(144.939 583.893 254.575)" fill="#D9D9D9"/>
<circle cx="569.912" cy="299.874" r="0.420529" transform="rotate(144.939 569.912 299.874)" fill="#D9D9D9" fill-opacity="0.7"/>
<circle cx="557.302" cy="326.98" r="0.209972" transform="rotate(144.939 557.302 326.98)" fill="#D9D9D9" fill-opacity="0.5"/>
<circle cx="612.273" cy="296.114" r="0.209972" transform="rotate(144.939 612.273 296.114)" fill="#D9D9D9"/>
<circle cx="493.163" cy="360.165" r="0.209972" transform="rotate(144.939 493.163 360.165)" fill="#D9D9D9"/>
<circle cx="522.462" cy="519.158" r="0.420529" transform="rotate(-65.0614 522.462 519.158)" fill="#D9D9D9"/>
<circle cx="511.917" cy="472.938" r="0.420529" transform="rotate(-65.0614 511.917 472.938)" fill="#D9D9D9" fill-opacity="0.7"/>
<circle cx="509.281" cy="443.16" r="0.209972" transform="rotate(-65.0614 509.281 443.16)" fill="#D9D9D9" fill-opacity="0.5"/>
<circle cx="477.107" cy="497.376" r="0.209972" transform="rotate(-65.0614 477.107 497.376)" fill="#D9D9D9"/>
<circle cx="548.243" cy="382.35" r="0.209972" transform="rotate(-65.0614 548.243 382.35)" fill="#D9D9D9"/>
<circle cx="691.054" cy="440.356" r="0.420529" transform="rotate(54.9386 691.054 440.356)" fill="#D9D9D9"/>
<circle cx="736.352" cy="454.336" r="0.420529" transform="rotate(54.9386 736.352 454.336)" fill="#D9D9D9" fill-opacity="0.7"/>
<circle cx="763.456" cy="466.945" r="0.209972" transform="rotate(54.9386 763.456 466.945)" fill="#D9D9D9" fill-opacity="0.5"/>
<circle cx="732.594" cy="411.974" r="0.209972" transform="rotate(54.9386 732.594 411.974)" fill="#D9D9D9"/>
<circle cx="796.643" cy="531.086" r="0.209972" transform="rotate(54.9386 796.643 531.086)" fill="#D9D9D9"/>
<circle cx="955.636" cy="501.786" r="0.420529" transform="rotate(-155.061 955.636 501.786)" fill="#D9D9D9"/>
<circle cx="909.414" cy="512.325" r="0.420529" transform="rotate(-155.061 909.414 512.325)" fill="#D9D9D9" fill-opacity="0.7"/>
<circle cx="879.641" cy="514.963" r="0.209972" transform="rotate(-155.061 879.641 514.963)" fill="#D9D9D9" fill-opacity="0.5"/>
<circle cx="933.857" cy="547.134" r="0.209972" transform="rotate(-155.061 933.857 547.134)" fill="#D9D9D9"/>
<circle cx="818.829" cy="476.007" r="0.209972" transform="rotate(-155.061 818.829 476.007)" fill="#D9D9D9"/>
<circle cx="942.329" cy="293.978" r="0.420529" transform="rotate(99.9386 942.329 293.978)" fill="#D9D9D9"/>
<circle cx="964.477" cy="335.894" r="0.420529" transform="rotate(99.9386 964.477 335.894)" fill="#D9D9D9" fill-opacity="0.7"/>
<circle cx="974.733" cy="363.976" r="0.209973" transform="rotate(99.9386 974.733 363.976)" fill="#D9D9D9" fill-opacity="0.5"/>
<circle cx="991.773" cy="303.281" r="0.209973" transform="rotate(99.9386 991.773 303.281)" fill="#D9D9D9"/>
<circle cx="952.836" cy="432.795" r="0.209973" transform="rotate(99.9386 952.836 432.795)" fill="#D9D9D9"/>
<circle cx="1085.99" cy="524.504" r="0.420529" transform="rotate(-110.061 1085.99 524.504)" fill="#D9D9D9"/>
<circle cx="1045.85" cy="499.275" r="0.420529" transform="rotate(-110.061 1045.85 499.275)" fill="#D9D9D9" fill-opacity="0.7"/>
<circle cx="1022.93" cy="480.084" r="0.209973" transform="rotate(-110.061 1022.93 480.084)" fill="#D9D9D9" fill-opacity="0.5"/>
<circle cx="1038.52" cy="541.169" r="0.209973" transform="rotate(-110.061 1038.52 541.169)" fill="#D9D9D9"/>
<circle cx="1007.48" cy="409.538" r="0.209973" transform="rotate(-110.061 1007.48 409.538)" fill="#D9D9D9"/>
<circle cx="338.992" cy="942.033" r="0.420529" transform="rotate(-80.0614 338.992 942.033)" fill="#D9D9D9"/>
<circle cx="316.844" cy="900.116" r="0.420529" transform="rotate(-80.0614 316.844 900.116)" fill="#D9D9D9" fill-opacity="0.7"/>
<circle cx="306.591" cy="872.035" r="0.209973" transform="rotate(-80.0614 306.591 872.035)" fill="#D9D9D9" fill-opacity="0.5"/>
<circle cx="289.552" cy="932.729" r="0.209973" transform="rotate(-80.0614 289.552 932.729)" fill="#D9D9D9"/>
<circle cx="328.485" cy="803.215" r="0.209973" transform="rotate(-80.0614 328.485 803.215)" fill="#D9D9D9"/>
<circle cx="195.333" cy="711.506" r="0.420529" transform="rotate(69.9386 195.333 711.506)" fill="#D9D9D9"/>
<circle cx="235.472" cy="736.736" r="0.420529" transform="rotate(69.9386 235.472 736.736)" fill="#D9D9D9" fill-opacity="0.7"/>
<circle cx="258.389" cy="755.926" r="0.209972" transform="rotate(69.9386 258.389 755.926)" fill="#D9D9D9" fill-opacity="0.5"/>
<circle cx="242.805" cy="694.842" r="0.209972" transform="rotate(69.9386 242.805 694.842)" fill="#D9D9D9"/>
<circle cx="273.847" cy="826.473" r="0.209972" transform="rotate(69.9386 273.847 826.473)" fill="#D9D9D9"/>
<circle cx="34.5477" cy="750.486" r="0.420529" transform="rotate(54.9386 34.5477 750.486)" fill="#D9D9D9" fill-opacity="0.7"/>
<circle cx="61.6529" cy="763.094" r="0.209972" transform="rotate(54.9386 61.6529 763.094)" fill="#D9D9D9" fill-opacity="0.5"/>
<circle cx="30.7896" cy="708.123" r="0.209972" transform="rotate(54.9386 30.7896 708.123)" fill="#D9D9D9"/>
<circle cx="94.8403" cy="827.235" r="0.209972" transform="rotate(54.9386 94.8403 827.235)" fill="#D9D9D9"/>
<circle cx="253.837" cy="797.935" r="0.420529" transform="rotate(-155.061 253.837 797.935)" fill="#D9D9D9"/>
<circle cx="207.615" cy="808.475" r="0.420529" transform="rotate(-155.061 207.615 808.475)" fill="#D9D9D9" fill-opacity="0.7"/>
<circle cx="177.84" cy="811.111" r="0.209972" transform="rotate(-155.061 177.84 811.111)" fill="#D9D9D9" fill-opacity="0.5"/>
<circle cx="232.057" cy="843.284" r="0.209972" transform="rotate(-155.061 232.057 843.284)" fill="#D9D9D9"/>
<circle cx="117.029" cy="772.157" r="0.209972" transform="rotate(-155.061 117.029 772.157)" fill="#D9D9D9"/>
<circle cx="175.041" cy="629.345" r="0.420529" transform="rotate(-35.0614 175.041 629.345)" fill="#D9D9D9"/>
<circle cx="189.019" cy="584.044" r="0.420529" transform="rotate(-35.0614 189.019 584.044)" fill="#D9D9D9" fill-opacity="0.7"/>
<circle cx="201.628" cy="556.939" r="0.209972" transform="rotate(-35.0614 201.628 556.939)" fill="#D9D9D9" fill-opacity="0.5"/>
<circle cx="146.658" cy="587.804" r="0.209972" transform="rotate(-35.0614 146.658 587.804)" fill="#D9D9D9"/>
<circle cx="265.766" cy="523.753" r="0.209972" transform="rotate(-35.0614 265.766 523.753)" fill="#D9D9D9"/>
<circle cx="236.468" cy="364.758" r="0.420529" transform="rotate(114.939 236.468 364.758)" fill="#D9D9D9"/>
<circle cx="247.013" cy="410.978" r="0.420529" transform="rotate(114.939 247.013 410.978)" fill="#D9D9D9" fill-opacity="0.7"/>
<circle cx="249.65" cy="440.755" r="0.209972" transform="rotate(114.939 249.65 440.755)" fill="#D9D9D9" fill-opacity="0.5"/>
<circle cx="281.822" cy="386.539" r="0.209972" transform="rotate(114.939 281.822 386.539)" fill="#D9D9D9"/>
<circle cx="210.689" cy="501.566" r="0.209972" transform="rotate(114.939 210.689 501.566)" fill="#D9D9D9"/>
<circle cx="28.6551" cy="378.067" r="0.420529" transform="rotate(9.93857 28.6551 378.067)" fill="#D9D9D9"/>
<circle cx="70.5741" cy="355.923" r="0.420529" transform="rotate(9.93857 70.5741 355.923)" fill="#D9D9D9" fill-opacity="0.7"/>
<circle cx="98.6501" cy="345.671" r="0.209973" transform="rotate(9.93857 98.6501 345.671)" fill="#D9D9D9" fill-opacity="0.5"/>
<circle cx="37.9577" cy="328.625" r="0.209973" transform="rotate(9.93857 37.9577 328.625)" fill="#D9D9D9"/>
<circle cx="167.474" cy="367.557" r="0.209973" transform="rotate(9.93857 167.474 367.557)" fill="#D9D9D9"/>
<circle cx="259.187" cy="234.413" r="0.420529" transform="rotate(159.939 259.187 234.413)" fill="#D9D9D9"/>
<circle cx="233.959" cy="274.553" r="0.420529" transform="rotate(159.939 233.959 274.553)" fill="#D9D9D9" fill-opacity="0.7"/>
<circle cx="214.764" cy="297.472" r="0.209973" transform="rotate(159.939 214.764 297.472)" fill="#D9D9D9" fill-opacity="0.5"/>
<circle cx="275.845" cy="281.887" r="0.209973" transform="rotate(159.939 275.845 281.887)" fill="#D9D9D9"/>
<circle cx="144.224" cy="312.926" r="0.209973" transform="rotate(159.939 144.224 312.926)" fill="#D9D9D9"/>
<g filter="url(#filter0_f_180_5700)">
<ellipse cx="1036.04" cy="2925.51" rx="2418.28" ry="2326.51" transform="rotate(9.93857 1036.04 2925.51)" fill="#358DE7"/>
</g>
<g filter="url(#filter1_f_180_5700)">
<ellipse cx="1339.1" cy="3093.58" rx="2418.28" ry="2326.51" transform="rotate(9.93857 1339.1 3093.58)" fill="#4203C8"/>
</g>
<g filter="url(#filter2_f_180_5700)">
<ellipse cx="1209.18" cy="3044.74" rx="2418.28" ry="2326.51" transform="rotate(9.93857 1209.18 3044.74)" fill="#4706D1"/>
</g>
<g style="mix-blend-mode:plus-lighter" filter="url(#filter3_f_180_5700)">
<ellipse cx="1309.96" cy="3118.39" rx="2418.28" ry="2326.51" transform="rotate(9.93857 1309.96 3118.39)" fill="#262626"/>
</g>
<g style="mix-blend-mode:overlay" filter="url(#filter4_f_180_5700)">
<path d="M979.933 652.97C1128.11 312.236 298.221 448.256 2.99705 636.718L444.243 878.364C573.415 916.811 861.394 925.558 979.933 652.97Z" fill="#EC44EF"/>
<path d="M754.861 1252.05L1039.13 350.497C1232.54 166.207 1325.16 792.531 1462.33 1363.41C1572.07 1820.11 1036.41 1479.46 754.861 1252.05Z" fill="#44B1EF"/>
<rect x="-519.548" y="533.405" width="968.238" height="454.651" transform="rotate(9.93857 -519.548 533.405)" fill="#EF4444"/>
</g>
<g opacity="0.12" filter="url(#filter5_f_180_5700)">
<path d="M822.125 199.124L1106.39 -702.429C1299.81 -886.719 1392.43 -260.396 1529.6 310.48C1639.33 767.181 1103.67 426.534 822.125 199.124Z" fill="#44B1EF"/>
<rect x="-452.285" y="-519.522" width="968.238" height="454.651" transform="rotate(9.93857 -452.285 -519.522)" fill="#EF4444"/>
</g>
<defs>
<filter id="filter0_f_180_5700" x="-1800.91" y="174.839" width="5673.9" height="5501.34" filterUnits="userSpaceOnUse" color-interpolation-filters="sRGB">
<feFlood flood-opacity="0" result="BackgroundImageFix"/>
<feBlend mode="normal" in="SourceGraphic" in2="BackgroundImageFix" result="shape"/>
<feGaussianBlur stdDeviation="210.486" result="effect1_foregroundBlur_180_5700"/>
</filter>
<filter id="filter1_f_180_5700" x="-1497.85" y="342.909" width="5673.9" height="5501.34" filterUnits="userSpaceOnUse" color-interpolation-filters="sRGB">
<feFlood flood-opacity="0" result="BackgroundImageFix"/>
<feBlend mode="normal" in="SourceGraphic" in2="BackgroundImageFix" result="shape"/>
<feGaussianBlur stdDeviation="210.486" result="effect1_foregroundBlur_180_5700"/>
</filter>
<filter id="filter2_f_180_5700" x="-1627.77" y="294.073" width="5673.9" height="5501.34" filterUnits="userSpaceOnUse" color-interpolation-filters="sRGB">
<feFlood flood-opacity="0" result="BackgroundImageFix"/>
<feBlend mode="normal" in="SourceGraphic" in2="BackgroundImageFix" result="shape"/>
<feGaussianBlur stdDeviation="210.486" result="effect1_foregroundBlur_180_5700"/>
</filter>
<filter id="filter3_f_180_5700" x="-1526.99" y="367.72" width="5673.9" height="5501.34" filterUnits="userSpaceOnUse" color-interpolation-filters="sRGB">
<feFlood flood-opacity="0" result="BackgroundImageFix"/>
<feBlend mode="normal" in="SourceGraphic" in2="BackgroundImageFix" result="shape"/>
<feGaussianBlur stdDeviation="210.486" result="effect1_foregroundBlur_180_5700"/>
</filter>
<filter id="filter4_f_180_5700" x="-1018.99" y="-103.303" width="2916.9" height="2113.4" filterUnits="userSpaceOnUse" color-interpolation-filters="sRGB">
<feFlood flood-opacity="0" result="BackgroundImageFix"/>
<feBlend mode="normal" in="SourceGraphic" in2="BackgroundImageFix" result="shape"/>
<feGaussianBlur stdDeviation="210.486" result="effect1_foregroundBlur_180_5700"/>
</filter>
<filter id="filter5_f_180_5700" x="-951.727" y="-1156.23" width="2916.9" height="2113.4" filterUnits="userSpaceOnUse" color-interpolation-filters="sRGB">
<feFlood flood-opacity="0" result="BackgroundImageFix"/>
<feBlend mode="normal" in="SourceGraphic" in2="BackgroundImageFix" result="shape"/>
<feGaussianBlur stdDeviation="210.486" result="effect1_foregroundBlur_180_5700"/>
</filter>
</defs>
</svg>
