<svg width="96" height="64" viewBox="0 0 96 64" fill="none" xmlns="http://www.w3.org/2000/svg">
<g clip-path="url(#clip0_180_6130)">
<mask id="mask0_180_6130" style="mask-type:luminance" maskUnits="userSpaceOnUse" x="0" y="18" width="96" height="29">
<path d="M95.3588 18.1072H0.499023V46.0071H95.3588V18.1072Z" fill="white"/>
</mask>
<g mask="url(#mask0_180_6130)">
<path d="M17.2143 22.5154H1.32617V38.0213L4.74187 41.3548H20.6301V25.8489L17.2143 22.5154ZM17.7319 34.5868C17.7319 35.6474 17.3179 36.6575 16.5416 37.3646C15.7653 38.1222 14.7819 38.5264 13.6952 38.5264H9.4514V34.5868H13.6952V29.94H17.7319V34.5868Z" fill="#131212"/>
<path d="M36.5689 38.2738C36.5689 38.3748 36.5172 38.4254 36.4654 38.4759C36.4137 38.5263 36.3103 38.5769 36.2583 38.5769H31.8594C31.7559 38.5769 31.7042 38.5263 31.6523 38.4759C31.6006 38.4254 31.5489 38.3242 31.5489 38.2738V36.5565H28.5988V38.8294L31.2383 41.4558H36.776L39.4671 38.8294V25.95H36.5172V38.2738H36.5689Z" fill="#131212"/>
<path d="M43.5049 28.7781H46.5066V38.5261H43.5049V41.4049H52.4065V38.5261H49.4564V28.7781H52.4582V25.8992H43.5049V28.7781Z" fill="#131212"/>
<path d="M55.5645 28.7781H58.8249V41.4049H61.7748V28.7781H65.0352V25.8992H55.6162V28.7781H55.5645Z" fill="#131212"/>
<path d="M70.4167 25.95L67.7255 28.5763V31.2533L75.6438 35.799V38.3242C75.6438 38.4254 75.592 38.4759 75.5403 38.5263C75.4885 38.5769 75.385 38.6274 75.3333 38.6274H70.9342C70.8307 38.6274 70.779 38.5769 70.7273 38.5263C70.6755 38.4759 70.6238 38.3748 70.6238 38.3242V36.607H67.6738V38.8798L70.365 41.5063H75.9026L78.5937 38.8798V34.7887L70.6238 30.2431V29.1319C70.6238 29.0309 70.6755 28.9804 70.7273 28.9299C70.779 28.8794 70.8824 28.8289 70.9342 28.8289H75.3333C75.4367 28.8289 75.4885 28.8794 75.5403 28.9299C75.592 28.9804 75.6438 29.0814 75.6438 29.1319V30.8491H78.5937V28.5763L75.9026 25.95H70.4167Z" fill="#131212"/>
<path d="M92.3066 25.95V38.2738C92.3066 38.3748 92.2549 38.4254 92.2032 38.4759C92.1514 38.5263 92.048 38.5769 91.9961 38.5769H85.7857C85.734 38.5769 85.6823 38.5769 85.6823 38.5769C85.6305 38.5769 85.6305 38.5263 85.5788 38.5263C85.5271 38.4759 85.5271 38.4759 85.5271 38.4254C85.5271 38.3748 85.5271 38.3242 85.5271 38.3242V25.95H82.5771V38.8294L85.2682 41.4558H92.6172L95.3084 38.8294V25.95H92.3066Z" fill="#131212"/>
</g>
</g>
<defs>
<clipPath id="clip0_180_6130">
<rect width="96" height="64" fill="white"/>
</clipPath>
</defs>
</svg>
