<svg width="81" height="30" viewBox="0 0 81 30" fill="none" xmlns="http://www.w3.org/2000/svg">
<path d="M35.8984 11.0478C35.8984 9.44772 36.4115 8.15198 37.4376 7.1606C38.4638 6.16923 39.89 5.67354 41.7162 5.67354C43.5598 5.67354 44.9947 6.16923 46.0208 7.1606C47.0296 8.15198 47.534 9.44772 47.534 11.0478V19.2136C47.534 20.8137 47.0122 22.1095 45.9687 23.1009C44.9425 24.0748 43.525 24.5618 41.7162 24.5618C39.9074 24.5618 38.4812 24.0748 37.4376 23.1009C36.4115 22.1269 35.8984 20.8311 35.8984 19.2136V11.0478ZM41.7162 7.89109C39.4551 7.89109 38.3246 9.00421 38.3246 11.2305V19.031C38.3246 21.2399 39.4551 22.3443 41.7162 22.3443C43.9946 22.3443 45.1338 21.2399 45.1338 19.031V11.2305C45.1338 9.00421 43.9946 7.89109 41.7162 7.89109Z" fill="black"/>
<path d="M56.2849 21.9008L56.9111 23.6748C56.4067 24.2314 55.5979 24.5097 54.4848 24.5097C52.5021 24.5097 51.5107 23.3183 51.5107 20.9355V12.0653H49.5019V9.89993H51.5107V5.98661H53.8326V9.89993H56.7024V12.0653H53.8326V20.5442C53.8326 21.0833 53.9543 21.5181 54.1978 21.8486C54.4413 22.1791 54.7718 22.3443 55.1892 22.3443C55.711 22.3443 56.0762 22.1965 56.2849 21.9008Z" fill="black"/>
<path d="M63.5961 9.58686C65.231 9.58686 66.5703 10.0304 67.6138 10.9174C68.64 11.8392 69.153 13.0567 69.153 14.5698V19.605C69.153 21.1181 68.64 22.3182 67.6138 23.2052C66.5876 24.1096 65.2484 24.5618 63.5961 24.5618C61.9612 24.5618 60.6307 24.1183 59.6045 23.2313C58.561 22.3443 58.0392 21.1355 58.0392 19.605V14.5698C58.0392 13.0567 58.561 11.8392 59.6045 10.9174C60.6307 10.0304 61.9612 9.58686 63.5961 9.58686ZM65.9963 12.4827C65.4571 11.874 64.6571 11.5696 63.5961 11.5696C62.5352 11.5696 61.7264 11.874 61.1699 12.4827C60.6307 13.0915 60.3611 13.9176 60.3611 14.9612V19.2136C60.3611 20.2572 60.6307 21.0833 61.1699 21.6921C61.7264 22.3008 62.5352 22.6052 63.5961 22.6052C64.6571 22.6052 65.4571 22.3008 65.9963 21.6921C66.5529 21.0833 66.8311 20.2572 66.8311 19.2136V14.9612C66.8311 13.9176 66.5529 13.0915 65.9963 12.4827Z" fill="black"/>
<path d="M78.5477 9.89993H81L76.3301 17.0222V17.1265L81 24.2488H78.5477L74.9474 18.7179H74.843L71.2167 24.2488H68.7904L73.4342 17.1265V17.0222L68.7904 9.89993H71.2167L74.843 15.4568H74.9474L78.5477 9.89993Z" fill="black"/>
<path d="M9.20701 9.42821H20.3508C21.19 9.42821 21.8704 10.1086 21.8704 10.9478V17.0262C21.8704 17.8655 21.19 18.5458 20.3508 18.5458H9.20701C8.36776 18.5458 7.68741 17.8655 7.68741 17.0262V10.9478C7.68741 10.1086 8.36776 9.42821 9.20701 9.42821Z" fill="black"/>
<path fill-rule="evenodd" clip-rule="evenodd" d="M14.7789 29.779C22.9411 29.779 29.5578 23.1622 29.5578 15.0001C29.5578 6.83793 22.9411 0.221191 14.7789 0.221191C6.61674 0.221191 0 6.83793 0 15.0001C0 23.1622 6.61674 29.779 14.7789 29.779ZM17.8181 21.0785C17.8181 20.7988 17.5913 20.572 17.3116 20.572H12.2462C11.9665 20.572 11.7397 20.7988 11.7397 21.0785C11.7397 21.3583 11.9665 21.585 12.2462 21.585H17.3116C17.5913 21.585 17.8181 21.3583 17.8181 21.0785ZM22.8835 10.9478C22.8835 9.54905 21.7495 8.41514 20.3508 8.41514H9.20701C7.80826 8.41514 6.67434 9.54905 6.67434 10.9478V17.0262C6.67434 18.425 7.80826 19.5589 9.20701 19.5589H20.3508C21.7495 19.5589 22.8835 18.425 22.8835 17.0262V10.9478Z" fill="black"/>
</svg>
