<svg xmlns="http://www.w3.org/2000/svg" width="85" height="27" viewBox="0 0 85 27" fill="none">
    <path d="M32.4398 9.83332C32.4398 8.42981 32.8898 7.29327 33.7899 6.4237C34.69 5.55413 35.941 5.11935 37.5428 5.11935C39.1599 5.11935 40.4185 5.55413 41.3185 6.4237C42.2034 7.29327 42.6458 8.42981 42.6458 9.83332V16.9958C42.6458 18.3993 42.1881 19.5359 41.2728 20.4054C40.3727 21.2597 39.1294 21.6869 37.5428 21.6869C35.9562 21.6869 34.7053 21.2597 33.7899 20.4054C32.8898 19.5511 32.4398 18.4146 32.4398 16.9958V9.83332ZM37.5428 7.06444C35.5596 7.06444 34.568 8.04079 34.568 9.99351V16.8356C34.568 18.7731 35.5596 19.7418 37.5428 19.7418C39.5413 19.7418 40.5405 18.7731 40.5405 16.8356V9.99351C40.5405 8.04079 39.5413 7.06444 37.5428 7.06444Z" fill="white"/>
    <path d="M50.3215 19.3528L50.8707 20.9089C50.4283 21.397 49.7189 21.6411 48.7426 21.6411C47.0034 21.6411 46.1339 20.5961 46.1339 18.5061V10.7258H44.3719V8.82645H46.1339V5.39395H48.1705V8.82645H50.6877V10.7258H48.1705V18.1629C48.1705 18.6358 48.2773 19.0172 48.4909 19.307C48.7044 19.5969 48.9943 19.7418 49.3604 19.7418C49.8181 19.7418 50.1385 19.6121 50.3215 19.3528Z" fill="white"/>
    <path d="M56.7344 8.55185C58.1684 8.55185 59.3431 8.94087 60.2584 9.7189C61.1585 10.5274 61.6086 11.5953 61.6086 12.9226V17.3391C61.6086 18.6663 61.1585 19.7189 60.2584 20.497C59.3584 21.2903 58.1837 21.6869 56.7344 21.6869C55.3004 21.6869 54.1333 21.2979 53.2333 20.5198C52.3179 19.7418 51.8603 18.6816 51.8603 17.3391V12.9226C51.8603 11.5953 52.3179 10.5274 53.2333 9.7189C54.1333 8.94087 55.3004 8.55185 56.7344 8.55185ZM58.8397 11.0919C58.3668 10.558 57.665 10.291 56.7344 10.291C55.8038 10.291 55.0944 10.558 54.6063 11.0919C54.1333 11.6259 53.8969 12.3505 53.8969 13.2658V16.9958C53.8969 17.9111 54.1333 18.6358 54.6063 19.1697C55.0944 19.7037 55.8038 19.9706 56.7344 19.9706C57.665 19.9706 58.3668 19.7037 58.8397 19.1697C59.3279 18.6358 59.5719 17.9111 59.5719 16.9958V13.2658C59.5719 12.3505 59.3279 11.6259 58.8397 11.0919Z" fill="white"/>
    <path d="M69.8489 8.82645H71.9999L67.9038 15.0736V15.1651L71.9999 21.4123H69.8489L66.691 16.561H66.5995L63.4187 21.4123H61.2905L65.3638 15.1651V15.0736L61.2905 8.82645H63.4187L66.5995 13.7006H66.691L69.8489 8.82645Z" fill="white"/>
    <path d="M9.02793 8.41269H18.8025C19.5386 8.41269 20.1354 9.00945 20.1354 9.74559V15.0772C20.1354 15.8133 19.5386 16.4101 18.8025 16.4101H9.02793C8.29179 16.4101 7.69503 15.8133 7.69503 15.0772V9.74559C7.69503 9.00945 8.29179 8.41269 9.02793 8.41269Z" fill="white"/>
    <path fill-rule="evenodd" clip-rule="evenodd" d="M13.9152 26.263C21.0745 26.263 26.8783 20.4593 26.8783 13.3C26.8783 6.14067 21.0745 0.336914 13.9152 0.336914C6.75591 0.336914 0.952148 6.14067 0.952148 13.3C0.952148 20.4593 6.75591 26.263 13.9152 26.263ZM16.581 18.6316C16.581 18.3862 16.3821 18.1873 16.1367 18.1873H11.6937C11.4483 18.1873 11.2494 18.3862 11.2494 18.6316C11.2494 18.8769 11.4483 19.0759 11.6937 19.0759H16.1367C16.3821 19.0759 16.581 18.8769 16.581 18.6316ZM21.024 9.74559C21.024 8.51869 20.0294 7.52409 18.8025 7.52409H9.02793C7.80103 7.52409 6.80643 8.51869 6.80643 9.74559V15.0772C6.80643 16.3041 7.80103 17.2987 9.02793 17.2987H18.8025C20.0294 17.2987 21.024 16.3041 21.024 15.0772V9.74559Z" fill="white"/>
    </svg>