<svg width="22" height="24" viewBox="0 0 22 24" fill="none" xmlns="http://www.w3.org/2000/svg">
<path d="M21.093 17.4898C20.541 18.712 20.277 19.2584 19.5681 20.3384C18.5776 21.8468 17.1792 23.7289 15.4503 23.7418C13.9124 23.7547 13.5155 22.7384 11.4284 22.7551C9.34133 22.7652 8.90656 23.7603 7.36687 23.7446C5.63795 23.7289 4.31425 22.0332 3.32287 20.5277C0.55087 16.3046 0.258254 11.3551 1.97149 8.72152C3.18349 6.85414 5.10164 5.75752 6.90256 5.75752C8.73672 5.75752 9.88964 6.76552 11.4063 6.76552C12.8776 6.76552 13.7739 5.75475 15.8952 5.75475C17.4995 5.75475 19.1961 6.6289 20.4081 8.13721C16.4426 10.3101 17.0869 15.9741 21.093 17.4898ZM14.2853 4.06921C15.057 3.07875 15.6423 1.68121 15.4299 0.255981C14.1709 0.341828 12.6986 1.14583 11.8383 2.18706C11.0592 3.13506 10.413 4.54367 10.665 5.90614C12.0386 5.95044 13.4601 5.13167 14.2853 4.06921Z" fill="#7E75F5"/>
</svg>
