<svg width="96" height="64" viewBox="0 0 96 64" fill="none" xmlns="http://www.w3.org/2000/svg">
<g clip-path="url(#clip0_180_6147)">
<g clip-path="url(#clip1_180_6147)">
<path d="M38.3289 37.0166H36.1637V31.4025C36.1637 30.7775 36.0103 30.2854 35.7034 29.9279C35.3965 29.5574 34.9754 29.3721 34.4383 29.3721C33.8245 29.3721 33.3455 29.5761 33.0012 29.9859C32.6699 30.3939 32.5034 30.9572 32.5034 31.672V37.0166H30.3195V27.628H32.466V28.4514C33.0536 27.7497 33.8638 27.3979 34.8987 27.3979C36.0608 27.3979 36.9366 27.8058 37.5242 28.6236C38.2522 27.8058 39.229 27.3979 40.4547 27.3979C41.6505 27.3979 42.56 27.7385 43.185 28.4177L43.2318 28.4701C43.8699 29.1719 44.1899 30.2011 44.1899 31.5541V37.0147H42.0061V31.4007C42.0061 30.7756 41.8526 30.2835 41.5457 29.9261C41.2388 29.5555 40.8178 29.3703 40.2807 29.3703C39.6669 29.3703 39.1878 29.5817 38.8435 30.0028C38.4992 30.4107 38.327 30.9665 38.327 31.6701V37.0166H38.3289ZM54.8154 32.2091L54.7967 32.9763H48.378C48.4285 33.6781 48.6774 34.2339 49.1247 34.6437C49.5719 35.0517 50.1464 35.2575 50.8482 35.2575C51.8568 35.2575 52.6615 34.8178 53.2622 33.9363L54.7368 35.3155C53.7413 36.5937 52.4444 37.2318 50.8482 37.2318C49.4297 37.2318 48.2938 36.7845 47.4386 35.89C46.5703 34.9824 46.1361 33.8147 46.1361 32.3831C46.1361 30.9909 46.5329 29.81 47.3244 28.8388C48.1291 27.8807 49.1958 27.4016 50.5244 27.4016C51.9429 27.4016 53.0096 27.8751 53.7244 28.8201C54.4524 29.7614 54.8154 30.8935 54.8154 32.2091ZM50.5431 29.3927C49.9948 29.3927 49.5401 29.5649 49.1827 29.9092C48.8384 30.2535 48.6082 30.6952 48.4922 31.2304H52.4968C52.4837 30.7064 52.3116 30.2723 51.9803 29.9279C51.6491 29.5705 51.17 29.3927 50.5431 29.3927ZM61.251 27.3997C62.2989 27.3997 63.1728 27.7066 63.8746 28.3186V23.5859H66.0585V37.0166H63.912V36.1745C63.2477 36.8762 62.3607 37.228 61.2491 37.228C59.9205 37.228 58.822 36.7677 57.9537 35.8489C57.0985 34.9169 56.6699 33.7417 56.6699 32.3232C56.6699 30.9048 57.0985 29.7296 57.9537 28.7976C58.8107 27.8657 59.9092 27.3997 61.251 27.3997ZM63.2421 30.1768C62.7948 29.6154 62.1829 29.3347 61.4026 29.3347C60.6241 29.3347 60.0103 29.6154 59.563 30.1768C59.1158 30.7382 58.8931 31.4549 58.8931 32.3232C58.8931 33.1916 59.1176 33.9064 59.563 34.4697C60.0103 35.0311 60.6241 35.3118 61.4026 35.3118C62.1829 35.3118 62.7948 35.0311 63.2421 34.4697C63.6893 33.9083 63.912 33.1916 63.912 32.3232C63.912 31.4549 63.6893 30.7401 63.2421 30.1768ZM68.4631 27.6299H70.647V33.2439C70.647 33.869 70.8005 34.3686 71.1074 34.7392C71.4143 35.0966 71.8484 35.2762 72.4098 35.2762C73.0105 35.2762 73.4821 35.0648 73.8283 34.6437C74.1857 34.2096 74.3654 33.6351 74.3654 32.9202V27.6318H76.5492V37.0203H74.4028V36.2531C73.8021 36.9043 72.9918 37.2299 71.9682 37.2299C70.8959 37.2299 70.0407 36.865 69.4007 36.137C68.7757 35.396 68.4613 34.3817 68.4613 33.0905V27.6299H68.4631ZM83.0222 33.4723L81.7759 33.1654C79.8727 32.7181 78.9221 31.7282 78.9221 30.1955C78.9221 29.3534 79.2402 28.676 79.8802 28.1651C80.5183 27.6542 81.3436 27.3979 82.3523 27.3979C83.7071 27.3979 84.8879 27.9218 85.8966 28.9698L84.4987 30.465C83.9242 29.6734 83.1888 29.2767 82.2943 29.2767C81.9106 29.2767 81.5981 29.3665 81.3548 29.5443C81.1247 29.7108 81.0105 29.9148 81.0105 30.1581C81.0105 30.5923 81.3174 30.8861 81.9312 31.0395L83.4058 31.3838C85.3221 31.818 86.2802 32.7948 86.2802 34.3144C86.2802 35.1827 85.9471 35.8863 85.2828 36.4215C84.6316 36.9586 83.724 37.2262 82.5619 37.2262C80.9263 37.2262 79.6313 36.6199 78.6732 35.4054L80.0524 33.9869C80.7429 34.8945 81.6355 35.3473 82.7359 35.3473C83.694 35.3473 84.1731 35.0273 84.1731 34.3892C84.1712 33.9831 83.7876 33.6781 83.0222 33.4723ZM90.9848 37.228C90.0772 37.228 89.3249 36.9717 88.7242 36.4608C88.1235 35.9368 87.8241 35.2407 87.8241 34.3724C87.8241 33.3768 88.1815 32.6039 88.8982 32.0538C89.6131 31.5055 90.5581 31.2304 91.7333 31.2304C92.3209 31.2304 92.9534 31.3389 93.6309 31.556V30.9235C93.6309 30.4631 93.4587 30.0926 93.1144 29.8119C92.77 29.5181 92.3284 29.3721 91.7932 29.3721C90.8089 29.3721 90.0697 29.825 89.57 30.7326L88.0954 29.3534C88.4398 28.7284 88.945 28.2493 89.6093 27.9162C90.2868 27.5719 91.0203 27.3997 91.8119 27.3997C93.0507 27.3997 94.0276 27.7066 94.7424 28.3186C95.4573 28.9324 95.8147 29.8063 95.8147 30.9441V37.0185H93.6683V36.2905C92.9647 36.9155 92.0702 37.228 90.9848 37.228ZM90.0079 34.2208C90.0079 34.5408 90.1296 34.8028 90.371 35.0068C90.6274 35.2107 90.9773 35.3137 91.4245 35.3137C92.3434 35.3137 93.0788 35.0461 93.6271 34.509V33.4367C92.9366 33.1803 92.2854 33.0531 91.6734 33.0531C91.1626 33.0531 90.7527 33.156 90.4477 33.36C90.1558 33.5621 90.0079 33.8503 90.0079 34.2208Z" fill="black"/>
<path d="M18.6105 24.2241L13.4194 21.2281C11.7202 20.2456 9.6393 20.2456 7.94199 21.2281L2.72655 24.2241C1.0517 25.2065 0 27.0274 0 28.9698V34.9843C0 36.9492 1.0517 38.7457 2.72655 39.7283L7.91766 42.7467C9.61684 43.7292 11.6978 43.7292 13.3951 42.7467L18.5862 39.7283C20.2854 38.7457 21.3127 36.9492 21.3127 34.9843V28.9698C21.3614 27.0274 20.3078 25.2065 18.6105 24.2241ZM10.6685 37.331C7.72678 37.331 5.3352 34.9357 5.3352 31.9883C5.3352 29.0409 7.72678 26.6456 10.6685 26.6456C13.6103 26.6456 16.0262 29.0409 16.0262 31.9883C16.0262 34.9357 13.6346 37.331 10.6685 37.331Z" fill="black"/>
</g>
</g>
<defs>
<clipPath id="clip0_180_6147">
<rect width="96" height="64" fill="white"/>
</clipPath>
<clipPath id="clip1_180_6147">
<rect width="96" height="23.0175" fill="white" transform="translate(0 20.4912)"/>
</clipPath>
</defs>
</svg>
