<svg width="96" height="64" viewBox="0 0 96 64" fill="none" xmlns="http://www.w3.org/2000/svg">
<g clip-path="url(#clip0_180_6187)">
<path fill-rule="evenodd" clip-rule="evenodd" d="M61.7145 38.6401C61.8834 38.543 62.0239 38.4032 62.1218 38.2347C62.2197 38.0662 62.2716 37.875 62.2722 37.6801L62.2922 31.2501C62.2928 31.0552 62.3447 30.8639 62.4426 30.6954C62.5405 30.5269 62.681 30.3871 62.85 30.2901L66.3356 28.2879C66.5045 28.1908 66.696 28.1399 66.8908 28.1403C67.0856 28.1406 67.2769 28.1921 67.4455 28.2897C67.6141 28.3873 67.7541 28.5275 67.8514 28.6963C67.9487 28.865 68 29.0564 68 29.2512V40.9412C68 41.1366 67.9484 41.3286 67.8505 41.4977C67.7525 41.6669 67.6117 41.8072 67.4422 41.9045L54.2878 49.4601C54.1198 49.5565 53.9294 49.6074 53.7357 49.6076C53.542 49.6078 53.3516 49.5573 53.1833 49.4612L42.86 43.5567C42.6899 43.4596 42.5486 43.3192 42.4502 43.1499C42.3519 42.9805 42.3001 42.7882 42.3 42.5923V36.6979C42.3 36.6912 42.3078 36.6867 42.3145 36.6901C42.32 36.6934 42.3278 36.6901 42.3278 36.6823V36.6756C42.3278 36.6712 42.33 36.6667 42.3344 36.6645L50.8367 31.7801C50.8444 31.7756 50.8411 31.7634 50.8322 31.7634C50.8299 31.7634 50.8276 31.7625 50.8259 31.7608C50.8243 31.7591 50.8233 31.7569 50.8233 31.7545L50.84 25.9756C50.8408 25.7802 50.79 25.5881 50.6928 25.4185C50.5956 25.249 50.4554 25.1081 50.2864 25.0101C50.1173 24.912 49.9254 24.8603 49.73 24.8601C49.5346 24.8599 49.3426 24.9113 49.1733 25.009L42.8545 28.6501C42.6858 28.7472 42.4946 28.7983 42.3 28.7983C42.1054 28.7983 41.9142 28.7472 41.7456 28.6501L35.4067 25.0001C35.2378 24.9028 35.0463 24.8517 34.8514 24.8519C34.6566 24.852 34.4651 24.9034 34.2964 25.0009C34.1277 25.0984 33.9875 25.2385 33.8901 25.4073C33.7926 25.576 33.7412 25.7674 33.7411 25.9623V36.4067C33.7412 36.6014 33.6902 36.7927 33.5932 36.9615C33.4961 37.1302 33.3564 37.2705 33.1881 37.3683C33.0198 37.4661 32.8287 37.5179 32.634 37.5186C32.4394 37.5193 32.2479 37.4689 32.0789 37.3723L28.5611 35.3612C28.3907 35.2639 28.2492 35.1231 28.1508 34.9534C28.0524 34.7836 28.0008 34.5908 28.0011 34.3945L28.0322 16.139C28.0326 15.9443 28.0842 15.7533 28.1817 15.5848C28.2792 15.4164 28.4192 15.2765 28.5877 15.1792C28.7563 15.0818 28.9474 15.0305 29.142 15.0303C29.3366 15.03 29.5279 15.0809 29.6967 15.1779L41.7467 22.099C41.9151 22.1957 42.1058 22.2465 42.3 22.2465C42.4942 22.2465 42.685 22.1957 42.8533 22.099L54.9 15.1779C55.069 15.0808 55.2606 15.0299 55.4555 15.0303C55.6504 15.0307 55.8418 15.0823 56.0104 15.18C56.179 15.2777 56.319 15.4181 56.4163 15.587C56.5135 15.7559 56.5646 15.9474 56.5644 16.1423V34.4023C56.5645 34.5976 56.5131 34.7895 56.4154 34.9587C56.3176 35.1278 56.1771 35.2682 56.0078 35.3656L49.6989 38.999C49.5294 39.0967 49.3888 39.2373 49.2911 39.4068C49.1935 39.5763 49.1423 39.7685 49.1427 39.9641C49.1432 40.1597 49.1952 40.3518 49.2937 40.5208C49.3921 40.6898 49.5334 40.8298 49.7033 40.9267L53.1833 42.9079C53.3515 43.0036 53.5418 43.0538 53.7353 43.0534C53.9288 43.053 54.1189 43.0021 54.2867 42.9056L61.7145 38.6401ZM62.4445 22.2601C62.4446 22.4566 62.4969 22.6495 62.5959 22.8192C62.6949 22.9889 62.8372 23.1294 63.0082 23.2261C63.1792 23.3229 63.3728 23.3727 63.5693 23.3702C63.7658 23.3678 63.9581 23.3133 64.1267 23.2123L67.46 21.2123C67.6246 21.1137 67.7608 20.9742 67.8554 20.8073C67.95 20.6404 67.9999 20.4519 68 20.2601V16.1845C67.9997 15.9881 67.9472 15.7953 67.8481 15.6258C67.749 15.4562 67.6067 15.316 67.4358 15.2193C67.2648 15.1226 67.0712 15.073 66.8749 15.0755C66.6785 15.078 66.4863 15.1325 66.3178 15.2334L62.9845 17.2334C62.8199 17.332 62.6837 17.4715 62.589 17.6384C62.4944 17.8053 62.4446 17.9938 62.4445 18.1856V22.2601Z" fill="#131212"/>
</g>
<defs>
<clipPath id="clip0_180_6187">
<rect width="96" height="64" fill="white"/>
</clipPath>
</defs>
</svg>
