<svg width="96" height="64" viewBox="0 0 96 64" fill="none" xmlns="http://www.w3.org/2000/svg">
<g clip-path="url(#clip0_180_6106)">
<mask id="mask0_180_6106" style="mask-type:luminance" maskUnits="userSpaceOnUse" x="0" y="17" width="96" height="31">
<path d="M95.9277 17.5625H0.255859V47.5319H95.9277V17.5625Z" fill="white"/>
</mask>
<g mask="url(#mask0_180_6106)">
<path d="M31.8355 25.6465C32.2012 25.6465 32.4972 25.7507 32.7234 25.9418C32.9499 26.133 33.1065 26.411 33.1935 26.7584H33.2457C33.3501 26.7584 33.5243 26.6889 33.7506 26.5673C33.9769 26.4457 34.1337 26.3588 34.2206 26.3241C34.9345 26.0635 35.6483 25.8897 36.3622 25.8028C37.0933 25.6986 37.8246 25.6465 38.5906 25.6465C39.2522 25.6465 39.9485 25.6986 40.6623 25.7855C41.3762 25.8723 42.0726 26.0461 42.7342 26.272C43.3958 26.5152 44.0225 26.8279 44.5795 27.2449C45.1367 27.6619 45.6067 28.1831 45.9898 28.8259C46.1292 29.0866 46.2683 29.3646 46.3901 29.712C46.5121 30.0422 46.5817 30.3549 46.5817 30.6503V40.6579C46.5817 41.0055 46.425 41.266 46.1292 41.4745C45.8331 41.6657 45.5371 41.77 45.2413 41.77C45.1193 41.77 44.98 41.7351 44.8233 41.683C44.6667 41.6308 44.5273 41.544 44.3881 41.4572C44.2489 41.3529 44.1443 41.2487 44.0399 41.1269C43.9528 41.0055 43.9006 40.8838 43.9006 40.7275V30.9109C43.9006 30.8761 43.8659 30.7545 43.7788 30.5634C43.6917 30.3723 43.6394 30.2507 43.6047 30.1986C43.361 29.7989 43.0476 29.4688 42.6471 29.2256C42.2467 28.965 41.8115 28.7912 41.3414 28.6522C40.8712 28.5306 40.3838 28.4437 39.8962 28.3916C39.4088 28.3395 38.9561 28.3221 38.5383 28.3221C38.1032 28.3221 37.6505 28.3395 37.1805 28.3742C36.7104 28.409 36.2578 28.4959 35.8051 28.6175C35.3698 28.7391 34.9345 28.9129 34.534 29.1387C34.1337 29.3646 33.8028 29.6599 33.5243 30.0422C33.4721 30.1291 33.385 30.2681 33.2979 30.4592C33.1935 30.6503 33.1413 30.7545 33.1413 30.8066V40.5884C33.1413 40.9186 32.9846 41.1965 32.6712 41.4224C32.3578 41.6483 32.0445 41.77 31.766 41.77C31.5049 41.77 31.2436 41.683 30.9302 41.4919C30.6344 41.3182 30.4775 41.0749 30.4775 40.7796V26.6368C30.4775 26.3241 30.6344 26.0982 30.9302 25.9245C31.3133 25.7333 31.5918 25.6465 31.8355 25.6465Z" fill="#131212"/>
<path d="M48.7918 33.6904C48.7918 32.4914 48.9834 31.4144 49.3839 30.4239C49.7843 29.4337 50.3415 28.5823 51.0552 27.87C51.7692 27.1576 52.6222 26.6016 53.6145 26.2194C54.6068 25.8372 55.6862 25.6287 56.8527 25.6287C57.7755 25.6287 58.6808 25.7155 59.5338 25.8719C60.4043 26.0283 61.24 26.3236 62.0583 26.7406H62.1454C62.2498 26.4279 62.4239 26.1673 62.6502 25.9588C62.8766 25.7503 63.1552 25.6287 63.5035 25.6287C63.7993 25.6287 64.0953 25.7329 64.3913 25.924C64.6872 26.1151 64.844 26.3931 64.844 26.7406V40.6228C64.844 40.9701 64.6872 41.2308 64.3913 41.4392C64.0953 41.6305 63.7993 41.7348 63.5035 41.7348C63.1552 41.7348 62.8766 41.6305 62.6502 41.4046C62.4239 41.1961 62.2498 40.9181 62.1454 40.6228H62.0583C61.1878 41.0398 60.3174 41.3352 59.4642 41.4914C58.6111 41.6477 57.7059 41.7348 56.7658 41.7348C55.5818 41.7348 54.5025 41.5436 53.5274 41.1439C52.5524 40.7443 51.6995 40.1883 51.0031 39.4761C50.2891 38.7636 49.7495 37.9123 49.3665 36.922C48.9834 35.9491 48.7918 34.8717 48.7918 33.6904ZM51.4731 33.6729C51.4731 34.4723 51.6123 35.202 51.8735 35.8621C52.1346 36.5224 52.5003 37.0957 52.9702 37.5648C53.4404 38.0513 53.9974 38.4161 54.659 38.6768C55.3032 38.9375 56.0344 39.0764 56.8354 39.0764C57.2358 39.0764 57.6884 39.0589 58.1759 39.007C58.6808 38.9548 59.1507 38.8679 59.6209 38.7463C60.0909 38.6246 60.5261 38.4336 60.9266 38.1903C61.3271 37.9471 61.6405 37.6169 61.8842 37.1999C61.9364 37.1131 61.9886 36.9914 62.0583 36.8351C62.128 36.6788 62.1454 36.5571 62.1454 36.4354V30.9626C62.1454 30.8584 62.1105 30.7192 62.0583 30.5629C61.9886 30.4066 61.9364 30.2851 61.8842 30.1981C61.6405 29.7985 61.3444 29.4858 60.9441 29.2426C60.561 28.9992 60.1258 28.8081 59.6732 28.6692C59.2032 28.5302 58.7331 28.4433 58.2456 28.3911C57.7581 28.339 57.3054 28.3217 56.8877 28.3217C56.0867 28.3217 55.3554 28.4433 54.6939 28.7039C54.0322 28.9645 53.4578 29.312 52.9877 29.7811C52.5177 30.2502 52.1521 30.8063 51.891 31.4665C51.6123 32.1266 51.4731 32.8564 51.4731 33.6729Z" fill="#131212"/>
<path d="M68.2895 23.0918C68.5681 23.0918 68.8467 23.1613 69.16 23.3003C69.4735 23.4393 69.63 23.6999 69.63 24.0648V40.7093C69.63 41.0222 69.4735 41.2654 69.16 41.4565C68.8467 41.6475 68.5681 41.7345 68.2895 41.7345C68.1677 41.7345 68.0284 41.6999 67.8716 41.6475C67.715 41.5955 67.5758 41.526 67.4538 41.439C67.332 41.3522 67.2276 41.2481 67.1404 41.109C67.0534 40.9873 67.0186 40.8484 67.0186 40.7093V24.0648C67.0186 23.752 67.1753 23.5261 67.4712 23.3524C67.7672 23.1787 68.0459 23.0918 68.2895 23.0918Z" fill="#131212"/>
<path d="M71.791 33.6904C71.791 32.4914 71.9826 31.4144 72.3829 30.4239C72.7834 29.4337 73.3405 28.5823 74.0544 27.87C74.7682 27.1576 75.6213 26.6016 76.6136 26.2194C77.606 25.8372 78.6854 25.6287 79.8519 25.6287C80.7746 25.6287 81.6799 25.7155 82.533 25.8719C83.4035 26.0283 84.2393 26.3236 85.0575 26.7406H85.1446C85.249 26.4279 85.4231 26.1673 85.6495 25.9588C85.8757 25.7503 86.1543 25.6287 86.5025 25.6287C86.7985 25.6287 87.0945 25.7329 87.3903 25.924C87.6863 26.1151 87.843 26.3931 87.843 26.7406V40.6228C87.843 40.9701 87.6863 41.2308 87.3903 41.4392C87.0945 41.6305 86.7985 41.7348 86.5025 41.7348C86.1543 41.7348 85.8757 41.6305 85.6495 41.4046C85.4231 41.1961 85.249 40.9181 85.1446 40.6228H85.0575C84.187 41.0398 83.3164 41.3352 82.4633 41.4914C81.6103 41.6477 80.7049 41.7348 79.7648 41.7348C78.581 41.7348 77.5015 41.5436 76.5265 41.1439C75.5516 40.7443 74.6984 40.1883 74.0022 39.4761C73.2883 38.7636 72.7487 37.9123 72.3656 36.922C72 35.9491 71.791 34.8717 71.791 33.6904ZM74.4897 33.6729C74.4897 34.4723 74.6289 35.202 74.89 35.8621C75.1511 36.5224 75.5167 37.0957 75.9869 37.5648C76.4569 38.0513 77.0139 38.4161 77.6756 38.6768C78.3198 38.9375 79.0512 39.0764 79.8519 39.0764C80.2522 39.0764 80.7049 39.0589 81.1924 39.007C81.6972 38.9548 82.1674 38.8679 82.6374 38.7463C83.1075 38.6246 83.5429 38.4336 83.9432 38.1903C84.3437 37.9471 84.6572 37.6169 84.9008 37.1999C84.953 37.1131 85.0052 36.9914 85.0748 36.8351C85.1446 36.6788 85.162 36.5571 85.162 36.4354V30.9626C85.162 30.8584 85.1271 30.7192 85.0748 30.5629C85.0052 30.4066 84.953 30.2851 84.9008 30.1981C84.6572 29.7985 84.3612 29.4858 83.9607 29.2426C83.5776 28.9992 83.1422 28.8081 82.6897 28.6692C82.2196 28.5302 81.7496 28.4433 81.262 28.3911C80.7746 28.339 80.3219 28.3217 79.9041 28.3217C79.1033 28.3217 78.3721 28.4433 77.7104 28.7039C77.0488 28.9645 76.4743 29.312 76.0043 29.7811C75.5342 30.2502 75.1686 30.8063 74.9075 31.4665C74.6115 32.1266 74.4897 32.8564 74.4897 33.6729Z" fill="#131212"/>
<path d="M8.4699 31.9702C8.52213 31.8833 8.60918 31.8138 8.74846 31.7792C8.99221 31.727 9.09666 31.5185 9.14889 31.31C9.21852 30.9799 9.41004 30.7192 9.61895 30.4934C9.61895 30.476 9.63637 30.476 9.65378 30.476C8.60918 28.0958 8.644 28.617 8.26099 26.0282C8.10429 24.9684 7.94761 23.8564 7.44271 22.9356C6.15437 20.5379 4.95308 20.6422 4.6397 20.7811C4.41337 20.8854 4.25669 21.4935 4.30891 21.8236C5.12718 28.7039 7.18157 30.0591 8.4699 31.9702Z" fill="#131212"/>
<path d="M11.8131 29.2083C11.8653 29.382 11.9002 29.5558 11.9176 29.7469C12.3005 29.6948 12.6662 29.7122 13.0493 29.7122C13.1711 29.7122 13.206 29.7643 13.1885 29.8685C13.1711 30.0596 13.1537 30.2508 13.1189 30.4418C13.1015 30.5634 13.1711 30.6156 13.2582 30.6503C13.4671 30.7025 13.6587 30.7546 13.8676 30.8066C13.6934 30.1813 13.502 29.3126 13.3104 28.1658C13.0841 26.967 13.0841 24.4824 12.7881 21.8068C12.5095 16.8725 7.33878 14.1621 11.8131 29.2083Z" fill="#131212"/>
<path d="M15.8865 30.1459C15.8516 30.2503 15.7647 30.5631 15.6602 30.9104C15.695 30.9279 15.7472 30.9626 15.782 30.9801C16.0258 31.1362 16.3043 31.1362 16.583 31.1362C16.8092 31.1189 17.0355 31.0842 17.2619 31.0842C17.2966 31.0842 17.3664 31.1362 17.3838 31.1884C17.4535 31.3969 17.5057 31.6227 17.5753 31.8486C17.5753 31.8835 17.61 31.9181 17.5926 31.9356C17.4882 32.0571 17.5753 32.1614 17.6275 32.2482C17.7493 32.4916 17.8191 32.7869 18.0453 32.9779C18.1149 33.0476 18.1324 33.1864 18.1324 33.2908C18.1324 33.4992 18.1846 33.6729 18.324 33.8468C18.4283 33.9509 18.4805 34.1074 18.5676 34.2289C18.6024 34.2811 18.6198 34.3332 18.6545 34.368C18.0627 32.8043 18.0278 31.1537 18.1671 29.5379C19.8559 18.5573 15.4164 22.1016 16.0085 25.2638C16.4088 27.3835 16.6177 28.0263 15.8865 30.1459Z" fill="#131212"/>
<path d="M26.9075 33.5347C26.8726 32.4054 26.1241 31.9016 25.149 32.4401C24.5223 32.7876 23.9827 33.3609 23.4951 33.8995C23.0599 34.4034 22.7812 35.2374 22.4331 35.5501C21.7889 36.1234 21.0577 36.3146 20.3961 36.1755C20.2568 36.4362 20.0654 36.6967 19.8216 36.9053C19.7868 36.9227 19.7694 36.9574 19.7346 36.9748C19.2994 37.1312 19.0729 37.5307 18.7771 37.8261C18.6029 37.9826 18.5333 38.1909 18.5159 38.3996C18.4985 38.6601 18.5507 38.9034 18.5855 39.1639C18.6377 39.4767 18.7073 39.7721 18.7422 40.0848C18.7771 40.2933 18.6551 40.4496 18.4985 40.554C18.2895 40.693 18.0806 40.7971 17.8891 40.9361C17.6628 41.0924 17.6279 41.2143 17.7324 41.4748C17.7672 41.5964 17.8021 41.7181 17.8194 41.8396C17.8544 42.0134 17.7672 42.1524 17.6106 42.2045C17.3319 42.3087 17.2623 42.4998 17.2797 42.7604C17.2972 42.9168 17.2101 43.0558 17.0707 43.1428C16.9838 43.2121 16.9141 43.2991 16.8444 43.386C16.8096 43.4381 16.7747 43.4901 16.7225 43.525C16.5485 43.6986 16.3917 43.8724 16.2002 44.0114C16.0436 44.1156 15.8695 44.2027 15.678 44.2199C15.3994 44.2548 15.121 44.2199 14.8597 44.3416C14.703 44.4111 14.5465 44.3416 14.4767 44.1678C14.4245 44.0288 14.3896 43.8898 14.3549 43.751C14.2852 43.5423 14.233 43.3338 14.146 43.1428C13.9892 42.7604 13.8325 42.3956 13.6585 42.0307C13.6411 41.9959 13.6238 41.9786 13.6411 41.9439C13.6585 41.6137 13.4669 41.3706 13.3277 41.0924C13.1013 40.6756 13.1187 40.2587 13.3799 39.8416C13.5018 39.6331 13.5714 39.4246 13.5018 39.1814C13.4147 38.9208 13.3625 38.6601 13.2929 38.3996C13.2755 38.3474 13.2407 38.2952 13.2059 38.2604C13.0317 38.0519 12.8751 37.8434 12.701 37.6349C12.6313 37.5481 12.6313 37.4613 12.6836 37.3571C12.7532 37.2181 12.8054 37.0617 12.8576 36.9053C12.8925 36.7663 12.8228 36.6621 12.6661 36.6447C12.5268 36.61 12.3876 36.61 12.2483 36.61C12.109 36.61 12.0045 36.5579 11.9697 36.4187C11.9175 36.2624 11.7957 36.1929 11.6563 36.2104C11.4126 36.2277 11.1862 36.2973 10.9425 36.3319C10.751 36.3667 10.5595 36.3667 10.368 36.4014C10.2287 36.4187 10.072 36.4362 9.95016 36.5058C9.70639 36.6447 9.49748 36.6272 9.27114 36.4536C9.04482 36.2624 8.80108 36.0888 8.55734 35.8976C8.53992 35.8802 8.52252 35.8456 8.52252 35.8281C8.55734 35.6717 8.43547 35.5849 8.34842 35.4806C8.26137 35.3938 8.20914 35.2721 8.13949 35.1679C8.12209 35.1331 8.08728 35.0984 8.05245 35.0984C7.93058 35.0809 7.87835 34.9941 7.86095 34.89C7.7913 34.6466 7.72166 34.4034 7.84353 34.1428C7.84353 34.1254 7.86095 34.108 7.86095 34.108C7.63462 34.0733 7.40827 33.9864 7.18196 33.7952C6.50297 33.2219 6.27664 32.9439 4.8142 30.2162C3.05578 25.1081 -1.54046 28.0444 1.52372 30.0599C2.39421 30.8937 3.31693 31.6583 4.17003 32.5096C6.67706 35.0289 6.76411 35.6196 8.59215 38.6427C9.67157 40.4322 10.751 42.2566 12.0045 43.9071C12.7358 44.8802 13.7629 45.7141 14.8075 46.3396C16.8269 47.5558 19.1426 46.7913 20.1872 44.6716C20.5876 43.8724 20.8488 43.0038 21.0924 42.1349C21.7367 39.7721 22.1198 39.0424 24.1218 37.6349C24.7834 37.1659 25.4277 36.6272 26.0021 36.0541C26.6984 35.3938 26.9422 34.4903 26.9075 33.5347ZM20.5528 40.3628C20.3613 40.9361 20.1698 41.5096 19.9957 42.0654C19.9261 42.2912 19.839 42.3609 19.6474 42.3609C19.4734 42.3609 19.369 42.274 19.2994 42.0654C19.282 41.9959 19.2645 41.9266 19.2472 41.8745C19.1426 41.6833 19.0904 41.4921 19.3167 41.3184C19.369 41.2663 19.369 41.1272 19.3516 41.0404C19.2645 40.6756 19.3342 40.4845 19.6823 40.3281C19.8739 40.2413 20.013 40.1196 20.1001 39.911C20.1349 39.8068 20.2395 39.7373 20.3092 39.6505C20.3787 39.7373 20.4832 39.8068 20.5354 39.911C20.5876 40.0153 20.605 40.1196 20.6399 40.2064C20.5701 40.2933 20.5701 40.3281 20.5528 40.3628Z" fill="#131212"/>
<path d="M95.0153 28.4258C95.0153 28.7386 94.963 29.0339 94.8413 29.2946C94.7197 29.5726 94.5625 29.7984 94.3537 30.007C94.1451 30.2154 93.9184 30.3719 93.6398 30.476C93.3612 30.5977 93.0827 30.6497 92.7693 30.6497C92.456 30.6497 92.16 30.5977 91.8988 30.476C91.6204 30.3544 91.3939 30.198 91.1851 30.007C90.9761 29.7984 90.8195 29.5726 90.715 29.2946C90.5932 29.0165 90.541 28.7386 90.541 28.4258C90.541 28.1131 90.5932 27.8177 90.715 27.5398C90.8368 27.2618 90.9936 27.0359 91.1851 26.8274C91.3939 26.6189 91.6204 26.4626 91.8988 26.3583C92.1775 26.2367 92.456 26.1846 92.7693 26.1846C93.0827 26.1846 93.3787 26.2367 93.6398 26.3583C93.9184 26.4799 94.1451 26.6363 94.3537 26.8274C94.5625 27.0359 94.7197 27.2618 94.8413 27.5398C94.963 27.8351 95.0153 28.1131 95.0153 28.4258ZM94.6672 28.4258C94.6672 28.1652 94.6148 27.922 94.51 27.6788C94.4062 27.4529 94.2666 27.2444 94.1103 27.0707C93.9359 26.8969 93.7443 26.7753 93.5179 26.671C93.2916 26.5668 93.048 26.5147 92.7867 26.5147C92.5256 26.5147 92.2818 26.5668 92.0556 26.671C91.8292 26.7753 91.6204 26.9143 91.4462 27.0707C91.2721 27.2444 91.1328 27.4355 91.0284 27.6788C90.9239 27.9047 90.8717 28.1652 90.8717 28.4258C90.8717 28.6865 90.9239 28.9297 91.0284 29.1556C91.1328 29.3815 91.2721 29.59 91.4462 29.7463C91.6204 29.9201 91.8119 30.0416 92.0556 30.1459C92.2818 30.2501 92.5256 30.2849 92.7867 30.2849C93.048 30.2849 93.2916 30.2328 93.5179 30.1459C93.7443 30.0416 93.9359 29.9201 94.1103 29.7463C94.2845 29.5726 94.4062 29.3815 94.51 29.1556C94.6148 28.9297 94.6672 28.6865 94.6672 28.4258ZM93.5179 29.225L93.0305 28.7386H92.5083V28.4258H93.1349C93.3612 28.4258 93.4832 28.3043 93.4832 28.0784C93.4832 27.9741 93.4483 27.8873 93.396 27.8351C93.3264 27.7656 93.2394 27.7483 93.1349 27.7483H92.0904V29.225H91.7422V27.4181H93.1349C93.3612 27.4181 93.5354 27.4703 93.6398 27.5919C93.7617 27.7135 93.8139 27.8699 93.8139 28.0784C93.8139 28.2348 93.779 28.3564 93.7094 28.4606C93.6398 28.5648 93.5528 28.6343 93.4136 28.6865L93.9881 29.225H93.5179Z" fill="#131212"/>
</g>
</g>
<defs>
<clipPath id="clip0_180_6106">
<rect width="96" height="64" fill="white"/>
</clipPath>
</defs>
</svg>
