<svg width="96" height="64" viewBox="0 0 96 64" fill="none" xmlns="http://www.w3.org/2000/svg">
<g clip-path="url(#clip0_180_6152)">
<g clip-path="url(#clip1_180_6152)">
<mask id="mask0_180_6152" style="mask-type:luminance" maskUnits="userSpaceOnUse" x="0" y="18" width="96" height="28">
<path d="M95.4798 18.9492H0V45.3198H95.4798V18.9492Z" fill="white"/>
</mask>
<g mask="url(#mask0_180_6152)">
<path d="M5.37588 21.5317C11.1956 17.1851 19.3796 18.4673 23.8353 24.3143C24.6992 25.4418 24.5173 27.1241 23.3078 27.8788C22.745 28.2489 22.0637 28.3945 21.3987 28.2867C20.7338 28.179 20.1333 27.8258 19.7161 27.2969C18.6839 25.9286 17.2495 24.9176 15.614 24.4056C13.9783 23.8936 12.2236 23.9061 10.5954 24.4416C8.97778 24.9751 7.57435 26.0143 6.59203 27.4059C5.60973 28.7975 5.10051 30.4679 5.13946 32.1709C5.1542 33.8801 5.70672 35.5413 6.71869 36.9189C7.73065 38.2965 9.15066 39.3205 10.7773 39.8456C12.3877 40.3783 14.1263 40.3825 15.7393 39.8574C17.3522 39.3323 18.7552 38.3054 19.7434 36.9267C20.6527 35.6536 21.9893 35.4172 23.2624 36.1537C24.5355 36.8812 24.6446 38.7271 23.8534 39.882C22.6743 41.5585 21.11 42.9275 19.2918 43.8737C17.4737 44.8199 15.4549 45.3159 13.4052 45.3198C9.17689 45.338 5.2213 43.4102 2.64789 40.0366C-1.81693 34.1896 -0.452925 25.8692 5.3668 21.5317H5.37588ZM22.6259 29.5884C23.0397 29.3955 23.4965 29.3134 23.9517 29.3501C24.4067 29.3867 24.8445 29.5409 25.2222 29.7975C25.5998 30.0542 25.9043 30.4045 26.1059 30.8141C26.3075 31.2238 26.3994 31.6787 26.3724 32.1345C26.3451 32.5888 26.1967 33.0275 25.9424 33.4049C25.6881 33.7823 25.3373 34.0847 24.9265 34.2805C24.5126 34.4734 24.0558 34.5555 23.6007 34.5188C23.1456 34.4822 22.7078 34.328 22.3302 34.0713C21.9526 33.8147 21.6481 33.4644 21.4465 33.0548C21.2449 32.6451 21.1531 32.1902 21.1801 31.7344C21.2073 31.2801 21.3557 30.8415 21.61 30.464C21.8643 30.0866 22.2151 29.7842 22.6259 29.5884Z" fill="#131212"/>
<path d="M54.717 38.5724H51.8981L47.7879 33.1164L47.7516 34.8714V38.5724H45.5328V21.677H47.7516V32.0888L51.5161 27.0148H54.3623V27.1057L50.2977 32.5253L54.717 38.4815V38.5724ZM60.5367 38.7633C59.654 38.7925 58.794 38.4798 58.1361 37.8903C57.8121 37.577 57.558 37.1987 57.3903 36.7804C57.2226 36.3619 57.1452 35.9128 57.1631 35.4625V28.9971H55.0717V27.0148H57.1631V23.8594H59.3819V27.0057H62.2917V28.988H59.3819V34.7441C59.3819 35.517 59.5365 36.0353 59.8366 36.3172C60.1457 36.5901 60.4913 36.7264 60.8822 36.7264C61.2241 36.7315 61.5628 36.66 61.8735 36.5173L62.5736 38.4451C61.9917 38.6542 61.3187 38.7542 60.5458 38.7542L60.5367 38.7633ZM80.7875 38.7633C79.9016 38.7949 79.038 38.482 78.3778 37.8903C78.0539 37.577 77.7997 37.1987 77.632 36.7804C77.4643 36.3619 77.3869 35.9128 77.4048 35.4625V28.9971H75.3224V27.0148H77.4048V23.8594H79.6236V27.0057H82.5334V28.988H79.6236V34.7441C79.6236 35.517 79.7781 36.0353 80.0783 36.3172C80.3874 36.5901 80.7421 36.7264 81.1239 36.7264C81.4689 36.7329 81.8109 36.6614 82.1243 36.5173L82.8153 38.4451C82.2334 38.6542 81.5604 38.7542 80.7875 38.7542V38.7633ZM89.1988 38.8816C88.3832 38.8912 87.5736 38.74 86.8165 38.4368C86.0593 38.1334 85.3693 37.684 84.7858 37.114C84.2022 36.5441 83.7367 35.8647 83.4159 35.1149C83.0949 34.365 82.9249 33.5592 82.9154 32.7436C82.9154 29.3608 85.7343 26.6147 89.1988 26.6147C90.8445 26.5953 92.4306 27.2298 93.6087 28.379C94.7869 29.5281 95.4608 31.0979 95.4823 32.7436C95.4823 36.1353 92.6633 38.8816 89.1988 38.8816ZM89.1988 36.6992C89.725 36.7063 90.2475 36.6097 90.7363 36.4147C91.2251 36.2197 91.6706 35.9302 92.0472 35.5628C92.424 35.1953 92.7246 34.7572 92.9317 34.2734C93.1389 33.7896 93.2485 33.2697 93.2545 32.7436C93.2545 30.5612 91.4358 28.788 89.1988 28.788C88.6726 28.7808 88.1502 28.8774 87.6614 29.0724C87.1727 29.2674 86.7271 29.5569 86.3504 29.9244C85.9736 30.2918 85.6732 30.73 85.466 31.2137C85.2589 31.6975 85.1491 32.2174 85.1432 32.7436C85.1432 34.926 86.9619 36.6992 89.1988 36.6992ZM38.1126 38.8816C37.297 38.8912 36.4874 38.74 35.7303 38.4368C34.9731 38.1334 34.2831 37.684 33.6995 37.114C33.116 36.5441 32.6505 35.8647 32.3297 35.1149C32.0087 34.365 31.8386 33.5592 31.8291 32.7436C31.8291 29.3608 34.6481 26.6147 38.1126 26.6147C39.7583 26.5953 41.3444 27.2298 42.5225 28.379C43.7007 29.5281 44.3745 31.0979 44.3961 32.7436C44.3961 36.1353 41.5772 38.8816 38.1126 38.8816ZM38.1126 36.6992C38.6388 36.7063 39.1613 36.6097 39.65 36.4147C40.1389 36.2197 40.5843 35.9302 40.9611 35.5628C41.3378 35.1953 41.6384 34.7572 41.8455 34.2734C42.0527 33.7896 42.1623 33.2697 42.1682 32.7436C42.1682 30.5612 40.3495 28.788 38.1126 28.788C37.5864 28.7808 37.064 28.8774 36.5752 29.0724C36.0864 29.2674 35.6409 29.5569 35.2642 29.9244C34.8874 30.2918 34.5869 30.73 34.3797 31.2137C34.1726 31.6975 34.0629 32.2174 34.057 32.7436C34.057 34.926 35.8757 36.6992 38.1126 36.6992ZM69.0662 38.9543C68.2446 38.9818 67.4259 38.8421 66.66 38.5436C65.8941 38.245 65.1968 37.7938 64.6105 37.2175C64.0286 36.6228 63.5724 35.9169 63.2693 35.142C62.9662 34.367 62.8224 33.539 62.8464 32.7072C62.8464 30.9522 63.4102 29.4973 64.5469 28.3242C65.112 27.7468 65.791 27.2934 66.541 26.9928C67.2909 26.6922 68.0951 26.551 68.9026 26.5783C70.7213 26.5783 72.0125 27.1603 73.2492 28.2333C74.4858 29.3063 75.2861 31.325 75.1315 33.371H65.2016C65.1998 33.8471 65.308 34.3173 65.5178 34.7447C65.7276 35.1721 66.0333 35.5454 66.411 35.8353C67.1633 36.52 68.1492 36.891 69.1663 36.8719C70.6303 36.8719 71.8579 36.1444 72.4763 34.7987H74.895C74.4901 36.1757 73.6023 37.3605 72.3944 38.1359C71.4124 38.7088 70.3029 38.9543 69.0753 38.9543H69.0662ZM65.3016 31.3796H72.8127C72.6308 30.5975 72.1762 29.8791 71.4669 29.3335C70.7485 28.788 70.1211 28.5152 69.0662 28.5152C68.1842 28.5152 67.3203 28.8243 66.6929 29.3335C66.0564 29.8428 65.5108 30.5157 65.3016 31.3796Z" fill="#131212"/>
</g>
</g>
</g>
<defs>
<clipPath id="clip0_180_6152">
<rect width="96" height="64" fill="white"/>
</clipPath>
<clipPath id="clip1_180_6152">
<rect width="96" height="26.6667" fill="white" transform="translate(0 18.667)"/>
</clipPath>
</defs>
</svg>
