<svg width="96" height="64" viewBox="0 0 96 64" fill="none" xmlns="http://www.w3.org/2000/svg">
<g clip-path="url(#clip0_180_6191)">
<g clip-path="url(#clip1_180_6191)">
<mask id="mask0_180_6191" style="mask-type:luminance" maskUnits="userSpaceOnUse" x="0" y="19" width="96" height="26">
<path d="M95.216 19.2H0.645508V44.6612H95.216V19.2Z" fill="white"/>
</mask>
<g mask="url(#mask0_180_6191)">
<path d="M16.015 37.0713C17.8403 36.3934 18.7931 35.0879 18.7931 32.8411C18.7931 30.5943 16.8998 28.6145 14.5342 28.6105C12.0375 28.6066 10.1543 30.5862 10.1844 32.8411C10.2144 35.0961 11.29 36.5963 13.0112 37.1387L9.96201 44.6401C5.88105 43.5837 1.73047 38.7693 1.73047 32.8411C1.73047 25.8198 7.37215 20.1277 14.4434 20.1277C21.5147 20.1277 27.2472 25.8198 27.2472 32.8411C27.2472 38.8615 23.1359 43.6088 18.9678 44.6612L16.015 37.0713Z" fill="#131212"/>
<path d="M41.3391 28.1075C41.3391 29.0435 41.1009 29.7742 40.6249 30.2995C40.1521 30.8213 39.4888 31.0823 38.6352 31.0823C37.8163 31.0823 37.1641 30.8146 36.6786 30.2792C36.1963 29.7439 35.9551 29.0199 35.9551 28.1075C35.9551 27.1748 36.1915 26.4509 36.6643 25.9358C37.1404 25.4172 37.8068 25.158 38.6637 25.158C39.1936 25.158 39.6617 25.2775 40.068 25.5166C40.4742 25.7556 40.7868 26.099 41.0057 26.5469C41.2278 26.9913 41.3391 27.5115 41.3391 28.1075ZM37.8449 28.1075C37.8449 28.5991 37.9068 28.9745 38.0305 29.2338C38.1543 29.4897 38.3621 29.6176 38.6542 29.6176C38.9429 29.6176 39.1461 29.4897 39.2635 29.2338C39.3841 28.9745 39.4444 28.5991 39.4444 28.1075C39.4444 27.6193 39.3841 27.2506 39.2635 27.0014C39.1428 26.7523 38.9366 26.6277 38.6446 26.6277C38.3589 26.6277 38.1543 26.7523 38.0305 27.0014C37.9068 27.2472 37.8449 27.6159 37.8449 28.1075Z" fill="#131212"/>
<path d="M45.6345 31.0823C45.3615 31.0823 45.1172 31.0351 44.9015 30.9408C44.6857 30.8432 44.4714 30.6698 44.2589 30.4206H44.1731C44.2302 30.8213 44.2589 31.0704 44.2589 31.1682V33.4661H42.3975V25.259H43.9113L44.1731 25.9862H44.2589C44.6047 25.4341 45.0824 25.158 45.6918 25.158C46.2883 25.158 46.7564 25.4206 47.0959 25.9459C47.4355 26.4711 47.6054 27.1916 47.6054 28.1075C47.6054 29.0301 47.4275 29.7573 47.0722 30.2893C46.7199 30.818 46.2407 31.0823 45.6345 31.0823ZM45.0109 26.7085C44.738 26.7085 44.5459 26.8128 44.4349 27.0216C44.327 27.227 44.2683 27.5334 44.2589 27.9408V28.0974C44.2589 28.589 44.3207 28.9442 44.4445 29.163C44.5682 29.3819 44.7633 29.4913 45.03 29.4913C45.268 29.4913 45.441 29.3836 45.5489 29.1681C45.6568 28.9492 45.7107 28.589 45.7107 28.0873C45.7107 27.5957 45.6568 27.2438 45.5489 27.0317C45.441 26.8162 45.2617 26.7085 45.0109 26.7085Z" fill="#131212"/>
<path d="M51.2658 31.0823C50.3678 31.0823 49.6696 30.8297 49.1713 30.3246C48.6762 29.8163 48.4287 29.094 48.4287 28.158C48.4287 27.1916 48.6588 26.4509 49.1189 25.9358C49.5791 25.4172 50.2361 25.158 51.0897 25.158C51.9022 25.158 52.529 25.3836 52.97 25.8347C53.4144 26.2825 53.6366 26.929 53.6366 27.7742V28.6529H50.309C50.3217 28.9728 50.4313 29.2237 50.6375 29.4055C50.8469 29.5873 51.131 29.6782 51.4896 29.6782C51.8164 29.6782 52.1164 29.6462 52.3893 29.5822C52.6654 29.5149 52.9637 29.4021 53.2842 29.2439V30.6631C52.9922 30.8213 52.6909 30.9307 52.3797 30.9913C52.0687 31.052 51.6975 31.0823 51.2658 31.0823ZM51.1564 26.5014C50.9374 26.5014 50.7534 26.5755 50.6043 26.7236C50.4583 26.8684 50.3725 27.0974 50.3471 27.4105H51.9467C51.9402 27.1344 51.8656 26.9139 51.7228 26.7489C51.5833 26.5839 51.3944 26.5014 51.1564 26.5014Z" fill="#131212"/>
<path d="M58.1009 30.9815V27.8603C58.1009 27.4798 58.0484 27.1936 57.9436 27.0017C57.8421 26.8064 57.6771 26.7087 57.4486 26.7087C57.1344 26.7087 56.9075 26.8417 56.7679 27.1077C56.6282 27.3737 56.5585 27.8299 56.5585 28.4764V30.9815H54.6971V25.2592H56.1014L56.3347 25.9663H56.4441C56.6028 25.6969 56.8218 25.4949 57.1012 25.3602C57.3835 25.2255 57.7073 25.1582 58.0722 25.1582C58.6689 25.1582 59.1322 25.3417 59.4623 25.7087C59.7955 26.0757 59.962 26.5926 59.962 27.2592V30.9815H58.1009Z" fill="#131212"/>
<path d="M67.4553 29.3907C67.4553 29.9362 67.2681 30.3554 66.8935 30.6483C66.5189 30.9379 65.9827 31.0826 65.2845 31.0826C64.583 31.0826 64.0197 30.9698 63.5946 30.7443V29.719C64.2134 30.022 64.7894 30.1735 65.3226 30.1735C66.0112 30.1735 66.3555 29.953 66.3555 29.5119C66.3555 29.3705 66.3174 29.2526 66.2413 29.1584C66.1652 29.0641 66.0398 28.9664 65.8653 28.8654C65.6908 28.7644 65.4479 28.6499 65.137 28.522C64.5308 28.2728 64.1198 28.0237 63.904 27.7745C63.6913 27.5253 63.585 27.2021 63.585 26.8048C63.585 26.3267 63.7659 25.9563 64.1277 25.6937C64.4926 25.4277 64.9877 25.2947 65.6129 25.2947C66.2318 25.2947 66.8174 25.4277 67.3695 25.6937L67.0077 26.5876C66.4397 26.3385 65.9621 26.2139 65.5748 26.2139C64.9846 26.2139 64.6894 26.3923 64.6894 26.7492C64.6894 26.9243 64.7657 27.0725 64.918 27.1937C65.0735 27.3149 65.4098 27.4816 65.9271 27.6937C66.3619 27.8721 66.6777 28.0354 66.8745 28.1836C67.0713 28.3317 67.2172 28.5035 67.3124 28.6988C67.4076 28.8907 67.4553 29.1213 67.4553 29.3907Z" fill="#131212"/>
<path d="M73.3288 28.1785C73.3288 29.091 73.1081 29.8031 72.6671 30.3149C72.226 30.8267 71.6119 31.0826 70.8248 31.0826C70.3329 31.0826 69.8981 30.9647 69.5206 30.7291C69.1429 30.4934 68.8526 30.155 68.6495 29.7139C68.4463 29.2728 68.3447 28.761 68.3447 28.1785C68.3447 27.2728 68.5637 26.5657 69.0017 26.0573C69.4396 25.5489 70.0568 25.2947 70.8534 25.2947C71.615 25.2947 72.218 25.5556 72.6624 26.0775C73.1066 26.596 73.3288 27.2964 73.3288 28.1785ZM69.4967 28.1785C69.4967 29.4681 69.9458 30.1129 70.8439 30.1129C71.7326 30.1129 72.1768 29.4681 72.1768 28.1785C72.1768 26.9024 71.7293 26.2644 70.8343 26.2644C70.3647 26.2644 70.0234 26.4294 69.811 26.7593C69.6015 27.0893 69.4967 27.5624 69.4967 28.1785Z" fill="#131212"/>
<path d="M78.3329 30.9812L78.1759 30.2488H78.1188C77.9632 30.5081 77.7411 30.7119 77.4523 30.8599C77.1666 31.0081 76.8398 31.0822 76.4717 31.0822C75.8338 31.0822 75.3576 30.9139 75.0435 30.5771C74.7294 30.2404 74.5723 29.7303 74.5723 29.0468V25.3953H75.7005V28.8397C75.7005 29.2674 75.783 29.5889 75.948 29.8044C76.1131 30.0165 76.3716 30.1226 76.7239 30.1226C77.1937 30.1226 77.538 29.9745 77.757 29.6781C77.9791 29.3785 78.0901 28.8785 78.0901 28.1781V25.3953H79.2136V30.9812H78.3329Z" fill="#131212"/>
<path d="M83.478 25.2949C83.7034 25.2949 83.8891 25.3118 84.035 25.3454L83.9256 26.4515C83.7669 26.4111 83.6019 26.3909 83.4306 26.3909C82.983 26.3909 82.6197 26.5458 82.3403 26.8555C82.0643 27.1653 81.9263 27.5677 81.9263 28.0626V30.9818H80.8075V25.3959H81.6834L81.831 26.3808H81.8881C82.0627 26.0474 82.2897 25.7831 82.5688 25.5878C82.8514 25.3926 83.1543 25.2949 83.478 25.2949Z" fill="#131212"/>
<path d="M87.1405 31.0826C86.3439 31.0826 85.7377 30.8369 85.3219 30.3452C84.9094 29.8503 84.7031 29.1415 84.7031 28.219C84.7031 27.2795 84.9189 26.5573 85.3505 26.0523C85.7853 25.5472 86.412 25.2947 87.2309 25.2947C87.7862 25.2947 88.2861 25.4041 88.7303 25.623L88.3924 26.5775C87.9195 26.3822 87.5292 26.2846 87.2213 26.2846C86.3105 26.2846 85.8551 26.926 85.8551 28.2089C85.8551 28.8351 85.9678 29.3065 86.193 29.623C86.4216 29.9362 86.7548 30.0927 87.1927 30.0927C87.691 30.0927 88.1623 29.9614 88.6065 29.6988V30.7341C88.4066 30.8587 88.1925 30.9479 87.9639 31.0018C87.7386 31.0556 87.4641 31.0826 87.1405 31.0826Z" fill="#131212"/>
<path d="M92.1522 31.0829C91.3334 31.0829 90.6923 30.8304 90.2291 30.3253C89.7688 29.8169 89.5388 29.1182 89.5388 28.2293C89.5388 27.3168 89.7529 26.5996 90.1814 26.0778C90.6099 25.5559 91.1985 25.2949 91.9474 25.2949C92.6425 25.2949 93.1915 25.5188 93.5945 25.9666C93.9976 26.4145 94.1992 27.0306 94.1992 27.8152V28.4566H90.6907C90.7066 28.9987 90.8448 29.4162 91.1049 29.7091C91.3651 29.9987 91.7317 30.1434 92.2046 30.1434C92.5156 30.1434 92.8043 30.1132 93.0709 30.0526C93.3407 29.9886 93.6294 29.8842 93.9373 29.7394V30.7041C93.6644 30.8421 93.3883 30.9397 93.1091 30.997C92.8297 31.0543 92.5109 31.0829 92.1522 31.0829ZM91.9474 26.1939C91.5921 26.1939 91.3064 26.3134 91.0906 26.5525C90.8779 26.7916 90.751 27.1401 90.7097 27.598H93.0995C93.0932 27.1367 92.9885 26.7882 92.7854 26.5525C92.5822 26.3134 92.3029 26.1939 91.9474 26.1939Z" fill="#131212"/>
<path d="M46.4157 41.3541H45.2971V35.7681H46.4157V41.3541ZM45.2305 34.2884C45.2305 34.0763 45.2844 33.913 45.3923 33.7984C45.5034 33.684 45.6605 33.6267 45.8636 33.6267C46.0603 33.6267 46.2127 33.684 46.3206 33.7984C46.4316 33.913 46.4872 34.0763 46.4872 34.2884C46.4872 34.4903 46.4316 34.6503 46.3206 34.7681C46.2127 34.8827 46.0603 34.9399 45.8636 34.9399C45.6605 34.9399 45.5034 34.8827 45.3923 34.7681C45.2844 34.6503 45.2305 34.4903 45.2305 34.2884Z" fill="#131212"/>
<path d="M52.6494 41.3538H51.5258V37.9194C51.5258 37.4884 51.4434 37.1668 51.2784 36.9546C51.1166 36.7426 50.8578 36.6365 50.5025 36.6365C50.0296 36.6365 49.6837 36.7846 49.4647 37.0809C49.2456 37.3773 49.1362 37.8739 49.1362 38.5709V41.3538H48.0176V35.7678H48.8934L49.0505 36.5001H49.1077C49.2663 36.2341 49.4916 36.0287 49.7835 35.8839C50.0756 35.7392 50.3992 35.6667 50.7547 35.6667C52.0178 35.6667 52.6494 36.3487 52.6494 37.7123V41.3538Z" fill="#131212"/>
<path d="M55.326 41.3541H54.2073V35.7681H55.326V41.3541ZM54.1406 34.2884C54.1406 34.0763 54.1946 33.913 54.3025 33.7984C54.4136 33.684 54.5707 33.6267 54.7738 33.6267C54.9706 33.6267 55.1228 33.684 55.2308 33.7984C55.3418 33.913 55.3974 34.0763 55.3974 34.2884C55.3974 34.4903 55.3418 34.6503 55.2308 34.7681C55.1228 34.8827 54.9706 34.9399 54.7738 34.9399C54.5707 34.9399 54.4136 34.8827 54.3025 34.7681C54.1946 34.6503 54.1406 34.4903 54.1406 34.2884Z" fill="#131212"/>
<path d="M58.8908 40.4949C59.1636 40.4949 59.4366 40.4495 59.7096 40.3585V41.2525C59.5857 41.3097 59.4254 41.3568 59.2286 41.3938C59.035 41.4343 58.8335 41.4544 58.6241 41.4544C57.5641 41.4544 57.0341 40.8618 57.0341 39.6766V36.6666H56.3154V36.1413L57.0865 35.707L57.4673 34.5251H58.1576V35.7675H59.6571V36.6666H58.1576V39.6566C58.1576 39.9426 58.2242 40.1548 58.3576 40.2928C58.494 40.4275 58.6717 40.4949 58.8908 40.4949Z" fill="#131212"/>
<path d="M61.8757 41.3541H60.757V35.7681H61.8757V41.3541ZM60.6904 34.2884C60.6904 34.0763 60.7444 33.913 60.8524 33.7984C60.9634 33.684 61.1204 33.6267 61.3236 33.6267C61.5203 33.6267 61.6726 33.684 61.7806 33.7984C61.8916 33.913 61.9472 34.0763 61.9472 34.2884C61.9472 34.4903 61.8916 34.6503 61.7806 34.7681C61.6726 34.8827 61.5203 34.9399 61.3236 34.9399C61.1204 34.9399 60.9634 34.8827 60.8524 34.7681C60.7444 34.6503 60.6904 34.4903 60.6904 34.2884Z" fill="#131212"/>
<path d="M66.7751 41.3538L66.5514 40.576H66.5134C66.2595 40.916 66.0038 41.1483 65.7468 41.2728C65.4898 41.3941 65.1598 41.4547 64.7568 41.4547C64.2394 41.4547 63.8348 41.3065 63.5428 41.0102C63.254 40.7139 63.1096 40.2948 63.1096 39.7527C63.1096 39.1769 63.3111 38.7426 63.7142 38.4497C64.1172 38.1567 64.7313 37.9968 65.5564 37.9698L66.4657 37.9395V37.6416C66.4657 37.2847 66.3864 37.0186 66.2277 36.8436C66.0721 36.6651 65.8294 36.5759 65.4994 36.5759C65.2296 36.5759 64.971 36.618 64.7234 36.7023C64.4758 36.7863 64.2378 36.8856 64.0094 37.0001L63.6476 36.1517C63.9331 35.9935 64.2458 35.8739 64.5852 35.793C64.9249 35.7089 65.2455 35.6667 65.5468 35.6667C66.2165 35.6667 66.7211 35.8216 67.0608 36.1314C67.4035 36.4411 67.5748 36.9278 67.5748 37.591V41.3538H66.7751ZM65.109 40.5457C65.5153 40.5457 65.8404 40.4261 66.0849 40.1871C66.3324 39.9446 66.4561 39.6063 66.4561 39.1718V38.687L65.7801 38.7173C65.2533 38.7376 64.8694 38.8319 64.6282 39.0002C64.39 39.1652 64.2711 39.4194 64.2711 39.7627C64.2711 40.0119 64.341 40.2055 64.4805 40.3437C64.6202 40.4783 64.8297 40.5457 65.109 40.5457Z" fill="#131212"/>
<path d="M71.0959 40.4949C71.3687 40.4949 71.6417 40.4495 71.9146 40.3585V41.2525C71.7909 41.3097 71.6307 41.3568 71.4339 41.3938C71.2402 41.4343 71.0387 41.4544 70.8293 41.4544C69.7693 41.4544 69.2393 40.8618 69.2393 39.6766V36.6666H68.5205V36.1413L69.2917 35.707L69.6725 34.5251H70.3628V35.7675H71.8624V36.6666H70.3628V39.6566C70.3628 39.9426 70.4295 40.1548 70.5628 40.2928C70.6992 40.4275 70.8769 40.4949 71.0959 40.4949Z" fill="#131212"/>
<path d="M74.0827 41.3541H72.9641V35.7681H74.0827V41.3541ZM72.8975 34.2884C72.8975 34.0763 72.9514 33.913 73.0593 33.7984C73.1704 33.684 73.3275 33.6267 73.5306 33.6267C73.7273 33.6267 73.8797 33.684 73.9876 33.7984C74.0986 33.913 74.1541 34.0763 74.1541 34.2884C74.1541 34.4903 74.0986 34.6503 73.9876 34.7681C73.8797 34.8827 73.7273 34.9399 73.5306 34.9399C73.3275 34.9399 73.1704 34.8827 73.0593 34.7681C72.9514 34.6503 72.8975 34.4903 72.8975 34.2884Z" fill="#131212"/>
<path d="M76.8862 41.3541L74.8867 35.7683H76.0674L77.1385 39.0158C77.3226 39.5612 77.4336 40.0022 77.4717 40.339H77.5098C77.5383 40.0965 77.6494 39.6555 77.8429 39.0158L78.914 35.7683H80.1041L78.0952 41.3541H76.8862Z" fill="#131212"/>
<path d="M83.2022 41.4547C82.3834 41.4547 81.7423 41.2022 81.279 40.6973C80.8188 40.1887 80.5887 39.4901 80.5887 38.6011C80.5887 37.6886 80.803 36.9715 81.2314 36.4497C81.6599 35.9278 82.2485 35.6667 82.9975 35.6667C83.6925 35.6667 84.2416 35.8907 84.6445 36.3385C85.0476 36.7863 85.2491 37.4025 85.2491 38.187V38.8285H81.7407C81.7566 39.3705 81.8947 39.788 82.1549 40.0809C82.4152 40.3705 82.7817 40.5154 83.2546 40.5154C83.5656 40.5154 83.8543 40.485 84.121 40.4244C84.3907 40.3604 84.6794 40.2561 84.9873 40.1112V41.076C84.7144 41.2139 84.4382 41.3117 84.1591 41.3689C83.8797 41.4261 83.5608 41.4547 83.2022 41.4547ZM82.9975 36.5658C82.6421 36.5658 82.3564 36.6854 82.1405 36.9243C81.9281 37.1634 81.8011 37.5119 81.7597 37.9698H84.1495C84.1432 37.5086 84.0385 37.1601 83.8354 36.9243C83.6323 36.6854 83.3529 36.5658 82.9975 36.5658Z" fill="#131212"/>
<path d="M87.4689 34.9791H87.7063C87.8235 34.9791 87.9172 34.9491 87.9876 34.8889C88.0595 34.8275 88.0953 34.7497 88.0953 34.6559C88.0953 34.5462 88.0639 34.4677 88.0008 34.4207C87.9379 34.3724 87.8382 34.3483 87.702 34.3483H87.4689V34.9791ZM88.4228 34.6471C88.4228 34.7644 88.3913 34.8684 88.3283 34.9593C88.2667 35.0487 88.1796 35.1154 88.0668 35.1593L88.5897 36.0275H88.2206L87.7655 35.2493H87.4689V36.0275H87.1436V34.0692H87.7173C87.9605 34.0692 88.1385 34.1168 88.2514 34.212C88.3656 34.3072 88.4228 34.4523 88.4228 34.6471ZM86.0996 35.0472C86.0996 34.7542 86.1729 34.4794 86.3193 34.223C86.4659 33.9666 86.6675 33.7643 86.9238 33.6164C87.1802 33.4684 87.4564 33.3943 87.7525 33.3943C88.0455 33.3943 88.3203 33.4677 88.5767 33.6141C88.8332 33.7607 89.0352 33.9622 89.1832 34.2185C89.3313 34.4749 89.4053 34.7512 89.4053 35.0472C89.4053 35.3359 89.3343 35.6069 89.1921 35.8604C89.0499 36.114 88.8508 36.317 88.5943 36.4693C88.3378 36.6216 88.0572 36.6979 87.7525 36.6979C87.4492 36.6979 87.1693 36.6223 86.9128 36.4715C86.6564 36.3191 86.4564 36.1161 86.3128 35.8626C86.1708 35.6091 86.0996 35.3373 86.0996 35.0472ZM86.3304 35.0472C86.3304 35.3006 86.3942 35.5381 86.5216 35.7593C86.649 35.9791 86.8228 36.1528 87.0424 36.2803C87.2638 36.4062 87.5004 36.4693 87.7525 36.4693C88.0074 36.4693 88.244 36.4055 88.4624 36.278C88.6807 36.1506 88.8536 35.9784 88.981 35.7615C89.1101 35.5433 89.1746 35.3051 89.1746 35.0472C89.1746 34.7923 89.1108 34.5556 88.9832 34.3372C88.8558 34.119 88.6829 33.9461 88.4645 33.8185C88.2478 33.6896 88.0103 33.6251 87.7525 33.6251C87.4975 33.6251 87.2608 33.6889 87.0424 33.8164C86.8242 33.9438 86.6506 34.1168 86.5216 34.3351C86.3942 34.5519 86.3304 34.7894 86.3304 35.0472Z" fill="#131212"/>
</g>
</g>
</g>
<defs>
<clipPath id="clip0_180_6191">
<rect width="96" height="64" fill="white"/>
</clipPath>
<clipPath id="clip1_180_6191">
<rect width="96" height="25.6" fill="white" transform="translate(0 19.2)"/>
</clipPath>
</defs>
</svg>
