<svg width="96" height="64" viewBox="0 0 96 64" fill="none" xmlns="http://www.w3.org/2000/svg">
<g clip-path="url(#clip0_180_6176)">
<g clip-path="url(#clip1_180_6176)">
<mask id="mask0_180_6176" style="mask-type:luminance" maskUnits="userSpaceOnUse" x="0" y="21" width="96" height="23">
<path d="M95.6988 21.1628H0.587837V43.2817H95.6988V21.1628Z" fill="white"/>
</mask>
<g mask="url(#mask0_180_6176)">
<path d="M11.388 38.7191C12.2304 38.7191 13.0218 38.5483 13.7615 38.2056C14.5013 37.8633 15.1485 37.3949 15.7034 36.8002C16.258 36.2064 16.6947 35.5163 17.0132 34.7306C17.332 33.9449 17.4915 33.0989 17.4915 32.1925C17.4915 31.2858 17.332 30.4348 17.0132 29.6389C16.6947 28.8436 16.258 28.1483 15.7034 27.554C15.1485 26.9602 14.5013 26.4918 13.7615 26.1491C13.0218 25.8068 12.2304 25.6353 11.388 25.6353C10.5457 25.6353 9.75429 25.8068 9.01466 26.1491C8.2749 26.4918 7.62712 26.9602 7.07268 27.554C6.51777 28.1483 6.08133 28.8436 5.76259 29.6389C5.44385 30.4348 5.28501 31.2858 5.28501 32.1925C5.28501 33.0989 5.44385 33.9449 5.76259 34.7306C6.08133 35.5163 6.51777 36.2064 7.07268 36.8002C7.62712 37.3949 8.2749 37.8633 9.01466 38.2056C9.75429 38.5483 10.5457 38.7191 11.388 38.7191ZM11.3726 21.1631C12.8562 21.1631 14.2569 21.4554 15.5756 22.0393C16.8936 22.6239 18.0422 23.4195 19.0211 24.4266C19.9993 25.4342 20.7718 26.602 21.3387 27.9318C21.905 29.2612 22.1883 30.6816 22.1883 32.1925C22.1883 33.6833 21.905 35.1035 21.3387 36.4528C20.7718 37.8029 19.9993 38.9813 19.0211 39.9883C18.0422 40.9956 16.8936 41.7965 15.5756 42.3907C14.2569 42.9845 12.8562 43.2819 11.3726 43.2819C9.8893 43.2819 8.4884 42.9845 7.16999 42.3907C5.85153 41.7965 4.70822 40.9956 3.73994 39.9883C2.77154 38.9813 2.00431 37.8029 1.43768 36.4528C0.870728 35.1035 0.587837 33.6833 0.587837 32.1925C0.587837 30.6816 0.870728 29.2612 1.43768 27.9318C2.00431 26.602 2.77154 25.4342 3.73994 24.4266C4.70822 23.4195 5.85153 22.6239 7.16999 22.0393C8.4884 21.4554 9.8893 21.1631 11.3726 21.1631Z" fill="#131212"/>
<path d="M43.2329 31.8596C44.0983 32.3635 44.7573 33.0078 45.2108 33.7936C45.6638 34.5791 45.8904 35.4858 45.8904 36.5131C45.8904 37.4803 45.6535 38.3817 45.1798 39.2176C44.7056 40.0538 44.0364 40.7941 43.1711 41.4385C42.388 42.0231 41.4973 42.4709 40.4982 42.7833C39.4988 43.0954 38.4433 43.2613 37.3305 43.2817C36.2181 43.2817 35.1571 43.1308 34.1479 42.8283C33.1381 42.5263 32.2422 42.0729 31.4595 41.4687C30.2852 40.6026 29.4817 39.5552 29.049 38.3261L33.3754 36.3623C33.3754 36.5636 33.447 36.8151 33.5916 37.1177C33.7356 37.4198 33.9623 37.7119 34.2713 37.9936C34.5806 38.2763 34.9823 38.5179 35.4765 38.719C35.971 38.9207 36.5784 39.0209 37.2999 39.0209C37.8764 39.0209 38.3863 38.9509 38.8297 38.8096C39.2721 38.669 39.6429 38.4924 39.9421 38.2807C40.2404 38.0693 40.4672 37.8278 40.6218 37.5556C40.7765 37.2836 40.8534 37.0071 40.8534 36.7248C40.8534 36.4028 40.7455 36.1004 40.529 35.8181C40.3128 35.5364 39.9775 35.3147 39.5249 35.1536C38.7006 34.8716 37.83 34.6349 36.9137 34.4434C35.9967 34.252 35.1056 34.0104 34.2403 33.7182C33.3754 33.4262 32.5718 33.0381 31.8302 32.5549C31.0887 32.0714 30.5014 31.3967 30.0687 30.5302C29.6771 29.7649 29.4817 28.9489 29.4817 28.0824C29.4817 27.1156 29.7134 26.1788 30.1769 25.2725C30.6405 24.3659 31.2739 23.6004 32.0774 22.9759C32.8394 22.3919 33.6945 21.9437 34.6422 21.6313C35.5897 21.319 36.589 21.1628 37.6399 21.1628C38.6904 21.1628 39.6946 21.3139 40.6528 21.6162C41.6105 21.9183 42.4706 22.3617 43.2329 22.9457C43.9747 23.4898 44.5619 24.1242 44.9946 24.8494L41.4717 27.2064C41.039 26.6222 40.4982 26.1541 39.8493 25.801C39.2004 25.4491 38.4739 25.2725 37.6708 25.2725C36.5579 25.2725 35.6976 25.5141 35.0902 25.9977C34.4825 26.4813 34.1789 27.1156 34.1789 27.9014C34.1789 28.2639 34.3487 28.5863 34.6885 28.8682C35.0283 29.1507 35.4712 29.4022 36.0175 29.6235C36.5629 29.8456 37.1763 30.0419 37.856 30.213C38.5358 30.3842 39.2103 30.5556 39.8802 30.7265C40.5494 30.898 41.1828 31.0743 41.7806 31.2554C42.3778 31.4368 42.8622 31.6382 43.2329 31.8596Z" fill="#131212"/>
<path d="M66.9034 31.8596C67.7692 32.3635 68.4278 33.0078 68.8814 33.7936C69.3344 34.5791 69.5613 35.4858 69.5613 36.5131C69.5613 37.4803 69.3244 38.3817 68.8506 39.2176C68.3762 40.0538 67.707 40.7941 66.8418 41.4385C66.0588 42.0231 65.1682 42.4709 64.1685 42.7833C63.1694 43.0954 62.1141 43.2613 61.0013 43.2817C59.8884 43.2817 58.8277 43.1308 57.8185 42.8283C56.8087 42.5263 55.9127 42.0729 55.13 41.4687C53.9557 40.6026 53.1523 39.5552 52.7196 38.3261L57.0459 36.3623C57.0459 36.5636 57.1177 36.8151 57.2621 37.1177C57.4062 37.4198 57.6329 37.7119 57.9419 37.9936C58.2512 38.2763 58.6529 38.5179 59.147 38.719C59.6416 38.9207 60.2492 39.0209 60.9705 39.0209C61.5472 39.0209 62.0572 38.9509 62.5001 38.8096C62.9425 38.669 63.3133 38.4924 63.613 38.2807C63.9108 38.0693 64.1377 37.8278 64.2922 37.5556C64.4468 37.2836 64.5238 37.0071 64.5238 36.7248C64.5238 36.4028 64.416 36.1004 64.1999 35.8181C63.9837 35.5364 63.6479 35.3147 63.1954 35.1536C62.371 34.8716 61.5005 34.6349 60.5843 34.4434C59.6672 34.252 58.7763 34.0104 57.911 33.7182C57.0459 33.4262 56.2423 33.0381 55.5009 32.5549C54.7592 32.0714 54.1718 31.3967 53.7392 30.5302C53.3475 29.7649 53.1523 28.9489 53.1523 28.0824C53.1523 27.1156 53.3839 26.1788 53.8475 25.2725C54.3112 24.3659 54.9444 23.6004 55.748 22.9759C56.5099 22.3919 57.3652 21.9437 58.3127 21.6313C59.2603 21.319 60.2598 21.1628 61.3104 21.1628C62.361 21.1628 63.3654 21.3139 64.3236 21.6162C65.2812 21.9183 66.1411 22.3617 66.9034 22.9457C67.6454 23.4898 68.2323 24.1242 68.6653 24.8494L65.1421 27.2064C64.7098 26.6222 64.1685 26.1541 63.52 25.801C62.8709 25.4491 62.1443 25.2725 61.3411 25.2725C60.2284 25.2725 59.3681 25.5141 58.7608 25.9977C58.1532 26.4813 57.8494 27.1156 57.8494 27.9014C57.8494 28.2639 58.0192 28.5863 58.359 28.8682C58.6989 29.1507 59.1417 29.4022 59.688 29.6235C60.2337 29.8456 60.8467 30.0419 61.5266 30.213C62.2064 30.3842 62.8809 30.5556 63.5508 30.7265C64.22 30.898 64.8531 31.0743 65.4512 31.2554C66.0482 31.4368 66.5326 31.6382 66.9034 31.8596Z" fill="#131212"/>
<path d="M86.9574 38.7189C87.9459 38.7189 88.9137 38.4974 89.8616 38.0541C90.8086 37.6112 91.7669 36.8657 92.7355 35.8181L95.7643 38.6285C94.5483 40.1597 93.1628 41.3174 91.6078 42.1032C90.0519 42.8887 88.4501 43.2817 86.8026 43.2817C85.3193 43.2817 83.9282 42.9843 82.6306 42.3905C81.3325 41.7962 80.2049 40.9954 79.2467 39.9881C78.289 38.9811 77.5369 37.8077 76.9908 36.4676C76.4449 35.1283 76.1718 33.703 76.1718 32.1923C76.1718 30.6813 76.4555 29.261 77.0216 27.9315C77.5885 26.6018 78.3559 25.434 79.3243 24.4263C80.2926 23.4193 81.4355 22.6236 82.7544 22.0391C84.0727 21.4551 85.4733 21.1628 86.9574 21.1628C88.3377 21.1628 89.6506 21.4149 90.8968 21.9183C92.1431 22.422 93.3643 23.2581 94.5595 24.4263L91.8395 27.6597C90.9738 26.874 90.1556 26.3451 89.3825 26.0732C88.6101 25.801 87.8015 25.6653 86.9574 25.6653C86.1123 25.6653 85.314 25.8364 84.5625 26.1788C83.8097 26.5218 83.1559 26.9847 82.5998 27.569C82.0431 28.1532 81.6055 28.8433 81.2863 29.6387C80.9671 30.4346 80.8071 31.2855 80.8071 32.1923C80.8071 33.0986 80.9671 33.9447 81.2863 34.7303C81.6055 35.516 82.0431 36.2061 82.5998 36.8C83.1559 37.3947 83.8097 37.863 84.5625 38.2054C85.314 38.5481 86.1123 38.7189 86.9574 38.7189Z" fill="#131212"/>
</g>
</g>
</g>
<defs>
<clipPath id="clip0_180_6176">
<rect width="96" height="64" fill="white"/>
</clipPath>
<clipPath id="clip1_180_6176">
<rect width="96" height="23.3514" fill="white" transform="translate(0 20.3242)"/>
</clipPath>
</defs>
</svg>
