<svg width="96" height="64" viewBox="0 0 96 64" fill="none" xmlns="http://www.w3.org/2000/svg">
<g clip-path="url(#clip0_180_6122)">
<mask id="mask0_180_6122" style="mask-type:luminance" maskUnits="userSpaceOnUse" x="0" y="22" width="96" height="21">
<path d="M95.1155 22.4932H0.53418V42.3552H95.1155V22.4932Z" fill="white"/>
</mask>
<g mask="url(#mask0_180_6122)">
<path d="M0.94635 41.4094H5.25356V35.0737H10.0115C14.3188 35.0737 16.898 32.9201 16.898 29.3142C16.898 25.8333 14.1685 23.7799 10.0616 23.7799H0.94635V41.4094ZM5.25356 27.0604H9.66093C11.7395 27.0604 12.6158 27.9619 12.6158 29.3893C12.6158 31.1422 11.489 31.7683 9.66093 31.7683H5.25356V27.0604ZM30.4213 32.9201C30.4213 30.7666 29.62 28.1121 24.0105 28.1121C18.8769 28.1121 17.7501 30.6915 17.65 32.2941H21.7316C21.9071 31.5429 22.3076 30.8918 24.0607 30.8918C25.9638 30.8918 26.4146 31.7432 26.4146 32.795V33.1957H23.71C19.9037 33.1957 16.9237 34.1473 16.9237 37.5279C16.9237 39.6064 18.3511 41.76 21.8819 41.76C24.3361 41.76 25.8135 41.0587 26.5147 39.9571C26.5397 40.3075 26.5647 41.1089 26.6649 41.4094H30.5214C30.4964 41.134 30.4213 39.4561 30.4213 37.7783V32.9201ZM26.4146 35.9754C26.4146 37.8284 25.2876 38.8552 23.059 38.8552C21.5564 38.8552 20.8802 38.179 20.8802 37.3275C20.8802 36.3009 21.7067 35.7499 23.7851 35.7499C25.2376 35.7499 26.114 35.7499 26.4146 35.775V35.9754ZM32.4588 41.4094H36.5407V36.6765C36.5407 32.9954 38.5941 31.8183 41.5241 31.8684V28.1372C38.8446 28.0871 37.267 29.3642 36.5407 31.0671C36.5407 30.3659 36.4906 28.9385 36.4155 28.4627H32.4339C32.4588 29.6397 32.4588 30.8167 32.4588 31.9936V41.4094ZM46.6048 22.7532H42.5229V41.4094H46.6048V37.4528L48.6331 35.6998L52.5898 41.4094H57.5231L51.5129 33.4211L56.9721 28.4627H52.1391C50.5113 30.1656 47.8819 32.6948 46.6048 34.0471V22.7532ZM70.5355 35.9252C70.5605 35.5245 70.5605 35.2741 70.5605 34.9485C70.5605 31.593 68.5321 28.1121 63.4987 28.1121C58.7658 28.1121 56.3116 31.3175 56.3116 34.9485C56.3116 38.2541 58.2148 41.76 63.5237 41.76C67.6806 41.76 69.6089 39.7566 70.4102 37.4528H66.3034C65.8275 38.2541 65.1013 38.7299 63.5737 38.7299C61.6206 38.7299 60.4937 37.5029 60.3935 35.9252H70.5355ZM60.4436 33.4211C60.5438 32.1439 61.3451 30.992 63.4736 30.992C65.8026 30.992 66.3285 32.4444 66.4035 33.4211H60.4436ZM71.6768 41.4094H75.7587V36.6765C75.7587 32.9954 77.8121 31.8183 80.7419 31.8684V28.1372C78.0624 28.0871 76.4848 29.3642 75.7587 31.0671C75.7587 30.3659 75.7086 28.9385 75.6334 28.4627H71.6517C71.6768 29.6397 71.6768 30.8167 71.6768 31.9936V41.4094ZM89.417 29.7148V28.037H90.1934C90.7443 28.037 90.9446 28.1873 90.9446 28.7132C90.9446 28.9636 90.9446 29.5395 90.9947 29.7148H92.0464C92.0215 29.4644 92.0215 28.9886 92.0215 28.7382C92.0215 28.1873 91.8963 27.7115 91.4955 27.6113C91.8712 27.4861 92.1216 27.0854 92.1216 26.5846C92.1216 25.7832 91.4455 25.3325 90.5189 25.3325H88.3903V29.7148H89.417ZM89.4422 26.1338H90.2685C90.8946 26.1338 91.0698 26.3592 91.0698 26.6848C91.0698 27.1105 90.7443 27.2357 90.2936 27.2357H89.4422V26.1338ZM90.2184 23.1538C87.589 23.1538 85.761 24.9819 85.761 27.6113C85.761 30.2407 87.6641 32.0687 90.2184 32.0687C92.8227 32.0687 94.6257 30.2407 94.6257 27.6113C94.6257 25.1572 92.8729 23.1538 90.2184 23.1538ZM90.1934 24.0554C92.2969 24.0554 93.5991 25.5328 93.5991 27.6364C93.5991 29.6898 92.4722 31.1673 90.2184 31.1673C88.19 31.1673 86.7627 29.6898 86.7627 27.6113C86.7627 25.7081 87.7643 24.0554 90.1934 24.0554Z" fill="#131212"/>
</g>
</g>
<defs>
<clipPath id="clip0_180_6122">
<rect width="96" height="64" fill="white"/>
</clipPath>
</defs>
</svg>
