<svg width="96" height="64" viewBox="0 0 96 64" fill="none" xmlns="http://www.w3.org/2000/svg">
<g clip-path="url(#clip0_180_6220)">
<path d="M73.9921 19.402C75.1266 19.402 76.2147 19.8527 77.0169 20.6549C77.8192 21.4572 78.2699 22.5452 78.2699 23.6798V40.3198C78.2699 41.4543 77.8192 42.5424 77.0169 43.3446C76.2147 44.1468 75.1266 44.5975 73.9921 44.5975H49.1883C49.1883 45.6499 48.7702 46.6592 48.0261 47.4033C47.2819 48.1475 46.2726 48.5655 45.2203 48.5655C44.1679 48.5655 43.1586 48.1475 42.4145 47.4033C41.6703 46.6592 41.2523 45.6499 41.2523 44.5975H22.0087C20.8742 44.5975 19.7861 44.1468 18.9839 43.3446C18.1817 42.5424 17.731 41.4543 17.731 40.3198V23.6798C17.731 22.5452 18.1817 21.4572 18.9839 20.6549C19.7861 19.8527 20.8742 19.402 22.0087 19.402H73.9921ZM73.9921 16.9034H22.0087C20.212 16.9048 18.4892 17.6192 17.2187 18.8897C15.9481 20.1602 15.2338 21.883 15.2324 23.6798V40.3198C15.2317 42.1179 15.9452 43.8426 17.2159 45.1148C18.4867 46.387 20.2106 47.1024 22.0087 47.1038H39.2964C39.7979 48.2599 40.6264 49.2443 41.68 49.9358C42.7336 50.6273 43.9664 50.9957 45.2267 50.9957C46.4869 50.9957 47.7197 50.6273 48.7733 49.9358C49.8269 49.2443 50.6554 48.2599 51.1569 47.1038H73.9998C75.7966 47.1004 77.5185 46.384 78.7876 45.1121C80.0567 43.8401 80.7691 42.1165 80.7684 40.3198V23.6798C80.7691 21.8816 80.0556 20.1569 78.7849 18.8847C77.5142 17.6125 75.7902 16.8971 73.9921 16.8958V16.9034ZM41.0372 37.9697C41.0372 38.5699 40.7988 39.1455 40.3744 39.5699C39.95 39.9943 39.3744 40.2327 38.7742 40.2327C38.174 40.2327 37.5984 39.9943 37.174 39.5699C36.7496 39.1455 36.5111 38.5699 36.5111 37.9697V30.3793C36.5111 29.7791 36.7496 29.2035 37.174 28.7791C37.5984 28.3547 38.174 28.1162 38.7742 28.1162C39.3744 28.1162 39.95 28.3547 40.3744 28.7791C40.7988 29.2035 41.0372 29.7791 41.0372 30.3793V37.9697ZM57.6567 37.578C57.6534 38.2819 57.3708 38.9556 56.8712 39.4514C56.3716 39.9472 55.6957 40.2245 54.9918 40.2225H54.7563C54.3404 40.223 53.9303 40.1257 53.5589 39.9385C53.1876 39.7513 52.8655 39.4794 52.6187 39.1447L52.5905 39.1038L47.4884 31.7258V44.5258C47.4884 45.126 47.25 45.7016 46.8256 46.126C46.4012 46.5504 45.8256 46.7889 45.2254 46.7889C44.6252 46.7889 44.0496 46.5504 43.6252 46.126C43.2008 45.7016 42.9623 45.126 42.9623 44.5258V26.2449C42.961 25.5408 43.2389 24.8648 43.7351 24.3653C44.2313 23.8657 44.9053 23.5833 45.6094 23.5799H45.8654C46.2878 23.5854 46.703 23.6893 47.0781 23.8835C47.4532 24.0778 47.7778 24.3569 48.026 24.6986L48.0721 24.7601L53.1204 32.0766V30.2846C53.1204 29.6844 53.3588 29.1087 53.7833 28.6843C54.2077 28.2599 54.7833 28.0215 55.3835 28.0215C55.9837 28.0215 56.5593 28.2599 56.9837 28.6843C57.4081 29.1087 57.6465 29.6844 57.6465 30.2846L57.6567 37.578ZM73.9921 36.6359C73.9978 37.1446 73.8588 37.6445 73.5914 38.0773C73.324 38.5102 72.9392 38.8581 72.4817 39.0807C70.901 39.8862 69.1537 40.3105 67.3796 40.3198C62.5156 40.3198 59.1185 36.8663 59.1185 31.9204C59.1185 27.0308 62.5694 23.4724 67.3105 23.4724C69.3 23.435 71.2546 23.998 72.9195 25.0878C73.2416 25.2843 73.5077 25.5604 73.6924 25.8894C73.8771 26.2185 73.9741 26.5895 73.9742 26.9668C73.9759 27.2544 73.9202 27.5395 73.8103 27.8053C73.7004 28.0712 73.5386 28.3124 73.3342 28.5148C73.1299 28.7172 72.8871 28.8768 72.6203 28.9842C72.3535 29.0916 72.0679 29.1447 71.7803 29.1402C71.4236 29.1363 71.0728 29.0486 70.7563 28.8842L70.6718 28.8382C69.7306 28.2385 68.6364 27.923 67.5204 27.9294C65.0935 27.9294 63.6446 29.4142 63.6446 31.9025C63.6446 34.3908 65.1806 35.8782 67.6177 35.8782C68.324 35.881 69.0249 35.7552 69.6862 35.507V34.2116H67.8148C67.2377 34.2116 66.6842 33.9823 66.2762 33.5743C65.8681 33.1662 65.6388 32.6127 65.6388 32.0356C65.6388 31.4585 65.8681 30.905 66.2762 30.4969C66.6842 30.0888 67.2377 29.8596 67.8148 29.8596H71.6804C71.9837 29.8572 72.2843 29.9152 72.5649 30.0301C72.8456 30.1451 73.1005 30.3147 73.3149 30.5291C73.5293 30.7435 73.699 30.9985 73.8139 31.2791C73.9288 31.5597 73.9868 31.8604 73.9844 32.1636L73.9921 36.6359ZM33.8231 25.4871C32.6404 24.2865 30.9355 23.6798 28.739 23.6798H24.2615C23.6618 23.6825 23.0876 23.9231 22.6652 24.3489C22.2428 24.7747 22.0067 25.3507 22.0087 25.9505V37.9697C22.0285 38.5564 22.2754 39.1124 22.6974 39.5205C23.1194 39.9285 23.6835 40.1566 24.2705 40.1566C24.8575 40.1566 25.4216 39.9285 25.8436 39.5205C26.2656 39.1124 26.5125 38.5564 26.5323 37.9697V35.1358H28.739C30.9355 35.1358 32.6455 34.5265 33.8257 33.3258C34.8339 32.2727 35.3859 30.8642 35.3617 29.4065C35.3858 27.9482 34.8328 26.5395 33.8231 25.4871ZM28.506 31.1806H26.5323V27.6478H28.506C30.7076 27.6478 30.7076 28.8458 30.7076 29.4193C30.7076 29.9927 30.7076 31.1806 28.506 31.1806Z" fill="black"/>
</g>
<defs>
<clipPath id="clip0_180_6220">
<rect width="96" height="64" fill="white"/>
</clipPath>
</defs>
</svg>
