<svg width="37" height="40" viewBox="0 0 37 40" fill="none" xmlns="http://www.w3.org/2000/svg">
  <path d="M17.628 18.9727L0.964844 36.4304C1.15195 37.0936 1.4882 37.7052 1.9479 38.2185C2.4076 38.7317 2.97857 39.1331 3.61717 39.3919C4.25576 39.6507 4.94508 39.7601 5.63242 39.7116C6.31976 39.6632 6.98692 39.4582 7.58291 39.1124L26.332 28.4341L17.628 18.9727Z" fill="#EA4335" />
  <path d="M34.4804 16.0049L26.3723 11.3611L17.2461 19.3698L26.4096 28.4091L34.4555 23.815C35.1684 23.4417 35.7654 22.8805 36.182 22.1922C36.5986 21.5038 36.8188 20.7145 36.8188 19.9099C36.8188 19.1053 36.5986 18.3161 36.182 17.6277C35.7654 16.9393 35.1684 16.3781 34.4555 16.0049H34.4804Z" fill="#FBBC04" />
  <path d="M0.967408 3.30273C0.866683 3.67509 0.816566 4.05932 0.818408 4.44506V35.288C0.819416 35.6735 0.869485 36.0574 0.967408 36.4303L18.2017 19.4195L0.967408 3.30273Z" fill="#4285F4" />
  <path d="M17.7521 19.8666L26.3693 11.3612L7.64499 0.633257C6.94058 0.220702 6.13941 0.00220252 5.32308 8.88054e-06C4.33718 -0.00194489 3.37767 0.31853 2.59084 0.912581C1.804 1.50663 1.23299 2.34167 0.964844 3.29042L17.7521 19.8666Z" fill="#34A853" />
</svg>
