<svg width="96" height="64" viewBox="0 0 96 64" fill="none" xmlns="http://www.w3.org/2000/svg">
<g clip-path="url(#clip0_180_6061)">
<g clip-path="url(#clip1_180_6061)">
<mask id="mask0_180_6061" style="mask-type:luminance" maskUnits="userSpaceOnUse" x="0" y="19" width="96" height="26">
<path d="M0 19.6697H95.1712V44.3302H0V19.6697Z" fill="white"/>
</mask>
<g mask="url(#mask0_180_6061)">
<path fill-rule="evenodd" clip-rule="evenodd" d="M6.16514 35.5876V38.1602L0 31.9951L1.28587 30.7092L6.16514 35.5893V35.5876ZM8.73776 38.1602H6.16514L12.3303 44.3253L13.6161 43.0395L8.73776 38.1602ZM23.3703 33.2827L24.657 31.9951L12.3268 19.6648L11.0426 20.956L15.921 25.8335H12.9732L9.56829 22.4356L8.28242 23.7215L10.4006 25.8387H8.92095V35.4088H18.4901V33.9292L20.6083 36.0464L21.8942 34.7606L18.4901 31.3557V28.4078L23.3703 33.2827ZM6.80807 25.1923L5.5178 26.4799L6.89879 27.8591L8.18554 26.5733L6.80807 25.1923ZM17.7574 36.1416L16.4715 37.4292L17.8507 38.8102L19.1383 37.5226L17.7574 36.1416ZM4.04785 27.9525L2.76022 29.2401L6.16514 32.6451V30.0707L4.04785 27.9525ZM14.2608 38.1655H11.6856L15.0905 41.5704L16.3781 40.2828L14.2608 38.1655Z" fill="#131212"/>
<path d="M93.4917 38.146C92.6611 38.146 92.012 37.9206 91.5479 37.4679C91.0846 37.016 90.853 36.3881 90.853 35.5919V30.6598H89.3628V28.8146H90.8609L91.1269 26.3486H92.8813V28.8146H95.1695V30.6642H92.8813V35.3259C92.876 35.5804 92.9703 35.8262 93.1447 36.012C93.2336 36.1072 93.342 36.1821 93.4626 36.2315C93.5831 36.2809 93.7129 36.3037 93.8431 36.2982H95.1695V38.146H93.4917ZM84.5329 38.3195C83.4258 38.3195 82.5353 38.0553 81.8616 37.5269C81.192 37.0033 80.7329 36.2566 80.5678 35.4228H82.7696C82.8656 35.7434 83.0796 36.0164 83.3676 36.1864C83.7208 36.3898 84.1251 36.4894 84.5329 36.4735C85.7069 36.4735 86.297 36.145 86.297 35.51C86.297 35.1929 86.112 34.9516 85.743 34.7851C85.3132 34.6021 84.8641 34.4683 84.4043 34.3862C83.8716 34.2841 83.3445 34.1547 82.8251 33.9986C82.2948 33.8422 81.8241 33.529 81.4749 33.1003C81.1086 32.6608 80.9227 32.0857 80.9227 31.3723C80.9171 30.9968 80.9982 30.625 81.1596 30.2859C81.3211 29.9468 81.5586 29.6495 81.8537 29.4171C82.4763 28.8974 83.3395 28.6385 84.443 28.6403C85.5457 28.6403 86.4159 28.8869 87.0729 29.3783C87.719 29.8677 88.1631 30.5772 88.3209 31.3723H86.1164C85.8821 30.7849 85.3255 30.4916 84.4474 30.4916C83.505 30.4916 83.0374 30.7857 83.0374 31.3758C83.0388 31.5107 83.0764 31.6428 83.1461 31.7583C83.2157 31.8738 83.3151 31.9686 83.4337 32.0329C83.7349 32.216 84.0705 32.3367 84.4201 32.3869C84.857 32.4609 85.2894 32.5604 85.7148 32.6864C86.156 32.8114 86.5885 32.9664 87.0095 33.1496C87.419 33.3355 87.766 33.6375 88.0074 34.0171C88.286 34.4646 88.4249 34.985 88.4063 35.5118C88.4154 35.9041 88.3307 36.293 88.1591 36.6459C87.9875 36.9989 87.7341 37.3058 87.4199 37.541C86.7638 38.0588 85.8011 38.3186 84.5329 38.3195ZM77.9679 29.5721C77.2906 28.9617 76.3385 28.6561 75.1196 28.6561C74.1437 28.6561 73.3264 28.9186 72.6676 29.4435C72.0125 29.954 71.5491 30.671 71.3527 31.478H73.4338C73.5395 31.1724 73.7421 30.9099 74.0098 30.7294C74.3343 30.511 74.72 30.402 75.1108 30.4185C75.601 30.3914 76.0836 30.5481 76.4644 30.858C76.6321 31.0139 76.7633 31.205 76.8486 31.4175C76.9338 31.6301 76.9711 31.8588 76.9577 32.0875V32.5349H74.585C73.484 32.5349 72.6218 32.8079 72.0009 33.3566C71.7017 33.612 71.4629 33.9306 71.3017 34.2894C71.1404 34.6482 71.0607 35.0383 71.0682 35.4316C71.0555 35.8216 71.1264 36.2098 71.2762 36.5702C71.426 36.9305 71.6512 37.2546 71.9366 37.5207C72.5152 38.0685 73.2824 38.3424 74.238 38.3424C74.8301 38.356 75.416 38.2197 75.9413 37.9461C76.364 37.7409 76.7207 37.4221 76.9735 37.0257H77.0589L77.2236 38.1769H78.986V32.0936C78.9869 31.0253 78.6478 30.1842 77.9679 29.5721ZM76.9673 34.557C76.9797 34.8338 76.9309 35.1099 76.8243 35.3657C76.7177 35.6214 76.5561 35.8505 76.3508 36.0367C75.9431 36.3995 75.3855 36.581 74.6783 36.5827C74.164 36.5827 73.7694 36.4638 73.4981 36.2322C73.3661 36.1253 73.2604 35.9895 73.1891 35.8352C73.1178 35.681 73.0828 35.5125 73.0868 35.3426C73.0868 34.52 73.6241 34.1131 74.6783 34.1131H76.9673V34.557ZM65.782 38.3398C64.4477 38.3398 63.3803 37.9109 62.5806 37.0539C61.7826 36.197 61.3801 35.0124 61.3801 33.4958C61.3801 31.9809 61.78 30.8007 62.5753 29.942C63.3706 29.0833 64.4416 28.6561 65.7829 28.6561C66.8724 28.6561 67.7751 28.9468 68.492 29.5289C69.1952 30.0894 69.6962 30.864 69.9188 31.7352H67.9002C67.7021 31.349 67.3972 31.0278 67.0219 30.8099C66.6465 30.5919 66.2165 30.4863 65.7829 30.5057C65.4542 30.4941 65.1273 30.5586 64.8275 30.6941C64.5278 30.8296 64.2634 31.0325 64.0549 31.2869C63.6163 31.8091 63.397 32.5463 63.397 33.4966C63.397 34.4469 63.6172 35.1832 64.0549 35.7073C64.2631 35.9622 64.5274 36.1656 64.8271 36.3015C65.1269 36.4375 65.454 36.5024 65.7829 36.4911C66.2168 36.5096 66.6469 36.4033 67.0221 36.1847C67.3974 35.9662 67.7021 35.6446 67.9002 35.2581H69.9188C69.6965 36.1306 69.1955 36.9068 68.492 37.4687C67.7778 38.0491 66.8733 38.3398 65.782 38.3398ZM53.8736 41.6919L55.2828 38.1672L51.4983 28.8358H53.7001L56.2542 35.4395H56.3379L58.8965 28.8358H61.0983L55.9865 41.6919H53.8736ZM49.5959 29.5721C48.9177 28.9617 47.9665 28.6561 46.745 28.6561C45.77 28.6561 44.9536 28.9186 44.2939 29.4435C43.6411 29.9545 43.1806 30.6717 42.9878 31.478H45.068C45.1737 31.1724 45.3754 30.9099 45.6432 30.7294C45.9682 30.5118 46.3539 30.4035 46.7441 30.4185C47.3166 30.4185 47.7693 30.5647 48.0978 30.858C48.2658 31.0136 48.3972 31.2047 48.4825 31.4173C48.5678 31.6299 48.6048 31.8588 48.591 32.0875V32.5349H46.2068C45.1112 32.5349 44.2498 32.8079 43.6245 33.3566C43.325 33.6118 43.0858 33.9303 42.9244 34.2891C42.7629 34.648 42.6832 35.0382 42.6909 35.4316C42.6793 35.8202 42.7506 36.2069 42.9002 36.5658C43.0498 36.9246 43.2742 37.2475 43.5585 37.5128C44.1371 38.0606 44.9042 38.3345 45.8607 38.3345C46.452 38.3479 47.037 38.2116 47.5614 37.9382C47.9848 37.7329 48.343 37.4143 48.5963 37.0178H48.6799L48.8543 38.1689H50.6131V32.0857C50.6131 31.0226 50.2741 30.1842 49.5959 29.5721ZM48.5919 34.557C48.6042 34.8338 48.5554 35.1099 48.4488 35.3657C48.3423 35.6214 48.1806 35.8505 47.9753 36.0367C47.5667 36.3995 47.0092 36.581 46.3011 36.5827C45.7876 36.5827 45.3922 36.4638 45.1209 36.2322C44.9892 36.125 44.8836 35.9891 44.8124 35.835C44.7411 35.6808 44.7059 35.5124 44.7096 35.3426C44.7158 34.5236 45.2468 34.114 46.3011 34.1131H48.591L48.5919 34.557ZM38.1745 33.4966C38.489 33.413 38.7919 33.2941 39.0791 33.1408C39.4137 32.9576 39.7273 32.7374 40.0126 32.4838C40.3579 32.1658 40.6239 31.7713 40.7903 31.3327C40.9902 30.8174 41.0898 30.2679 41.081 29.7148C41.081 28.5416 40.7067 27.601 39.9571 26.8938C39.2068 26.1865 38.2309 25.8351 37.0305 25.8386H31.9222V38.1689H34.124V33.5918H35.7939L38.9672 38.1672H41.4333L38.1745 33.4966ZM34.1232 31.6418V27.778H36.8508C37.4761 27.778 37.9693 27.9427 38.3304 28.2862C38.6924 28.6297 38.8765 29.1 38.8765 29.7104C38.8765 30.3198 38.6942 30.7972 38.3278 31.1371C37.9252 31.4876 37.4024 31.6685 36.8693 31.6418H34.1232Z" fill="#131212"/>
</g>
</g>
</g>
<defs>
<clipPath id="clip0_180_6061">
<rect width="96" height="64" fill="white"/>
</clipPath>
<clipPath id="clip1_180_6061">
<rect width="96" height="24.6606" fill="white" transform="translate(0 19.6697)"/>
</clipPath>
</defs>
</svg>
