<svg width="98" height="48" viewBox="0 0 98 48" fill="none" xmlns="http://www.w3.org/2000/svg">
<path d="M0 12C0 5.37258 5.37258 0 12 0H74C87.2548 0 98 10.7452 98 24V36C98 42.6274 92.6274 48 86 48H12C5.37258 48 0 42.6274 0 36V12Z" fill="white" fill-opacity="0.24"/>
<path d="M1 12C1 5.92487 5.92487 1 12 1H74C86.7026 1 97 11.2975 97 24V36C97 42.0751 92.0751 47 86 47H12C5.92487 47 1 42.0751 1 36V12Z" stroke="url(#paint0_linear_180_5908)" stroke-opacity="0.12" stroke-width="2"/>
<path d="M25.9917 33.5898C30.6982 33.5898 34.583 29.7051 34.583 25.0068C34.583 20.3086 30.6899 16.4238 25.9834 16.4238C21.2852 16.4238 17.4087 20.3086 17.4087 25.0068C17.4087 29.7051 21.2935 33.5898 25.9917 33.5898ZM25.9917 31.8799C22.1816 31.8799 19.1353 28.8169 19.1353 25.0068C19.1353 21.1968 22.1816 18.1421 25.9834 18.1421C29.7935 18.1421 32.8564 21.1968 32.8647 25.0068C32.873 28.8169 29.8018 31.8799 25.9917 31.8799ZM26 28.2607C27.8013 28.2607 29.2539 26.8081 29.2539 24.9985C29.2539 23.2056 27.8013 21.7446 26 21.7446C24.1904 21.7446 22.7378 23.2056 22.7378 24.9985C22.7378 26.8081 24.1904 28.2607 26 28.2607Z" fill="#7E47EB"/>
<path d="M43.6399 30V18.3636H48.0036C48.8975 18.3636 49.6475 18.5189 50.2536 18.8295C50.8634 19.1402 51.3236 19.5758 51.6342 20.1364C51.9486 20.6932 52.1058 21.3428 52.1058 22.0852C52.1058 22.8314 51.9467 23.4792 51.6286 24.0284C51.3142 24.5739 50.8501 24.9962 50.2365 25.2955C49.6229 25.5909 48.8691 25.7386 47.9751 25.7386H44.8672V23.9886H47.6911C48.2138 23.9886 48.6418 23.9167 48.9751 23.7727C49.3085 23.625 49.5547 23.411 49.7138 23.1307C49.8767 22.8466 49.9581 22.4981 49.9581 22.0852C49.9581 21.6723 49.8767 21.3201 49.7138 21.0284C49.5509 20.733 49.3028 20.5095 48.9695 20.358C48.6361 20.2027 48.2062 20.125 47.6797 20.125H45.7479V30H43.6399ZM49.6513 24.7273L52.532 30H50.1797L47.3501 24.7273H49.6513ZM54.5462 30V18.3636H62.1143V20.1307H56.6541V23.2898H61.7223V25.0568H56.6541V28.233H62.1598V30H54.5462ZM74.7251 22.2898H72.6001C72.5395 21.9413 72.4278 21.6326 72.2649 21.3636C72.102 21.0909 71.8994 20.8598 71.657 20.6705C71.4145 20.4811 71.138 20.339 70.8274 20.2443C70.5206 20.1458 70.1892 20.0966 69.8331 20.0966C69.2005 20.0966 68.6399 20.2557 68.1513 20.5739C67.6626 20.8883 67.2801 21.3504 67.0036 21.9602C66.727 22.5663 66.5888 23.3068 66.5888 24.1818C66.5888 25.072 66.727 25.822 67.0036 26.4318C67.2839 27.0379 67.6664 27.4962 68.1513 27.8068C68.6399 28.1136 69.1986 28.267 69.8274 28.267C70.1759 28.267 70.5017 28.2216 70.8047 28.1307C71.1115 28.036 71.3861 27.8977 71.6286 27.7159C71.8748 27.5341 72.0812 27.3106 72.2479 27.0455C72.4183 26.7803 72.5357 26.4773 72.6001 26.1364L74.7251 26.1477C74.6456 26.7008 74.4732 27.2197 74.2081 27.7045C73.9467 28.1894 73.6039 28.6174 73.1797 28.9886C72.7554 29.3561 72.2592 29.6439 71.6911 29.8523C71.1229 30.0568 70.4922 30.1591 69.799 30.1591C68.7763 30.1591 67.8634 29.9223 67.0604 29.4489C66.2573 28.9754 65.6248 28.2917 65.1626 27.3977C64.7005 26.5038 64.4695 25.4318 64.4695 24.1818C64.4695 22.928 64.7024 21.8561 65.1683 20.9659C65.6342 20.072 66.2687 19.3883 67.0717 18.9148C67.8748 18.4413 68.7839 18.2045 69.799 18.2045C70.4467 18.2045 71.049 18.2955 71.6058 18.4773C72.1626 18.6591 72.6589 18.9261 73.0945 19.2784C73.5301 19.6269 73.888 20.0549 74.1683 20.5625C74.4524 21.0663 74.638 21.642 74.7251 22.2898Z" fill="white"/>
<defs>
<linearGradient id="paint0_linear_180_5908" x1="93.2861" y1="1.17792" x2="5.38142" y2="55.7166" gradientUnits="userSpaceOnUse">
<stop stop-color="white" stop-opacity="0.47"/>
<stop offset="0.505" stop-color="white" stop-opacity="0.3073"/>
<stop offset="1" stop-color="white" stop-opacity="0.5"/>
</linearGradient>
</defs>
</svg>
