<svg width="96" height="64" viewBox="0 0 96 64" fill="none" xmlns="http://www.w3.org/2000/svg">
<g clip-path="url(#clip0_180_6165)">
<mask id="mask0_180_6165" style="mask-type:luminance" maskUnits="userSpaceOnUse" x="0" y="21" width="96" height="22">
<path d="M95.4523 21.2256H0.269028V42.575H95.4523V21.2256Z" fill="white"/>
</mask>
<g mask="url(#mask0_180_6165)">
<path d="M23.099 34.4824C23.1936 35.4273 24.0596 37.0337 26.5322 37.0337C28.6898 37.0337 29.7292 35.6636 29.7292 34.3249C29.7292 33.1123 28.9101 32.1359 27.2881 31.7895L26.1227 31.5375C25.6661 31.4588 25.3668 31.2068 25.3668 30.7973C25.3668 30.3248 25.8393 29.9784 26.422 29.9784C27.3668 29.9784 27.7133 30.5926 27.7764 31.0808L29.6346 30.6556C29.5402 29.7736 28.7528 28.2775 26.4062 28.2775C24.6266 28.2775 23.3195 29.5059 23.3195 30.9704C23.3195 32.1201 24.0439 33.0808 25.6346 33.4273L26.7211 33.6793C27.3512 33.821 27.6031 34.1203 27.6031 34.4824C27.6031 34.9233 27.2565 35.3013 26.5165 35.3013C25.54 35.3013 25.0675 34.703 25.0046 34.0414L23.099 34.4824ZM36.8474 36.7818H38.9735C38.9419 36.4983 38.8948 35.9313 38.8948 35.2855V28.5295H36.6743V33.317C36.6743 34.2777 36.1073 34.9391 35.1151 34.9391C34.0757 34.9391 33.6033 34.199 33.6033 33.2856V28.5295H31.367V33.7422C31.367 35.5376 32.5009 36.9864 34.5009 36.9864C35.3671 36.9864 36.3277 36.6557 36.7844 35.8841C36.7687 36.2305 36.8002 36.6085 36.8474 36.7818ZM43.4933 39.9629V35.9785C43.9027 36.5297 44.7374 36.9864 45.8713 36.9864C48.2021 36.9864 49.7611 35.1438 49.7611 32.6398C49.7611 30.1989 48.3753 28.3563 45.9658 28.3563C44.7217 28.3563 43.8082 28.9075 43.4303 29.5532V28.5453H41.2728V39.9629H43.4933ZM47.5564 32.6556C47.5564 34.136 46.6588 34.9864 45.5091 34.9864C44.3751 34.9864 43.446 34.1203 43.446 32.6556C43.446 31.191 44.3594 30.3406 45.5091 30.3406C46.643 30.3406 47.5564 31.191 47.5564 32.6556ZM51.0054 34.5297C51.0054 35.8211 52.0762 37.0179 53.84 37.0179C55.0684 37.0179 55.8559 36.451 56.2652 35.7895C56.2652 36.1045 56.2969 36.5612 56.344 36.7818H58.3913C58.3441 36.4983 58.2968 35.9156 58.2968 35.4746V31.4114C58.2968 29.7579 57.3204 28.2775 54.7219 28.2775C52.5172 28.2775 51.3202 29.6949 51.1942 30.9862L53.1628 31.4114C53.2259 30.6871 53.7613 30.0729 54.7377 30.0729C55.6826 30.0729 56.1235 30.561 56.1235 31.1438C56.1235 31.4272 55.9661 31.6634 55.5093 31.7264L53.4778 32.0257C52.092 32.2303 51.0054 33.0493 51.0054 34.5297ZM54.3125 35.3486C53.588 35.3486 53.2416 34.8761 53.2416 34.3879C53.2416 33.758 53.6983 33.4273 54.2652 33.3485L56.1235 33.065V33.4273C56.1078 34.9076 55.2416 35.3486 54.3125 35.3486ZM62.6907 36.7818V35.7738C63.1315 36.4825 63.9977 36.9864 65.1317 36.9864C67.4781 36.9864 69.0215 35.1281 69.0215 32.6241C69.0215 30.1831 67.6356 28.309 65.2261 28.309C63.9977 28.309 63.1001 28.8445 62.7378 29.4272V24.6396H60.5488V36.766L62.6907 36.7818ZM66.8009 32.6398C66.8009 34.1517 65.9033 34.9864 64.7537 34.9864C63.6355 34.9864 62.6907 34.136 62.6907 32.6398C62.6907 31.128 63.6355 30.3091 64.7537 30.3091C65.8876 30.3091 66.8009 31.128 66.8009 32.6398ZM70.2813 34.5297C70.2813 35.8211 71.3523 37.0179 73.1162 37.0179C74.3445 37.0179 75.1318 36.451 75.5413 35.7895C75.5413 36.1045 75.5728 36.5612 75.6202 36.7818H77.6674C77.6201 36.4983 77.573 35.9156 77.573 35.4746V31.4114C77.573 29.7579 76.5966 28.2775 73.998 28.2775C71.7932 28.2775 70.5964 29.6949 70.4704 30.9862L72.4389 31.4114C72.5019 30.6871 73.0374 30.0729 74.0138 30.0729C74.9586 30.0729 75.3996 30.561 75.3996 31.1438C75.3996 31.4272 75.2421 31.6634 74.7855 31.7264L72.7539 32.0257C71.368 32.2303 70.2813 33.0493 70.2813 34.5297ZM73.5728 35.3486C72.8484 35.3486 72.502 34.8761 72.502 34.3879C72.502 33.758 72.9587 33.4273 73.5256 33.3485L75.3838 33.065V33.4273C75.3838 34.9076 74.5178 35.3486 73.5728 35.3486ZM79.1006 34.4824C79.195 35.4273 80.0612 37.0337 82.5337 37.0337C84.6913 37.0337 85.7307 35.6636 85.7307 34.3249C85.7307 33.1123 84.9117 32.1359 83.2897 31.7895L82.1242 31.5375C81.6675 31.4588 81.3683 31.2068 81.3683 30.7973C81.3683 30.3248 81.8408 29.9784 82.4235 29.9784C83.3683 29.9784 83.7148 30.5926 83.7778 31.0808L85.6361 30.6556C85.5416 29.7736 84.7542 28.2775 82.4077 28.2775C80.6282 28.2775 79.321 29.5059 79.321 30.9704C79.321 32.1201 80.0455 33.0808 81.6359 33.4273L82.7227 33.6793C83.3526 33.821 83.6046 34.1203 83.6046 34.4824C83.6046 34.9233 83.2581 35.3013 82.5179 35.3013C81.5415 35.3013 81.069 34.703 81.0061 34.0414L79.1006 34.4824ZM89.1165 31.7107C89.1637 30.9547 89.8091 30.0886 90.9593 30.0886C92.235 30.0886 92.7705 30.8918 92.8016 31.7107H89.1165ZM93.0223 33.8683C92.7544 34.6084 92.1878 35.1281 91.1479 35.1281C90.0458 35.1281 89.1165 34.3407 89.0693 33.2541H94.9588C94.9588 33.2226 94.9908 32.8919 94.9908 32.5611C94.9908 29.9154 93.4635 28.2933 90.9273 28.2933C88.8174 28.2933 86.8803 30.0099 86.8803 32.6398C86.8803 35.4273 88.8645 37.0494 91.1319 37.0494C93.1637 37.0494 94.4714 35.8526 94.8805 34.4352L93.0223 33.8683Z" fill="#131212"/>
<path d="M1.38327 34.0254C0.89507 34.0254 0.501358 33.6317 0.501358 33.1435C0.501358 32.9545 0.564352 32.7655 0.674591 32.6237L1.00531 32.1513L8.64331 21.8361C8.7063 21.7573 8.80079 21.6943 8.91103 21.6943C9.10002 21.6943 9.24171 21.8361 9.24171 22.0251V22.0566V34.0097L1.38327 34.0254Z" fill="#131212"/>
<path d="M17.1316 29.5684C17.6198 29.5684 18.0135 29.9621 18.0135 30.4503C18.0135 30.6393 17.9505 30.8282 17.8404 30.9699L17.5096 31.4424L9.87151 41.7576C9.80853 41.8364 9.71406 41.8993 9.60384 41.8993C9.41481 41.8993 9.2731 41.7576 9.2731 41.5687V41.5371V29.5684H17.1316Z" fill="#131212"/>
<path d="M17.1316 29.5684C17.6198 29.5684 18.0135 29.9621 18.0135 30.4503C18.0135 30.6393 17.9505 30.8282 17.8404 30.9699L17.5096 31.4424L9.87151 41.7576C9.80853 41.8364 9.71406 41.8993 9.60384 41.8993C9.41481 41.8993 9.2731 41.7576 9.2731 41.5687V41.5371V29.5684H17.1316Z" fill="#131212" fill-opacity="0.2"/>
</g>
</g>
<defs>
<clipPath id="clip0_180_6165">
<rect width="96" height="64" fill="white"/>
</clipPath>
</defs>
</svg>
