<svg width="96" height="64" viewBox="0 0 96 64" fill="none" xmlns="http://www.w3.org/2000/svg">
<g clip-path="url(#clip0_180_6224)">
<g clip-path="url(#clip1_180_6224)">
<mask id="mask0_180_6224" style="mask-type:luminance" maskUnits="userSpaceOnUse" x="0" y="20" width="96" height="24">
<path d="M95.5335 20.6416H0.280273V43.1319H95.5335V20.6416Z" fill="white"/>
</mask>
<g mask="url(#mask0_180_6224)">
<path d="M38.5854 34.3698C38.5854 34.7488 38.4759 35.0723 38.2603 35.3312C38.0442 35.5904 37.7544 35.7164 37.3743 35.7164C36.943 35.7164 36.6106 35.5809 36.3864 35.314C36.1597 35.0443 36.0447 34.6182 36.0447 34.0479V31.0246H39.6696V29.3811H36.0447V26.1973L34.1812 27.4142V29.3811H32.4873V31.0246H34.1812V34.1325C34.1812 35.1825 34.466 36.0114 35.0279 36.5958C35.5898 37.1812 36.3793 37.478 37.3743 37.478C38.0036 37.478 38.5525 37.3384 39.0059 37.063C39.459 36.7876 39.8139 36.4094 40.0608 35.9387C40.3071 35.4691 40.4319 34.9413 40.4319 34.3698H38.5854Z" fill="#131212"/>
<path d="M47.0068 34.9846C46.6633 35.273 46.3035 35.495 45.9383 35.6442C45.5745 35.7932 45.2173 35.8685 44.8769 35.8685C44.4743 35.8685 44.1587 35.7816 43.9392 35.6102C43.721 35.4399 43.6148 35.2224 43.6148 34.9455C43.6148 34.6351 43.7342 34.3988 43.9798 34.2231C44.2277 34.0449 44.6092 33.9547 45.1141 33.9547H47.4769V34.5246C47.3301 34.6915 47.173 34.845 47.0068 34.9846ZM47.6908 29.6502C47.159 29.3705 46.4975 29.2285 45.7236 29.2285C45.0404 29.2285 44.428 29.3501 43.9036 29.5897C43.3772 29.8299 42.9475 30.1725 42.6269 30.6078C42.3059 31.0436 42.1084 31.5604 42.0398 32.1436L43.9019 32.1613C43.9773 31.7508 44.1767 31.436 44.4945 31.2262C44.816 31.0135 45.2297 30.9056 45.7236 30.9056C46.2814 30.9056 46.7184 31.0457 47.0218 31.3222C47.3235 31.5972 47.4769 31.9729 47.4769 32.4386V32.5316H45.029C43.9817 32.5316 43.1545 32.7579 42.5709 33.2045C41.9818 33.6548 41.6889 34.275 41.7005 35.0484C41.712 35.555 41.8496 35.9963 42.1097 36.3604C42.3692 36.7237 42.7252 37.004 43.1679 37.1935C43.6076 37.3823 44.0971 37.4778 44.6229 37.4778C45.1481 37.4778 45.6521 37.3707 46.1208 37.1592C46.5874 36.9488 46.9918 36.6801 47.323 36.3602C47.3768 36.3083 47.4284 36.2559 47.4769 36.2032V37.3254H49.3401V32.5064C49.3401 31.8665 49.1981 31.295 48.9172 30.8082C48.6358 30.3207 48.2235 29.9311 47.6908 29.6502Z" fill="#131212"/>
<path d="M56.294 29.2288C55.6087 29.2288 54.9741 29.4055 54.4083 29.7543C53.9784 30.0191 53.6146 30.3981 53.3213 30.8844V29.3811H51.4578V37.3257H53.3213V34.2682C53.3213 33.5455 53.4254 32.9321 53.63 32.4448C53.8338 31.9612 54.1195 31.5941 54.4807 31.3531C54.8423 31.1124 55.2639 30.9904 55.7353 30.9904C56.3469 30.9904 56.8166 31.1662 57.1306 31.5132C57.4468 31.8615 57.6068 32.3611 57.6068 32.9977V37.3257H59.47V32.5404C59.47 31.467 59.1732 30.6377 58.5881 30.0752C58.0033 29.5135 57.2315 29.2288 56.294 29.2288Z" fill="#131212"/>
<path d="M66.8763 35.411C66.5085 35.6248 66.0711 35.7332 65.5763 35.7332C65.1138 35.7332 64.6868 35.6356 64.3076 35.4432C63.9301 35.2517 63.6333 34.9715 63.4261 34.6109C63.2175 34.2495 63.1116 33.8266 63.1116 33.3534C63.1116 32.8694 63.2175 32.4433 63.4256 32.0873C63.6333 31.7322 63.9301 31.4551 64.3076 31.2636C64.6868 31.0711 65.1142 30.9734 65.5763 30.9734C66.0716 30.9734 66.5085 31.0819 66.8763 31.2957C67.2433 31.5094 67.5321 31.7956 67.7354 32.1465C67.9382 32.4974 68.041 32.8921 68.041 33.3196V33.3873C68.041 33.8038 67.9382 34.1958 67.7354 34.5521C67.5325 34.9082 67.2433 35.1972 66.8763 35.411ZM68.041 26.8879V30.5253C67.7438 30.1478 67.3835 29.8486 66.9672 29.6331C66.4468 29.3648 65.8423 29.2287 65.1697 29.2287C64.4068 29.2287 63.7163 29.3993 63.117 29.7359C62.5168 30.0731 62.0388 30.5566 61.6961 31.1733C61.3543 31.7893 61.1805 32.5229 61.1805 33.3534C61.1805 34.1725 61.3543 34.9003 61.6961 35.5163C62.0388 36.1332 62.5168 36.6196 63.1161 36.9619C63.7154 37.3042 64.4064 37.478 65.1697 37.478C65.8423 37.478 66.4504 37.336 66.9765 37.056C67.387 36.8374 67.7438 36.5387 68.041 36.1652V37.3255H69.9046V25.6719L68.0679 26.8704L68.041 26.8879Z" fill="#131212"/>
<path d="M95.1449 30.7253C94.8862 30.2371 94.5249 29.8614 94.0713 29.6086C93.6177 29.3565 93.0923 29.2285 92.5097 29.2285C91.7556 29.2285 91.0689 29.4311 90.4688 29.8313C90.0481 30.1119 89.7081 30.5214 89.4509 31.0538C89.2691 30.5785 88.995 30.1903 88.6338 29.8941C88.0944 29.4525 87.4378 29.2285 86.6823 29.2285C86.203 29.2285 85.7457 29.3124 85.3229 29.4783C84.8971 29.6448 84.519 29.9182 84.198 30.2909C84.0822 30.4252 83.9759 30.5755 83.8785 30.7416V29.3809H82.0156V37.3254H83.8785V34.2679C83.8785 33.5441 83.9686 32.9298 84.1467 32.4418C84.3218 31.9589 84.5768 31.592 84.9044 31.3515C85.232 31.1117 85.6358 30.9902 86.1063 30.9902C86.65 30.9902 87.0794 31.1657 87.3828 31.5122C87.6877 31.8608 87.8423 32.3604 87.8423 32.9975V37.3254H89.7059V34.2679C89.7059 33.5441 89.796 32.9298 89.9734 32.4418C90.1485 31.9587 90.4043 31.5918 90.7318 31.3515C91.0587 31.1117 91.4632 30.9902 91.9337 30.9902C92.4774 30.9902 92.9069 31.1657 93.2095 31.5122C93.5144 31.8608 93.669 32.3604 93.669 32.9975V37.3254H95.5326V32.5401C95.5326 31.8226 95.4021 31.2121 95.1449 30.7253Z" fill="#131212"/>
<path d="M73.9461 32.077C74.1433 31.7045 74.4232 31.4072 74.7794 31.1938C75.1355 30.9802 75.5554 30.8719 76.0281 30.8719C76.5 30.8719 76.9089 30.9716 77.2431 31.1685C77.5758 31.3655 77.8367 31.6343 78.017 31.9673C78.1137 32.1465 78.1848 32.3409 78.2302 32.5487H73.7563C73.804 32.3831 73.8677 32.2256 73.9461 32.077ZM78.2669 34.7499C78.1811 34.9071 78.0646 35.0641 77.9158 35.2177C77.7422 35.3972 77.5062 35.5494 77.216 35.6701C76.9258 35.7905 76.5543 35.8517 76.1124 35.8517C75.606 35.8517 75.1634 35.7434 74.7955 35.5296C74.4291 35.316 74.1433 35.0164 73.9461 34.6388C73.8377 34.4317 73.7593 34.2086 73.7094 33.9718H80.2037V33.4212C80.2037 32.6472 80.0271 31.9339 79.679 31.3007C79.3309 30.6676 78.8399 30.1585 78.2178 29.7876C77.5956 29.4168 76.8584 29.2288 76.0281 29.2288C75.2418 29.2288 74.5177 29.4078 73.8729 29.7612C73.2289 30.1149 72.7059 30.6061 72.3188 31.2215C71.9306 31.8379 71.7335 32.5553 71.7335 33.3535C71.7335 34.174 71.9306 34.9028 72.3188 35.5192C72.7063 36.1354 73.2382 36.6211 73.9 36.9631C74.5602 37.3048 75.3099 37.478 76.1292 37.478C76.9023 37.478 77.5773 37.354 78.1357 37.1087C78.6948 36.8636 79.1543 36.5276 79.5039 36.1101C79.8417 35.7052 80.0711 35.2472 80.1891 34.7499H78.2669Z" fill="#131212"/>
<path d="M9.6141 36.8221L0.280273 42.9144V26.7338L9.6141 20.6416V36.8221Z" fill="#131212"/>
<path d="M24.6854 36.8221L15.3516 42.9144V26.7338L24.6854 20.6416V36.8221Z" fill="#131212"/>
</g>
</g>
</g>
<defs>
<clipPath id="clip0_180_6224">
<rect width="96" height="64" fill="white"/>
</clipPath>
<clipPath id="clip1_180_6224">
<rect width="96" height="22.7176" fill="white" transform="translate(0 20.6416)"/>
</clipPath>
</defs>
</svg>
