<svg width="160" height="160" viewBox="0 0 160 160" fill="none" xmlns="http://www.w3.org/2000/svg">
<g filter="url(#filter0_d_180_6819)">
<rect width="46.7339" height="46.7436" rx="11.8193" transform="matrix(0.960917 -0.276836 0.276709 0.960954 51 41.9376)" fill="white"/>
<path d="M92.4341 58.0262L91.6677 56.9517C91.6677 56.9517 92.6563 53.7715 88.0318 54.1133C88.0318 54.1133 87.361 50.7254 85.3677 49.6233C87.7919 45.3438 85.5797 40.5713 78.8445 46.0166C72.7376 39.6232 62.6292 61.6602 69.7703 62.6507C69.3803 63.6774 70.5959 67.8988 75.0786 67.0646C79.8563 72.5456 87.1526 70.9008 90.7557 67.8055C94.3588 64.7102 95.008 57.9704 92.4341 58.0262ZM74.7449 66.1702C71.0562 66.8519 69.2863 62.0282 72.2395 60.644C75.1927 59.2598 77.8506 65.5802 74.7449 66.1702ZM71.7651 59.7901C70.7803 60.0739 69.9695 61.7552 69.9695 61.7552C64.5177 60.8114 73.5159 41.5324 78.122 46.682C78.122 46.682 72.0604 52.0856 71.7651 59.7901ZM87.5553 61.7176C87.4743 61.4362 86.1997 62.5653 83.2634 62.4207C83.049 60.8824 87.0044 62.7145 91.2467 57.6063L92.0942 58.9623C93.9625 58.0431 93.9176 65.2945 87.5667 67.0479C82.4116 68.4569 79.2742 63.6462 81.2572 59.9509C81.6579 59.2259 78.7311 58.85 78.5144 56.2456C78.4215 55.1295 78.8902 53.3181 81.333 53.0715C83.7759 52.825 83.6604 50.5724 85.4308 50.9005C87.2011 51.2286 87.1376 54.4471 87.4702 54.8084C87.8028 55.1698 90.074 54.5916 90.8404 55.6661C91.6069 56.7406 89.0505 60.2963 83.713 61.0721C82.4767 61.2759 82.219 63.0264 83.2764 63.7885C85.4722 65.5941 91.3774 62.2928 91.8045 59.8077C89.719 62.6181 84.4553 64.9727 83.4052 62.9132C85.1553 63.171 87.6364 61.999 87.5553 61.7176ZM75.1397 53.2557C76.1401 50.9103 77.8559 49.1969 77.8559 49.1969L77.7377 50.3738C77.7377 50.3738 78.8907 48.8225 80.5086 48.3564L80.1079 49.0814C81.957 48.6249 82.9334 49.1056 82.9334 49.1056C82.9334 49.1056 78.2779 49.0753 75.1397 53.2557ZM85.4258 53.264C86.32 52.9302 86.6464 55.1219 86.6464 55.1219L86.0837 55.2841C86.0837 55.2841 84.5316 53.5978 85.4258 53.264ZM81.9443 56.7814C81.3314 57.0341 80.7293 57.5886 80.7186 57.2869C80.6758 56.0801 83.3595 55.6117 83.5728 56.617C83.7861 57.6223 82.8182 56.3772 81.9443 56.7814ZM83.6645 57.2001C83.7754 57.3206 83.1721 57.342 82.7704 57.5339C82.3686 57.7259 82.0073 58.0585 81.9668 57.9178C81.9263 57.7771 83.3618 56.6778 83.6645 57.2001ZM85.1321 57.0059C85.2216 56.523 86.1872 56.7019 86.0978 57.1849C86.0083 57.6678 85.0427 57.4888 85.1321 57.0059ZM86.9312 56.64C86.5091 56.7616 86.2457 55.8469 86.6678 55.7253C87.0898 55.6038 87.3735 56.5888 86.9514 56.7104L86.9312 56.64ZM75.3436 64.0166C75.6154 64.1669 75.1039 64.7714 74.5102 64.5615C73.9165 64.3516 74.4854 62.359 73.0977 62.3016C71.71 62.2442 72.5277 63.7612 72.1152 63.6514C71.7027 63.5417 71.8985 61.047 73.639 61.5361C75.3796 62.0252 73.8856 63.9795 74.8512 64.1585C75.8169 64.3375 75.1624 63.9164 75.3436 64.0166Z" fill="#1E1E1E"/>
</g>
<defs>
<filter id="filter0_d_180_6819" x="-2.6738" y="-2.53114" width="165.189" height="165.204" filterUnits="userSpaceOnUse" color-interpolation-filters="sRGB">
<feFlood flood-opacity="0" result="BackgroundImageFix"/>
<feColorMatrix in="SourceAlpha" type="matrix" values="0 0 0 0 0 0 0 0 0 0 0 0 0 0 0 0 0 0 127 0" result="hardAlpha"/>
<feOffset dy="22.1427"/>
<feGaussianBlur stdDeviation="26.8369"/>
<feColorMatrix type="matrix" values="0 0 0 0 0.259842 0 0 0 0 0.179861 0 0 0 0 0.770833 0 0 0 1 0"/>
<feBlend mode="normal" in2="BackgroundImageFix" result="effect1_dropShadow_180_6819"/>
<feBlend mode="normal" in="SourceGraphic" in2="effect1_dropShadow_180_6819" result="shape"/>
</filter>
</defs>
</svg>
