<svg width="167" height="167" viewBox="0 0 167 167" fill="none" xmlns="http://www.w3.org/2000/svg">
<g filter="url(#filter0_d_180_6797)">
<rect width="61.8967" height="61.9117" rx="15.5361" transform="matrix(0.98644 -0.164124 0.164044 0.986453 47.8848 37.7651)" fill="white"/>
<path fill-rule="evenodd" clip-rule="evenodd" d="M75.4087 46.2497C69.6439 47.6728 64.7444 48.894 64.5234 48.9597C63.898 49.2088 63.3759 49.7306 63.1924 50.3702L63.0229 50.9204L65.0878 63.1626L67.1526 75.4049L67.6461 76.1058C67.9422 76.4915 69.6813 78.2322 71.5661 79.9775C75.3075 83.473 75.5661 83.633 76.7462 83.5816C77.0894 83.5535 79.6379 83.0135 82.3463 82.3889C85.0829 81.7596 89.4934 80.7358 92.1218 80.1534C103.374 77.5564 102.791 77.7114 103.374 77.0343C104.079 76.221 104.183 77.3638 101.761 62.4549C99.6918 49.8363 99.5228 48.9945 99.2643 48.6605C98.9917 48.2418 98.5498 48.0254 92.7535 45.2488C88.8752 43.3711 88.6025 43.3005 87.0462 43.5304C86.3927 43.6101 81.1499 44.8594 75.4087 46.2497Z" fill="white"/>
<path fill-rule="evenodd" clip-rule="evenodd" d="M75.4087 46.2497C69.6439 47.6728 64.7444 48.894 64.5234 48.9597C63.898 49.2088 63.3759 49.7306 63.1924 50.3702L63.0229 50.9204L65.0878 63.1626L67.1526 75.4049L67.6461 76.1058C67.9422 76.4915 69.6813 78.2322 71.5661 79.9775C75.3075 83.473 75.5661 83.633 76.7462 83.5816C77.0894 83.5535 79.6379 83.0135 82.3463 82.3889C85.0829 81.7596 89.4934 80.7358 92.1218 80.1534C103.374 77.5564 102.791 77.7114 103.374 77.0343C104.079 76.221 104.183 77.3638 101.761 62.4549C99.6918 49.8363 99.5228 48.9945 99.2643 48.6605C98.9917 48.2418 98.5498 48.0254 92.7535 45.2488C88.8752 43.3711 88.6025 43.3005 87.0462 43.5304C86.3927 43.6101 81.1499 44.8594 75.4087 46.2497ZM88.7946 45.6755C89.3399 45.8167 93.3357 47.7039 93.9233 48.0991C94.0879 48.2167 94.1677 48.3485 94.0925 48.419C93.9749 48.5835 71.9929 53.6039 71.3253 53.599C71.0385 53.6177 70.5871 53.5188 70.3051 53.3917C69.1721 52.8552 66.3187 51.213 66.2953 51.0719C66.2296 50.6768 66.1449 50.6909 75.897 48.3144C77.7684 47.887 80.8623 47.1402 82.7244 46.6564C86.7634 45.6654 87.9765 45.4636 88.7946 45.6755ZM96.908 50.8795C97.1054 51.0206 97.2981 51.3076 97.4062 51.6086C97.4813 51.8861 98.3824 57.1301 99.3678 63.2301C101.076 73.6757 101.16 74.3577 101.01 74.6727C100.93 74.889 100.737 75.1241 100.549 75.2134C100.102 75.4907 77.0762 80.6847 76.5732 80.6234C76.3381 80.6046 75.9949 80.4587 75.8257 80.3128L75.4967 80.0776L73.5914 68.7947C72.2445 60.8699 71.6908 57.3661 71.7238 57.0416C71.7427 56.8065 71.8933 56.4914 72.0155 56.3551C72.1896 56.1811 73.5532 55.8382 78.2458 54.7675C81.5466 54.0443 86.6577 52.8749 89.5589 52.1892C96.5414 50.5925 96.5132 50.5972 96.908 50.8795Z" fill="black"/>
<path fill-rule="evenodd" clip-rule="evenodd" d="M91.312 55.7839C90.0566 56.0797 88.9469 56.3804 88.8481 56.4838C88.486 56.747 88.3166 57.1232 88.3212 57.4995C88.354 57.871 88.4763 57.9087 89.7739 57.8667L90.3193 57.834L91.1499 62.8287C91.6427 65.7917 91.9383 67.7435 91.8443 67.7011C91.7784 67.6541 89.7198 65.3866 87.2476 62.724C84.766 60.005 82.7167 57.7939 82.6885 57.7986C82.6556 57.7751 81.3955 58.0428 79.8626 58.4138C77.9912 58.8412 76.9708 59.1559 76.7921 59.3017C76.4817 59.5273 76.19 60.2138 76.2557 60.6089C76.2979 60.8629 76.7728 60.9289 77.7038 60.774L78.2116 60.6895L80.5955 75.0246L79.8196 75.4147C79.2553 75.6826 79.0484 75.833 78.9778 76.1058C78.8742 76.529 78.9305 76.8676 79.128 76.8348C79.1844 76.8254 80.501 76.5483 82.0056 76.182C84.9679 75.5151 85.2924 75.3742 85.4994 74.7017C85.5841 74.5136 85.6359 74.302 85.6218 74.2174C85.6172 74.1891 85.1705 74.1185 84.6721 74.0854C84.1456 74.057 83.6143 74.0004 83.5014 74.0192C83.2946 73.9956 83.2336 73.6287 82.3983 68.6058L81.502 63.216L85.9811 68.1837C90.6764 73.4054 91.2404 74.0075 91.8798 74.1911C92.6461 74.4406 94.4094 73.8863 95.2136 73.1435L95.4676 72.9272L94.1725 64.9648L92.8726 56.9742L93.4745 56.758C94.1846 56.4949 94.4668 56.1 94.3682 55.5074C94.3072 55.1405 94.2743 55.117 93.9405 55.2015C93.743 55.2344 92.544 55.5209 91.312 55.7839Z" fill="black"/>
</g>

</svg>
