<svg width="49" height="49" viewBox="0 0 49 49" fill="none" xmlns="http://www.w3.org/2000/svg">
<rect width="35.1116" height="35.116" rx="8.78397" transform="matrix(0.865971 0.500094 -0.499906 0.866079 17.6807 0.527756)" fill="white"/>
<path d="M24.7956 19.9076C25.2536 19.114 26.092 19.1901 27.1522 19.8024C28.6962 20.694 30.3833 22.2993 31.4466 24.0237L34.2052 19.2446C32.9106 17.6002 31.3793 16.3743 29.6965 15.4025C25.5803 13.0254 21.5968 13.5908 19.5222 17.1849C16.279 22.8038 24.5177 26.347 23.119 28.7704C22.5767 29.7098 21.5874 29.5418 20.4561 28.8885C18.7769 27.9187 17.0073 25.9716 15.8372 24.0622L13.1978 28.6349C14.514 30.4035 16.1758 31.8862 18.0822 32.9929C22.3016 35.4296 26.2557 35.2933 28.3631 31.6422C31.859 25.5856 23.4769 22.1921 24.7956 19.9076Z" fill="#6772E5"/>
</svg>
