<svg width="185" height="185" viewBox="0 0 185 185" fill="none" xmlns="http://www.w3.org/2000/svg">
<g filter="url(#filter0_d_180_6792)">
<rect width="49.8613" height="49.8725" rx="12.5268" transform="matrix(0.97363 0.228135 -0.228026 0.973655 74.0391 36.3223)" fill="white"/>
<path d="M87.3663 48.3508L105.309 52.555C109.094 53.4419 111.448 57.236 110.561 61.0222L106.358 78.9695C105.471 82.7557 101.678 85.1096 97.8926 84.2227L79.9499 80.0184C76.1646 79.1315 73.8113 75.3374 74.698 71.5512L78.9012 53.604C79.7879 49.8177 83.581 47.4638 87.3663 48.3508Z" fill="#FFD02F"/>
<path d="M101.582 55.8543L98.1056 55.0398L99.809 60.8071L94.6295 54.2253L91.1534 53.4108L92.8817 60.3802L87.6773 52.5963L84.2012 51.7818L85.8226 60.5156L78.6372 75.5396L82.1133 76.3541L92.75 60.9425L85.5894 77.1686L89.0655 77.9831L99.6751 61.3788L92.5416 78.7976L96.0177 79.6121L107.027 61.3021L101.582 55.8543Z" fill="#050038"/>
</g>
<defs>
<filter id="filter0_d_180_6792" x="-1.79641" y="-1.54726" width="188.845" height="188.861" filterUnits="userSpaceOnUse" color-interpolation-filters="sRGB">
<feFlood flood-opacity="0" result="BackgroundImageFix"/>
<feColorMatrix in="SourceAlpha" type="matrix" values="0 0 0 0 0 0 0 0 0 0 0 0 0 0 0 0 0 0 127 0" result="hardAlpha"/>
<feOffset dy="26.5938"/>
<feGaussianBlur stdDeviation="32.2317"/>
<feColorMatrix type="matrix" values="0 0 0 0 0.259842 0 0 0 0 0.179861 0 0 0 0 0.770833 0 0 0 1 0"/>
<feBlend mode="normal" in2="BackgroundImageFix" result="effect1_dropShadow_180_6792"/>
<feBlend mode="normal" in="SourceGraphic" in2="effect1_dropShadow_180_6792" result="shape"/>
</filter>
</defs>
</svg>
