<svg width="203" height="203" viewBox="0 0 203 203" fill="none" xmlns="http://www.w3.org/2000/svg">
<g filter="url(#filter0_d_180_6803)">
<rect width="64.5851" height="64.4932" rx="16.2248" transform="matrix(0.961194 0.275873 -0.275745 0.961231 79.3379 35)" fill="white"/>
<path d="M102.194 56.7791C102.618 56.6653 103.038 56.5263 103.473 56.4704C104.051 56.3984 104.635 56.389 105.215 56.4423C106.256 56.522 107.27 56.8184 108.19 57.3125C109.54 58.0267 110.65 59.1228 111.38 60.4636C111.719 61.0798 111.966 61.742 112.113 62.4294C112.528 64.3674 112.941 66.3055 113.352 68.2439C113.598 69.4085 113.84 70.5738 114.088 71.7383C114.407 73.2365 114.731 74.733 115.05 76.2311C115.297 77.3938 115.539 78.558 115.786 79.7206C116.187 81.5954 116.589 83.4706 116.993 85.3461C117.144 86.0589 117.335 86.7642 117.414 87.4913C117.513 88.3995 117.502 89.2961 117.233 90.1791C117.054 90.7689 116.909 91.369 116.607 91.9159C115.668 93.622 114.314 94.8519 112.488 95.5657C111.797 95.836 111.081 96.0203 110.356 96.0625C109.644 96.1034 108.912 96.094 108.213 95.8549C107.834 95.7247 107.442 95.6305 107.057 95.5188C105.964 95.2021 104.978 94.5927 104.207 93.7565C103.71 93.2289 103.268 92.6534 102.936 92.0038C102.599 91.3446 102.325 90.6614 102.17 89.935C101.94 88.864 101.712 87.7929 101.486 86.7218C101.158 85.1848 100.832 83.6477 100.506 82.1106C100.319 81.226 100.139 80.3405 99.9454 79.4574C99.7153 78.4015 99.4938 77.3404 99.2654 76.2822C98.9888 75.004 98.7053 73.7271 98.4627 72.4422C98.3763 71.9868 98.3111 71.5309 98.1248 71.1035C97.1898 68.9588 95.5658 67.7189 93.239 67.4218C92.3647 67.31 91.5107 67.4306 90.6768 67.7153C90.6669 67.719 90.6578 67.7258 90.6475 67.7289C90.4347 67.797 90.2296 67.7558 90.1466 67.6285C90.0766 67.521 90.1143 67.242 90.2375 67.1196C90.2967 67.059 90.3567 66.9976 90.4182 66.9388C91.1529 66.2341 91.873 65.5147 92.6349 64.8381C92.9317 64.5713 93.1984 64.2712 93.513 64.0172C93.7711 63.8086 93.988 63.5343 94.2327 63.2994C94.8405 62.7166 95.4551 62.1423 96.0634 61.5613C96.6401 61.0119 97.2117 60.4534 97.7881 59.9029C98.3646 59.3523 98.925 58.8098 99.5082 58.2799C99.9787 57.8529 100.546 57.5664 101.091 57.2493C101.411 57.0619 101.756 56.9453 102.093 56.8007L102.194 56.7791Z" fill="#1B1F22"/>
<path d="M85.0499 73.2858C85.3036 73.2921 85.4984 73.1198 85.7398 73.0653C86.2559 72.9401 86.7804 72.8518 87.3091 72.8009C88.5373 72.701 89.7728 72.8662 90.9319 73.2852C92.1822 73.7317 93.308 74.4696 94.216 75.4376C95.0806 76.3456 95.7222 77.3954 96.0969 78.5885C96.6677 80.4054 96.7135 82.2327 96.0545 84.0403C95.164 86.4843 93.5034 88.1881 91.0859 89.1649C90.3881 89.4478 89.6534 89.6302 88.904 89.7067C87.7328 89.8254 86.5758 89.6737 85.4501 89.3093C84.958 89.1429 84.4788 88.9403 84.0166 88.7032C82.9687 88.1925 82.059 87.4377 81.3642 86.5023C81.1966 86.2766 81.0014 86.0682 80.8902 85.7993C80.8133 85.6122 80.5952 85.5029 80.5561 85.2959C80.4939 84.9712 80.2939 84.7103 80.1663 84.418C79.9011 83.8068 79.7456 83.1743 79.6236 82.5245C79.4674 81.6905 79.5404 80.864 79.6551 80.0363C79.7848 79.1351 80.056 78.2602 80.4588 77.4437C80.4766 77.4273 80.4909 77.4076 80.501 77.3857C80.511 77.3638 80.5167 77.3401 80.5175 77.3159C80.7249 76.9559 80.8871 76.5729 81.1499 76.2403C81.49 75.8089 81.8244 75.3748 82.2494 75.0221C82.5892 74.7397 82.9121 74.4221 83.2921 74.2073C83.5848 74.0411 83.8303 73.8036 84.1703 73.6894C84.4379 73.6012 84.7001 73.4455 84.9636 73.3177L85.0499 73.2858Z" fill="#1B1F22"/>
</g>
<defs>
<filter id="filter0_d_180_6803" x="-2.9092" y="-2.86959" width="208.789" height="208.737" filterUnits="userSpaceOnUse" color-interpolation-filters="sRGB">
<feFlood flood-opacity="0" result="BackgroundImageFix"/>
<feColorMatrix in="SourceAlpha" type="matrix" values="0 0 0 0 0 0 0 0 0 0 0 0 0 0 0 0 0 0 127 0" result="hardAlpha"/>
<feOffset dy="26.5938"/>
<feGaussianBlur stdDeviation="32.2317"/>
<feColorMatrix type="matrix" values="0 0 0 0 0.259842 0 0 0 0 0.179861 0 0 0 0 0.770833 0 0 0 1 0"/>
<feBlend mode="normal" in2="BackgroundImageFix" result="effect1_dropShadow_180_6803"/>
<feBlend mode="normal" in="SourceGraphic" in2="effect1_dropShadow_180_6803" result="shape"/>
</filter>
</defs>
</svg>
