<svg width="96" height="64" viewBox="0 0 96 64" fill="none" xmlns="http://www.w3.org/2000/svg">
<g clip-path="url(#clip0_180_6161)">
<path d="M47.8985 26.6456C44.2625 26.6456 41.6408 29.0267 41.6408 32.5984C41.6408 36.1701 44.5886 38.5512 48.2279 38.5512C50.4246 38.5512 52.3612 37.6781 53.56 36.2065L51.0405 34.7447C50.3752 35.4756 49.3641 35.9022 48.2279 35.9022C46.6502 35.9022 45.3098 35.0754 44.8124 33.7526H54.0409C54.1132 33.3822 54.1562 32.9986 54.1562 32.5951C54.1562 29.0267 51.5379 26.6456 47.8985 26.6456ZM44.7861 31.4409C45.1978 30.1214 46.3242 29.2913 47.8985 29.2913C49.476 29.2913 50.6025 30.1214 51.011 31.4409H44.7861ZM44.0419 23.0078L34.9155 38.8819L25.7861 23.0078H29.2079L34.9124 32.9291L40.6166 23.0078H44.0419ZM13.195 21.3542L25.3645 42.5197H1.02551L13.195 21.3542ZM67.396 32.5984C67.396 34.5827 68.687 35.9055 70.6895 35.9055C72.0465 35.9055 73.0642 35.2871 73.5878 34.2784L76.1172 35.7435C75.0698 37.4962 73.1069 38.5512 70.6895 38.5512C67.0501 38.5512 64.432 36.1701 64.432 32.5984C64.432 29.0267 67.0534 26.6456 70.6895 26.6456C73.1069 26.6456 75.0666 27.7006 76.1172 29.4533L73.5878 30.9184C73.0642 29.9097 72.0465 29.2913 70.6895 29.2913C68.6904 29.2913 67.396 30.6142 67.396 32.5984ZM94.5608 23.0078V38.2205H91.5967V23.0078H94.5608ZM83.3629 26.6456C79.7268 26.6456 77.1053 29.0267 77.1053 32.5984C77.1053 36.1701 80.0563 38.5512 83.6923 38.5512C85.8889 38.5512 87.8256 37.6781 89.0243 36.2065L86.5048 34.7447C85.8396 35.4756 84.8284 35.9022 83.6923 35.9022C82.1146 35.9022 80.7742 35.0754 80.2768 33.7526H89.5053C89.5776 33.3822 89.6204 32.9986 89.6204 32.5951C89.6204 29.0267 87.0022 26.6456 83.3629 26.6456ZM80.2504 31.4409C80.6623 30.1214 81.7853 29.2913 83.3629 29.2913C84.9404 29.2913 86.0668 30.1214 86.4753 31.4409H80.2504ZM63.4439 26.9763V30.1809C63.1146 30.085 62.7653 30.0189 62.3899 30.0189C60.4764 30.0189 59.0964 31.3417 59.0964 33.326V38.2205H56.1324V26.9763H59.0964V30.0189C59.0964 28.3388 61.0428 26.9763 63.4439 26.9763Z" fill="#131212"/>
</g>
<defs>
<clipPath id="clip0_180_6161">
<rect width="96" height="64" fill="white"/>
</clipPath>
</defs>
</svg>
