<svg width="96" height="18" viewBox="0 0 96 18" fill="none" xmlns="http://www.w3.org/2000/svg">
<g clip-path="url(#clip0_180_6050)">
<g clip-path="url(#clip1_180_6050)">
<g clip-path="url(#clip2_180_6050)">
<path d="M28.3827 1.45505C27.2662 1.45505 26.0702 2.31441 25.1095 4.33894L23.8748 1.37646H23.7961C23.5914 1.848 22.9604 2.1 22.3619 2.1H15.8685V2.22557C16.3882 2.44596 16.8454 3.20025 17.2709 4.22277L21.3062 13.9721H21.4321L24.0546 7.62603L26.6806 13.9721H26.8065L29.0446 8.40511C29.9111 6.21911 30.4787 5.00866 30.4787 3.92378C30.4787 2.47671 29.6756 1.45505 28.3827 1.45505ZM22.3294 10.6005L19.7137 4.23814C19.2882 3.20025 19.682 2.46134 20.754 2.46134C21.6992 2.46134 22.1727 3.09006 22.6453 4.22277L23.8012 7.01439L22.3294 10.6005ZM28.6037 8.2163L27.6909 10.5313L25.2662 4.71395C25.8604 3.85544 26.6292 3.52998 27.5154 3.52998C28.5711 3.52998 29.2022 4.25352 29.2022 5.55878C29.2022 6.28232 29.0129 7.17926 28.6037 8.2163Z" fill="black"/>
<path d="M62.5224 7.76055C62.5224 6.47151 61.1987 5.52759 59.5119 5.52759C56.9588 5.52759 55.2249 7.72894 55.2249 10.0405C55.2249 12.5562 57.148 14.0665 59.0548 14.0665C60.5839 14.0665 62.0652 13.1388 62.5224 11.5192L62.412 11.4252C61.8922 12.1957 60.9932 12.6203 60.095 12.6203C58.9127 12.6203 57.9511 11.9438 57.4948 10.7333C59.9375 10.3395 62.5224 9.6783 62.5224 7.76055ZM57.3843 10.3548C57.2901 9.97731 57.2422 9.56898 57.2422 9.14442C57.2422 7.10023 58.1086 5.95214 59.1806 5.95214C60.0163 5.95214 60.268 6.65944 60.268 7.41458C60.268 8.98636 58.8501 10.0405 57.3843 10.3548Z" fill="black"/>
<path d="M78.0787 5.2915C76.9922 5.2915 75.9511 6.31402 75.3098 7.6936L74.2326 5.43245H74.1068C73.9021 6.20297 72.9406 6.6429 71.884 6.62753V6.75309C72.5459 6.91027 72.8293 7.53899 73.2394 8.37275L76.029 14.1123L75.8398 14.4583C75.2404 15.6379 74.8312 16.0625 74.4056 16.0625C73.6333 16.0625 73.5699 14.946 72.6401 14.946C72.0887 14.946 71.6315 15.3236 71.6315 15.9839C71.6315 16.7228 72.4509 17.1943 73.3019 17.1943C74.5469 17.1943 75.3192 16.2197 76.1549 14.6471L78.3142 10.6211C79.1807 9.00144 79.6542 8.29416 79.6542 7.08283C79.6551 6.10986 79.0874 5.2915 78.0787 5.2915ZM77.9367 10.4186L77.2431 11.7554L75.4631 8.01822C75.8038 7.41427 76.4032 6.92736 77.2902 6.92736C78.1258 6.92736 78.5668 7.44588 78.5668 8.29587C78.5677 8.8776 78.3622 9.60028 77.9367 10.4186Z" fill="black"/>
<path d="M39.2738 12.1953V7.33642C39.2738 6.25154 38.5957 5.52801 37.5871 5.52801C36.3738 5.52801 34.8447 6.62911 34.0252 7.43038V0.873291H33.9148C33.4259 1.64381 32.1656 2.11534 30.9514 2.08374V2.20931C31.645 2.3981 31.8496 2.88586 31.8496 3.82893V12.1944C31.8496 12.9018 31.5345 13.4681 30.9669 13.7039V13.8294H34.9388V13.7039C34.3557 13.3733 34.0244 12.9018 34.0244 12.2261V7.83871C34.9542 7.16215 35.664 6.83242 36.1837 6.83242C36.7668 6.83242 37.0982 7.25697 37.0982 8.12145V12.2261C37.0982 12.9026 36.7985 13.3579 36.1837 13.7039V13.8294H40.1557V13.7039C39.5888 13.4689 39.2738 12.9026 39.2738 12.1953Z" fill="black"/>
<path d="M68.7794 5.52801C67.645 5.52801 66.5567 6.36174 65.9582 7.00584V0.873291H65.8641C65.2964 1.64381 63.9881 2.11535 62.8219 2.08374V2.20931C63.4684 2.3981 63.7672 2.90124 63.7672 3.82893V13.9875H63.9093L64.9496 12.824C65.4068 13.5476 66.2733 13.9875 67.3136 13.9875C69.9301 13.9875 71.7265 11.7545 71.7265 9.3174C71.7265 7.08442 70.324 5.52801 68.7794 5.52801ZM67.2503 13.5629C66.4779 13.5629 65.9582 12.9342 65.9582 12.0689V7.44576C66.4779 6.9896 67.0619 6.56505 67.7075 6.58128C68.8111 6.59665 69.4413 7.83956 69.4567 9.74196C69.4729 11.8963 68.5902 13.5629 67.2503 13.5629Z" fill="black"/>
<path d="M53.9952 5.5278C53.1287 5.5278 52.1826 6.4555 51.7416 7.33622V5.43384H51.6158C51.0798 6.20435 49.8186 6.66052 48.637 6.64429V6.76986C49.2835 6.95865 49.5986 7.47716 49.5986 8.38951V12.1319C49.5986 12.8554 49.2835 13.4209 48.6533 13.7045V13.8301H52.7194V13.7045C52.073 13.4218 51.7896 12.8554 51.7896 12.1319V7.72916C52.0259 7.43018 52.2939 7.11582 52.609 7.11582C53.192 7.11582 53.4284 7.82312 54.1536 7.82312C54.6579 7.82312 55.1784 7.41395 55.1784 6.72202C55.1767 6.03094 54.6253 5.5278 53.9952 5.5278Z" fill="black"/>
<path d="M47.9111 7.76055C47.9111 6.47151 46.5873 5.52759 44.9006 5.52759C42.3474 5.52759 40.6136 7.72894 40.6136 10.0405C40.6136 12.5562 42.5366 14.0665 44.4434 14.0665C45.9726 14.0665 47.4538 13.1388 47.9111 11.5192L47.8006 11.4252C47.2809 12.1957 46.3818 12.6203 45.4837 12.6203C44.3013 12.6203 43.3398 11.9438 42.8834 10.7333C45.3261 10.3395 47.9111 9.6783 47.9111 7.76055ZM42.773 10.3548C42.6788 9.97731 42.6309 9.56898 42.6309 9.14442C42.6309 7.10023 43.4973 5.95214 44.5693 5.95214C45.405 5.95214 45.6729 6.65944 45.6729 7.41458C45.6729 8.98636 44.2388 10.0405 42.773 10.3548Z" fill="black"/>
</g>
</g>
</g>
<defs>
<clipPath id="clip0_180_6050">
<rect width="96" height="17" fill="white" transform="translate(0 0.5)"/>
</clipPath>
<clipPath id="clip1_180_6050">
<rect width="96" height="64" fill="white" transform="translate(-0.154785 0.847656)"/>
</clipPath>
<clipPath id="clip2_180_6050">
<rect width="64" height="16.3721" fill="white" transform="translate(15.8452 0.847656)"/>
</clipPath>
</defs>
</svg>
